M48
; DRILL file {KiCad 6.0.7-f9a2dced07~116~ubuntu20.04.1} date Di 22 Aug 2023 11:42:54 CEST
; FORMAT={-:-/ absolute / inch / decimal}
; #@! TF.CreationDate,2023-08-22T11:42:54+02:00
; #@! TF.GenerationSoftware,Kicad,Pcbnew,6.0.7-f9a2dced07~116~ubuntu20.04.1
; #@! TF.FileFunction,Plated,1,2,PTH
FMAT,2
INCH
; #@! TA.AperFunction,Plated,PTH,ViaDrill
T1C0.0157
; #@! TA.AperFunction,Plated,PTH,ComponentDrill
T2C0.0157
; #@! TA.AperFunction,Plated,PTH,ComponentDrill
T3C0.0315
; #@! TA.AperFunction,Plated,PTH,ComponentDrill
T4C0.0354
; #@! TA.AperFunction,Plated,PTH,ComponentDrill
T5C0.0374
; #@! TA.AperFunction,Plated,PTH,ComponentDrill
T6C0.0394
; #@! TA.AperFunction,Plated,PTH,ComponentDrill
T7C0.0433
; #@! TA.AperFunction,Plated,PTH,ComponentDrill
T8C0.0473
; #@! TA.AperFunction,Plated,PTH,ComponentDrill
T9C0.0512
%
G90
G05
T1
X2.3465Y-3.2057
X2.3494Y-4.4547
X2.3583Y-3.7126
X2.4124Y-3.9587
X2.4478Y-3.1988
X2.497Y-3.3967
X2.5325Y-4.562
X2.5531Y-4.2096
X2.5915Y-3.187
X2.6014Y-3.9528
X2.625Y-4.436
X2.6624Y-4.564
X2.7087Y-3.8711
X2.7244Y-3.751
X2.7293Y-3.2008
X2.7795Y-3.4262
X2.8996Y-4.5551
X2.938Y-3.4882
X2.9528Y-3.6654
X2.9892Y-3.3612
X2.9941Y-3.8888
X2.9951Y-3.7805
X2.997Y-3.253
X3.0807Y-3.4911
X3.1122Y-3.6033
X3.1122Y-4.5837
X3.2146Y-3.6152
X3.2165Y-3.8681
X3.3022Y-4.5699
X3.3031Y-3.5226
X3.3219Y-3.9409
X3.3484Y-3.814
X3.5079Y-4.0157
X3.5089Y-3.2008
X3.5089Y-3.2904
X3.5295Y-4.4173
X3.5571Y-4.5709
X3.6585Y-3.1939
X3.7451Y-4.4262
X3.7963Y-3.1959
X3.8376Y-4.5738
X3.9331Y-4.0354
X3.9429Y-3.7057
X3.997Y-4.1998
X4.0217Y-3.189
X4.0217Y-4.5679
X4.0797Y-3.3317
X4.2431Y-3.4075
X4.2559Y-3.6329
X4.2854Y-4.5561
X4.3947Y-3.5039
X4.4045Y-3.7254
X4.4134Y-3.9183
X4.4222Y-4.2628
X4.4252Y-4.4734
T2
X2.4579Y-4.3071
X2.4579Y-4.3583
X2.4579Y-4.4094
X2.4972Y-4.3327
X2.4972Y-4.3839
T3
X2.372Y-3.6093
X2.375Y-3.3297
X2.375Y-3.4636
X2.5689Y-3.6093
X2.675Y-3.3297
X2.675Y-3.4636
X2.7525Y-4.3799
X2.8509Y-4.3799
X2.8514Y-4.1585
X3.0482Y-4.1585
X3.1876Y-4.5148
X3.3602Y-4.1585
X3.4876Y-4.5148
X3.5571Y-4.1585
X3.6341Y-3.873
X3.7128Y-3.873
X3.89Y-3.872
X3.9687Y-3.872
X4.0059Y-4.4774
X4.0138Y-4.0719
X4.1258Y-3.8691
X4.2028Y-4.4774
X4.2045Y-3.8691
X4.2106Y-4.0719
T4
X3.5984Y-3.2963
X3.5994Y-3.563
X3.6984Y-3.2963
X3.6994Y-3.563
T5
X4.0085Y-4.3081
X4.1085Y-4.3081
X4.2085Y-4.3081
T6
X2.4035Y-3.8366
X2.4167Y-4.064
X2.5035Y-3.8366
X2.5167Y-4.064
X3.0482Y-4.3049
X3.0482Y-4.4049
X3.0482Y-4.5049
X3.2077Y-4.3012
X3.3077Y-4.3012
X3.4077Y-4.3012
X3.5077Y-4.3012
X3.6801Y-4.0748
X3.6801Y-4.1748
X3.8327Y-4.0732
X3.8327Y-4.1732
X4.375Y-4.0709
X4.375Y-4.1709
X4.3858Y-3.2283
X4.3858Y-3.3283
T7
X3.9031Y-3.2244
X4.2031Y-3.2244
T8
X2.4535Y-4.2175
X2.4535Y-4.499
T9
X3.9242Y-3.5207
X4.1211Y-3.5207
T0
M30
