%TF.GenerationSoftware,KiCad,Pcbnew,6.0.7-f9a2dced07~116~ubuntu20.04.1*%
%TF.CreationDate,2023-08-22T11:37:59+02:00*%
%TF.ProjectId,BlueBox,426c7565-426f-4782-9e6b-696361645f70,rev?*%
%TF.SameCoordinates,Original*%
%TF.FileFunction,Legend,Bot*%
%TF.FilePolarity,Positive*%
%FSLAX46Y46*%
G04 Gerber Fmt 4.6, Leading zero omitted, Abs format (unit mm)*
G04 Created by KiCad (PCBNEW 6.0.7-f9a2dced07~116~ubuntu20.04.1) date 2023-08-22 11:37:59*
%MOMM*%
%LPD*%
G01*
G04 APERTURE LIST*
%ADD10C,0.150000*%
G04 APERTURE END LIST*
D10*
X112763095Y-69623571D02*
X112620238Y-69671190D01*
X112572619Y-69718809D01*
X112525000Y-69814047D01*
X112525000Y-69956904D01*
X112572619Y-70052142D01*
X112620238Y-70099761D01*
X112715476Y-70147380D01*
X113096428Y-70147380D01*
X113096428Y-69147380D01*
X112763095Y-69147380D01*
X112667857Y-69195000D01*
X112620238Y-69242619D01*
X112572619Y-69337857D01*
X112572619Y-69433095D01*
X112620238Y-69528333D01*
X112667857Y-69575952D01*
X112763095Y-69623571D01*
X113096428Y-69623571D01*
X111953571Y-70147380D02*
X112048809Y-70099761D01*
X112096428Y-70004523D01*
X112096428Y-69147380D01*
X111144047Y-69480714D02*
X111144047Y-70147380D01*
X111572619Y-69480714D02*
X111572619Y-70004523D01*
X111525000Y-70099761D01*
X111429761Y-70147380D01*
X111286904Y-70147380D01*
X111191666Y-70099761D01*
X111144047Y-70052142D01*
X110286904Y-70099761D02*
X110382142Y-70147380D01*
X110572619Y-70147380D01*
X110667857Y-70099761D01*
X110715476Y-70004523D01*
X110715476Y-69623571D01*
X110667857Y-69528333D01*
X110572619Y-69480714D01*
X110382142Y-69480714D01*
X110286904Y-69528333D01*
X110239285Y-69623571D01*
X110239285Y-69718809D01*
X110715476Y-69814047D01*
X109477380Y-69623571D02*
X109334523Y-69671190D01*
X109286904Y-69718809D01*
X109239285Y-69814047D01*
X109239285Y-69956904D01*
X109286904Y-70052142D01*
X109334523Y-70099761D01*
X109429761Y-70147380D01*
X109810714Y-70147380D01*
X109810714Y-69147380D01*
X109477380Y-69147380D01*
X109382142Y-69195000D01*
X109334523Y-69242619D01*
X109286904Y-69337857D01*
X109286904Y-69433095D01*
X109334523Y-69528333D01*
X109382142Y-69575952D01*
X109477380Y-69623571D01*
X109810714Y-69623571D01*
X108667857Y-70147380D02*
X108763095Y-70099761D01*
X108810714Y-70052142D01*
X108858333Y-69956904D01*
X108858333Y-69671190D01*
X108810714Y-69575952D01*
X108763095Y-69528333D01*
X108667857Y-69480714D01*
X108525000Y-69480714D01*
X108429761Y-69528333D01*
X108382142Y-69575952D01*
X108334523Y-69671190D01*
X108334523Y-69956904D01*
X108382142Y-70052142D01*
X108429761Y-70099761D01*
X108525000Y-70147380D01*
X108667857Y-70147380D01*
X108001190Y-70147380D02*
X107477380Y-69480714D01*
X108001190Y-69480714D02*
X107477380Y-70147380D01*
X106334523Y-70147380D02*
X106334523Y-69147380D01*
X105953571Y-69147380D01*
X105858333Y-69195000D01*
X105810714Y-69242619D01*
X105763095Y-69337857D01*
X105763095Y-69480714D01*
X105810714Y-69575952D01*
X105858333Y-69623571D01*
X105953571Y-69671190D01*
X106334523Y-69671190D01*
X105334523Y-70147380D02*
X105334523Y-69480714D01*
X105334523Y-69671190D02*
X105286904Y-69575952D01*
X105239285Y-69528333D01*
X105144047Y-69480714D01*
X105048809Y-69480714D01*
X104572619Y-70147380D02*
X104667857Y-70099761D01*
X104715476Y-70052142D01*
X104763095Y-69956904D01*
X104763095Y-69671190D01*
X104715476Y-69575952D01*
X104667857Y-69528333D01*
X104572619Y-69480714D01*
X104429761Y-69480714D01*
X104334523Y-69528333D01*
X104286904Y-69575952D01*
X104239285Y-69671190D01*
X104239285Y-69956904D01*
X104286904Y-70052142D01*
X104334523Y-70099761D01*
X104429761Y-70147380D01*
X104572619Y-70147380D01*
X103953571Y-69480714D02*
X103572619Y-69480714D01*
X103810714Y-69147380D02*
X103810714Y-70004523D01*
X103763095Y-70099761D01*
X103667857Y-70147380D01*
X103572619Y-70147380D01*
X103096428Y-70147380D02*
X103191666Y-70099761D01*
X103239285Y-70052142D01*
X103286904Y-69956904D01*
X103286904Y-69671190D01*
X103239285Y-69575952D01*
X103191666Y-69528333D01*
X103096428Y-69480714D01*
X102953571Y-69480714D01*
X102858333Y-69528333D01*
X102810714Y-69575952D01*
X102763095Y-69671190D01*
X102763095Y-69956904D01*
X102810714Y-70052142D01*
X102858333Y-70099761D01*
X102953571Y-70147380D01*
X103096428Y-70147380D01*
X102477380Y-69480714D02*
X102096428Y-69480714D01*
X102334523Y-69147380D02*
X102334523Y-70004523D01*
X102286904Y-70099761D01*
X102191666Y-70147380D01*
X102096428Y-70147380D01*
X101858333Y-69480714D02*
X101620238Y-70147380D01*
X101382142Y-69480714D02*
X101620238Y-70147380D01*
X101715476Y-70385476D01*
X101763095Y-70433095D01*
X101858333Y-70480714D01*
X101001190Y-69480714D02*
X101001190Y-70480714D01*
X101001190Y-69528333D02*
X100905952Y-69480714D01*
X100715476Y-69480714D01*
X100620238Y-69528333D01*
X100572619Y-69575952D01*
X100525000Y-69671190D01*
X100525000Y-69956904D01*
X100572619Y-70052142D01*
X100620238Y-70099761D01*
X100715476Y-70147380D01*
X100905952Y-70147380D01*
X101001190Y-70099761D01*
X99715476Y-70099761D02*
X99810714Y-70147380D01*
X100001190Y-70147380D01*
X100096428Y-70099761D01*
X100144047Y-70004523D01*
X100144047Y-69623571D01*
X100096428Y-69528333D01*
X100001190Y-69480714D01*
X99810714Y-69480714D01*
X99715476Y-69528333D01*
X99667857Y-69623571D01*
X99667857Y-69718809D01*
X100144047Y-69814047D01*
X112786904Y-71090714D02*
X112548809Y-71757380D01*
X112310714Y-71090714D01*
X111405952Y-71757380D02*
X111977380Y-71757380D01*
X111691666Y-71757380D02*
X111691666Y-70757380D01*
X111786904Y-70900238D01*
X111882142Y-70995476D01*
X111977380Y-71043095D01*
X110977380Y-71662142D02*
X110929761Y-71709761D01*
X110977380Y-71757380D01*
X111025000Y-71709761D01*
X110977380Y-71662142D01*
X110977380Y-71757380D01*
X110310714Y-70757380D02*
X110215476Y-70757380D01*
X110120238Y-70805000D01*
X110072619Y-70852619D01*
X110025000Y-70947857D01*
X109977380Y-71138333D01*
X109977380Y-71376428D01*
X110025000Y-71566904D01*
X110072619Y-71662142D01*
X110120238Y-71709761D01*
X110215476Y-71757380D01*
X110310714Y-71757380D01*
X110405952Y-71709761D01*
X110453571Y-71662142D01*
X110501190Y-71566904D01*
X110548809Y-71376428D01*
X110548809Y-71138333D01*
X110501190Y-70947857D01*
X110453571Y-70852619D01*
X110405952Y-70805000D01*
X110310714Y-70757380D01*
X108501190Y-72138333D02*
X108548809Y-72090714D01*
X108644047Y-71947857D01*
X108691666Y-71852619D01*
X108739285Y-71709761D01*
X108786904Y-71471666D01*
X108786904Y-71281190D01*
X108739285Y-71043095D01*
X108691666Y-70900238D01*
X108644047Y-70805000D01*
X108548809Y-70662142D01*
X108501190Y-70614523D01*
X108167857Y-70852619D02*
X108120238Y-70805000D01*
X108025000Y-70757380D01*
X107786904Y-70757380D01*
X107691666Y-70805000D01*
X107644047Y-70852619D01*
X107596428Y-70947857D01*
X107596428Y-71043095D01*
X107644047Y-71185952D01*
X108215476Y-71757380D01*
X107596428Y-71757380D01*
X107215476Y-70852619D02*
X107167857Y-70805000D01*
X107072619Y-70757380D01*
X106834523Y-70757380D01*
X106739285Y-70805000D01*
X106691666Y-70852619D01*
X106644047Y-70947857D01*
X106644047Y-71043095D01*
X106691666Y-71185952D01*
X107263095Y-71757380D01*
X106644047Y-71757380D01*
X106215476Y-71662142D02*
X106167857Y-71709761D01*
X106215476Y-71757380D01*
X106263095Y-71709761D01*
X106215476Y-71662142D01*
X106215476Y-71757380D01*
X105548809Y-70757380D02*
X105453571Y-70757380D01*
X105358333Y-70805000D01*
X105310714Y-70852619D01*
X105263095Y-70947857D01*
X105215476Y-71138333D01*
X105215476Y-71376428D01*
X105263095Y-71566904D01*
X105310714Y-71662142D01*
X105358333Y-71709761D01*
X105453571Y-71757380D01*
X105548809Y-71757380D01*
X105644047Y-71709761D01*
X105691666Y-71662142D01*
X105739285Y-71566904D01*
X105786904Y-71376428D01*
X105786904Y-71138333D01*
X105739285Y-70947857D01*
X105691666Y-70852619D01*
X105644047Y-70805000D01*
X105548809Y-70757380D01*
X104644047Y-71185952D02*
X104739285Y-71138333D01*
X104786904Y-71090714D01*
X104834523Y-70995476D01*
X104834523Y-70947857D01*
X104786904Y-70852619D01*
X104739285Y-70805000D01*
X104644047Y-70757380D01*
X104453571Y-70757380D01*
X104358333Y-70805000D01*
X104310714Y-70852619D01*
X104263095Y-70947857D01*
X104263095Y-70995476D01*
X104310714Y-71090714D01*
X104358333Y-71138333D01*
X104453571Y-71185952D01*
X104644047Y-71185952D01*
X104739285Y-71233571D01*
X104786904Y-71281190D01*
X104834523Y-71376428D01*
X104834523Y-71566904D01*
X104786904Y-71662142D01*
X104739285Y-71709761D01*
X104644047Y-71757380D01*
X104453571Y-71757380D01*
X104358333Y-71709761D01*
X104310714Y-71662142D01*
X104263095Y-71566904D01*
X104263095Y-71376428D01*
X104310714Y-71281190D01*
X104358333Y-71233571D01*
X104453571Y-71185952D01*
X103834523Y-71662142D02*
X103786904Y-71709761D01*
X103834523Y-71757380D01*
X103882142Y-71709761D01*
X103834523Y-71662142D01*
X103834523Y-71757380D01*
X103405952Y-70852619D02*
X103358333Y-70805000D01*
X103263095Y-70757380D01*
X103025000Y-70757380D01*
X102929761Y-70805000D01*
X102882142Y-70852619D01*
X102834523Y-70947857D01*
X102834523Y-71043095D01*
X102882142Y-71185952D01*
X103453571Y-71757380D01*
X102834523Y-71757380D01*
X102215476Y-70757380D02*
X102120238Y-70757380D01*
X102025000Y-70805000D01*
X101977380Y-70852619D01*
X101929761Y-70947857D01*
X101882142Y-71138333D01*
X101882142Y-71376428D01*
X101929761Y-71566904D01*
X101977380Y-71662142D01*
X102025000Y-71709761D01*
X102120238Y-71757380D01*
X102215476Y-71757380D01*
X102310714Y-71709761D01*
X102358333Y-71662142D01*
X102405952Y-71566904D01*
X102453571Y-71376428D01*
X102453571Y-71138333D01*
X102405952Y-70947857D01*
X102358333Y-70852619D01*
X102310714Y-70805000D01*
X102215476Y-70757380D01*
X101501190Y-70852619D02*
X101453571Y-70805000D01*
X101358333Y-70757380D01*
X101120238Y-70757380D01*
X101025000Y-70805000D01*
X100977380Y-70852619D01*
X100929761Y-70947857D01*
X100929761Y-71043095D01*
X100977380Y-71185952D01*
X101548809Y-71757380D01*
X100929761Y-71757380D01*
X100596428Y-70757380D02*
X99977380Y-70757380D01*
X100310714Y-71138333D01*
X100167857Y-71138333D01*
X100072619Y-71185952D01*
X100025000Y-71233571D01*
X99977380Y-71328809D01*
X99977380Y-71566904D01*
X100025000Y-71662142D01*
X100072619Y-71709761D01*
X100167857Y-71757380D01*
X100453571Y-71757380D01*
X100548809Y-71709761D01*
X100596428Y-71662142D01*
X99644047Y-72138333D02*
X99596428Y-72090714D01*
X99501190Y-71947857D01*
X99453571Y-71852619D01*
X99405952Y-71709761D01*
X99358333Y-71471666D01*
X99358333Y-71281190D01*
X99405952Y-71043095D01*
X99453571Y-70900238D01*
X99501190Y-70805000D01*
X99596428Y-70662142D01*
X99644047Y-70614523D01*
M02*
