%TF.GenerationSoftware,KiCad,Pcbnew,6.0.7-f9a2dced07~116~ubuntu20.04.1*%
%TF.CreationDate,2023-08-22T11:37:59+02:00*%
%TF.ProjectId,BlueBox,426c7565-426f-4782-9e6b-696361645f70,rev?*%
%TF.SameCoordinates,Original*%
%TF.FileFunction,Copper,L2,Bot*%
%TF.FilePolarity,Positive*%
%FSLAX46Y46*%
G04 Gerber Fmt 4.6, Leading zero omitted, Abs format (unit mm)*
G04 Created by KiCad (PCBNEW 6.0.7-f9a2dced07~116~ubuntu20.04.1) date 2023-08-22 11:37:59*
%MOMM*%
%LPD*%
G01*
G04 APERTURE LIST*
%TA.AperFunction,ComponentPad*%
%ADD10R,1.700000X1.700000*%
%TD*%
%TA.AperFunction,ComponentPad*%
%ADD11O,1.700000X1.700000*%
%TD*%
%TA.AperFunction,ComponentPad*%
%ADD12C,0.800000*%
%TD*%
%TA.AperFunction,ComponentPad*%
%ADD13C,1.803150*%
%TD*%
%TA.AperFunction,ComponentPad*%
%ADD14C,1.478000*%
%TD*%
%TA.AperFunction,ComponentPad*%
%ADD15C,1.600000*%
%TD*%
%TA.AperFunction,ComponentPad*%
%ADD16O,1.600000X1.600000*%
%TD*%
%TA.AperFunction,ComponentPad*%
%ADD17C,2.600000*%
%TD*%
%TA.AperFunction,ComponentPad*%
%ADD18R,1.800000X1.800000*%
%TD*%
%TA.AperFunction,ComponentPad*%
%ADD19C,1.800000*%
%TD*%
%TA.AperFunction,ComponentPad*%
%ADD20R,2.200000X2.200000*%
%TD*%
%TA.AperFunction,ComponentPad*%
%ADD21O,2.200000X2.200000*%
%TD*%
%TA.AperFunction,ComponentPad*%
%ADD22R,1.600000X1.600000*%
%TD*%
%TA.AperFunction,ViaPad*%
%ADD23C,0.900000*%
%TD*%
%TA.AperFunction,Conductor*%
%ADD24C,0.400000*%
%TD*%
%TA.AperFunction,Conductor*%
%ADD25C,0.700000*%
%TD*%
G04 APERTURE END LIST*
D10*
%TO.P,J8,1,Pin_1*%
%TO.N,+12V*%
X111125000Y-103400000D03*
D11*
%TO.P,J8,2,Pin_2*%
%TO.N,GND*%
X111125000Y-105940000D03*
%TD*%
D12*
%TO.P,11,1,1*%
%TO.N,Net-(J4-Pad2)*%
X62430000Y-112000000D03*
%TO.P,11,2,2*%
%TO.N,USB_DM*%
X63430000Y-111350000D03*
%TO.P,11,3,3*%
%TO.N,USB_DP*%
X62430000Y-110700000D03*
%TO.P,11,4,4*%
%TO.N,unconnected-(11-Pad4)*%
X63430000Y-110050000D03*
%TO.P,11,5,5*%
%TO.N,GND*%
X62430000Y-109400000D03*
D13*
%TO.P,11,6,6*%
X62320000Y-114275000D03*
%TO.P,11,7,7*%
X62320000Y-107125000D03*
%TD*%
D14*
%TO.P,U1,1,VOUT*%
%TO.N,Net-(C6-Pad2)*%
X101815500Y-109425000D03*
%TO.P,U1,2,GND*%
%TO.N,GND*%
X104355500Y-109425000D03*
%TO.P,U1,3,VIN*%
%TO.N,+12V*%
X106895500Y-109425000D03*
%TD*%
D15*
%TO.P,R3,1*%
%TO.N,Net-(C7-Pad2)*%
X80965000Y-114675000D03*
D16*
%TO.P,R3,2*%
%TO.N,GND*%
X88585000Y-114675000D03*
%TD*%
D15*
%TO.P,R2,1*%
%TO.N,Net-(R1-Pad1)*%
X60325000Y-84575000D03*
D16*
%TO.P,R2,2*%
%TO.N,AUDIO_OUT_R*%
X67945000Y-84575000D03*
%TD*%
D15*
%TO.P,R1,1*%
%TO.N,Net-(R1-Pad1)*%
X60325000Y-87975000D03*
D16*
%TO.P,R1,2*%
%TO.N,AUDIO_OUT_L*%
X67945000Y-87975000D03*
%TD*%
D17*
%TO.P,L1,2,2*%
%TO.N,+12V*%
X104675000Y-89425000D03*
%TO.P,L1,1,1*%
%TO.N,Net-(D1-Pad1)*%
X99675000Y-89425000D03*
%TD*%
D11*
%TO.P,J7,4,Pin_4*%
%TO.N,UART_TX*%
X89095000Y-109250000D03*
%TO.P,J7,3,Pin_3*%
%TO.N,UART_RX*%
X86555000Y-109250000D03*
%TO.P,J7,2,Pin_2*%
%TO.N,RESET*%
X84015000Y-109250000D03*
D10*
%TO.P,J7,1,Pin_1*%
%TO.N,GND*%
X81475000Y-109250000D03*
%TD*%
%TO.P,J6,1,Pin_1*%
%TO.N,Net-(C7-Pad2)*%
X77425000Y-114425000D03*
D11*
%TO.P,J6,2,Pin_2*%
%TO.N,MFB*%
X77425000Y-111885000D03*
%TO.P,J6,3,Pin_3*%
%TO.N,SYS_PWR*%
X77425000Y-109345000D03*
%TD*%
D10*
%TO.P,J5,1,Pin_1*%
%TO.N,TEST_MODE*%
X93475000Y-103500000D03*
D11*
%TO.P,J5,2,Pin_2*%
%TO.N,GND*%
X93475000Y-106040000D03*
%TD*%
D10*
%TO.P,J4,1,Pin_1*%
%TO.N,USB_VCC*%
X63925000Y-103225000D03*
D11*
%TO.P,J4,2,Pin_2*%
%TO.N,Net-(J4-Pad2)*%
X61385000Y-103225000D03*
%TD*%
D10*
%TO.P,J3,1,Pin_1*%
%TO.N,Net-(C6-Pad2)*%
X97350000Y-106000000D03*
D11*
%TO.P,J3,2,Pin_2*%
%TO.N,+3.3V*%
X97350000Y-103460000D03*
%TD*%
D10*
%TO.P,J2,1,Pin_1*%
%TO.N,Net-(D1-Pad2)*%
X111400000Y-82000000D03*
D11*
%TO.P,J2,2,Pin_2*%
%TO.N,GND*%
X111400000Y-84540000D03*
%TD*%
D10*
%TO.P,J1,1,Pin_1*%
%TO.N,Net-(J1-Pad1)*%
X61050000Y-97450000D03*
D11*
%TO.P,J1,2,Pin_2*%
%TO.N,AUDIO_OUT_GND*%
X63590000Y-97450000D03*
%TD*%
D18*
%TO.P,D3,1,K*%
%TO.N,LED2*%
X91400000Y-83725000D03*
D19*
%TO.P,D3,2,A*%
%TO.N,SYS_PWR*%
X93940000Y-83725000D03*
%TD*%
D18*
%TO.P,D2,1,K*%
%TO.N,LED1*%
X91425000Y-90500000D03*
D19*
%TO.P,D2,2,A*%
%TO.N,SYS_PWR*%
X93965000Y-90500000D03*
%TD*%
D20*
%TO.P,D1,1,K*%
%TO.N,Net-(D1-Pad1)*%
X99140000Y-81900000D03*
D21*
%TO.P,D1,2,A*%
%TO.N,Net-(D1-Pad2)*%
X106760000Y-81900000D03*
%TD*%
D22*
%TO.P,C9,1*%
%TO.N,+12V*%
X100805113Y-98350000D03*
D15*
%TO.P,C9,2*%
%TO.N,GND*%
X98805113Y-98350000D03*
%TD*%
D22*
%TO.P,C8,1*%
%TO.N,Net-(D1-Pad1)*%
X94305113Y-98375000D03*
D15*
%TO.P,C8,2*%
%TO.N,GND*%
X92305113Y-98375000D03*
%TD*%
D22*
%TO.P,C7,1*%
%TO.N,SYS_PWR*%
X69913606Y-111250000D03*
D15*
%TO.P,C7,2*%
%TO.N,Net-(C7-Pad2)*%
X72413606Y-111250000D03*
%TD*%
%TO.P,C6,2*%
%TO.N,Net-(C6-Pad2)*%
X101750000Y-113725000D03*
%TO.P,C6,1*%
%TO.N,GND*%
X106750000Y-113725000D03*
%TD*%
%TO.P,C5,1*%
%TO.N,Net-(C5-Pad1)*%
X85350000Y-105625000D03*
%TO.P,C5,2*%
%TO.N,GND*%
X90350000Y-105625000D03*
%TD*%
%TO.P,C4,1*%
%TO.N,GND*%
X101950000Y-103425000D03*
%TO.P,C4,2*%
%TO.N,+12V*%
X106950000Y-103425000D03*
%TD*%
%TO.P,C3,1*%
%TO.N,SYS_PWR*%
X77425000Y-105625000D03*
%TO.P,C3,2*%
%TO.N,GND*%
X72425000Y-105625000D03*
%TD*%
%TO.P,C2,1*%
%TO.N,Net-(R1-Pad1)*%
X60250000Y-91675000D03*
%TO.P,C2,2*%
%TO.N,Net-(J1-Pad1)*%
X65250000Y-91675000D03*
%TD*%
D22*
%TO.P,C1,1*%
%TO.N,+12V*%
X104794888Y-98275000D03*
D15*
%TO.P,C1,2*%
%TO.N,GND*%
X106794888Y-98275000D03*
%TD*%
D23*
%TO.N,GND*%
X101525000Y-106675000D03*
X99900000Y-102500000D03*
X100150000Y-94125000D03*
X59900000Y-94300000D03*
X63425000Y-86275000D03*
X59600000Y-81425000D03*
X62175000Y-81250000D03*
X65825000Y-80950000D03*
X69325000Y-81300000D03*
X76125000Y-82625000D03*
X75925000Y-85375000D03*
X78250000Y-88675000D03*
X83900000Y-89475000D03*
X81650000Y-91825000D03*
X74625000Y-88600000D03*
X75000000Y-93100000D03*
X69200000Y-95275000D03*
X68800000Y-98325000D03*
X66075000Y-100400000D03*
X61275000Y-100550000D03*
X64850000Y-106925000D03*
X59675000Y-113150000D03*
X64325000Y-115875000D03*
X66675000Y-112675000D03*
X67625000Y-115925000D03*
X73650000Y-115700000D03*
X79050000Y-116425000D03*
X83875000Y-116075000D03*
X90350000Y-116100000D03*
X89650000Y-112200000D03*
X89100000Y-102000000D03*
X95125000Y-112425000D03*
X97475000Y-116175000D03*
X102150000Y-116025000D03*
X108850000Y-115725000D03*
X112400000Y-113625000D03*
X112325000Y-108275000D03*
X112100000Y-99525000D03*
X111875000Y-94625000D03*
X108100000Y-92275000D03*
X111625000Y-89000000D03*
X107775000Y-86550000D03*
X103625000Y-84625000D03*
X102150000Y-81000000D03*
X96425000Y-81175000D03*
X92925000Y-81125000D03*
X89125000Y-83575000D03*
X89125000Y-81300000D03*
%TO.N,Net-(C5-Pad1)*%
X84375000Y-100100000D03*
%TO.N,RESET*%
X79050000Y-91525000D03*
%TO.N,USB_DM*%
X76050000Y-98775000D03*
%TO.N,USB_DP*%
X76075000Y-96025000D03*
%TO.N,+3.3V*%
X81700000Y-98250000D03*
%TO.N,AUDIO_OUT_GND*%
X70600000Y-87025000D03*
%TO.N,SYS_PWR*%
X85050000Y-96875000D03*
%TD*%
D24*
%TO.N,Net-(C5-Pad1)*%
X85350000Y-101075000D02*
X85350000Y-105625000D01*
X84375000Y-100100000D02*
X85350000Y-101075000D01*
D25*
%TO.N,+3.3V*%
X97350000Y-103460000D02*
X94590000Y-100700000D01*
X94590000Y-100700000D02*
X91265000Y-100700000D01*
X91265000Y-100700000D02*
X88815000Y-98250000D01*
X88815000Y-98250000D02*
X81700000Y-98250000D01*
D24*
%TO.N,RESET*%
X84015000Y-109250000D02*
X79050000Y-104285000D01*
X79050000Y-104285000D02*
X79050000Y-91525000D01*
%TO.N,USB_DP*%
X76075000Y-96025000D02*
X76025000Y-96025000D01*
X76025000Y-96025000D02*
X67232501Y-104817499D01*
X62632501Y-104817499D02*
X61018425Y-106431575D01*
X67232501Y-104817499D02*
X62632501Y-104817499D01*
X61018425Y-106431575D02*
X61018425Y-109288425D01*
X61018425Y-109288425D02*
X62430000Y-110700000D01*
%TO.N,USB_DM*%
X76050000Y-98775000D02*
X76005000Y-98775000D01*
X76005000Y-98775000D02*
X63430000Y-111350000D01*
%TO.N,AUDIO_OUT_GND*%
X70600000Y-89840000D02*
X63515000Y-96925000D01*
X70600000Y-87025000D02*
X70600000Y-89840000D01*
%TO.N,SYS_PWR*%
X85050000Y-96875000D02*
X87590000Y-96875000D01*
X87590000Y-96875000D02*
X93965000Y-90500000D01*
X93965000Y-90500000D02*
X93965000Y-83750000D01*
X93965000Y-83750000D02*
X93940000Y-83725000D01*
%TD*%
%TA.AperFunction,Conductor*%
%TO.N,GND*%
G36*
X113633341Y-79920972D02*
G01*
X113679975Y-79974504D01*
X113691500Y-80027149D01*
X113691500Y-116815500D01*
X113671498Y-116883621D01*
X113617842Y-116930114D01*
X113565500Y-116941500D01*
X59009500Y-116941500D01*
X58941379Y-116921498D01*
X58894886Y-116867842D01*
X58883500Y-116815500D01*
X58883500Y-115359397D01*
X61806907Y-115359397D01*
X61810253Y-115363867D01*
X61941795Y-115420382D01*
X61952738Y-115423937D01*
X62156854Y-115470124D01*
X62168264Y-115471626D01*
X62377387Y-115479842D01*
X62388869Y-115479240D01*
X62595982Y-115449211D01*
X62607178Y-115446523D01*
X62805350Y-115379252D01*
X62815857Y-115374574D01*
X62824429Y-115369773D01*
X62834294Y-115359695D01*
X62831338Y-115352023D01*
X62332812Y-114853497D01*
X62318868Y-114845883D01*
X62317035Y-114846014D01*
X62310420Y-114850265D01*
X61813664Y-115347022D01*
X61806907Y-115359397D01*
X58883500Y-115359397D01*
X58883500Y-114249178D01*
X61114069Y-114249178D01*
X61127756Y-114458005D01*
X61129557Y-114469375D01*
X61181071Y-114672212D01*
X61184912Y-114683059D01*
X61228238Y-114777040D01*
X61237510Y-114787664D01*
X61243402Y-114785912D01*
X61741504Y-114287811D01*
X61747881Y-114276132D01*
X62890883Y-114276132D01*
X62891014Y-114277966D01*
X62895265Y-114284580D01*
X63393109Y-114782424D01*
X63405489Y-114789184D01*
X63412069Y-114784258D01*
X63419574Y-114770857D01*
X63424252Y-114760350D01*
X63491523Y-114562178D01*
X63494211Y-114550982D01*
X63524536Y-114341829D01*
X63525166Y-114334447D01*
X63526626Y-114278704D01*
X63526383Y-114271305D01*
X63507045Y-114060849D01*
X63504947Y-114049528D01*
X63448142Y-113848113D01*
X63444017Y-113837366D01*
X63412166Y-113772780D01*
X63402619Y-113762401D01*
X63396186Y-113764500D01*
X62898496Y-114262189D01*
X62890883Y-114276132D01*
X61747881Y-114276132D01*
X61749117Y-114273868D01*
X61748986Y-114272034D01*
X61744735Y-114265420D01*
X61248068Y-113768754D01*
X61235693Y-113761997D01*
X61229727Y-113766463D01*
X61207825Y-113808091D01*
X61203420Y-113818725D01*
X61141360Y-114018591D01*
X61138968Y-114029845D01*
X61114370Y-114237677D01*
X61114069Y-114249178D01*
X58883500Y-114249178D01*
X58883500Y-103191695D01*
X60022251Y-103191695D01*
X60022548Y-103196848D01*
X60022548Y-103196851D01*
X60029792Y-103322489D01*
X60035110Y-103414715D01*
X60036247Y-103419761D01*
X60036248Y-103419767D01*
X60051285Y-103486490D01*
X60084222Y-103632639D01*
X60145673Y-103783976D01*
X60151777Y-103799007D01*
X60168266Y-103839616D01*
X60192538Y-103879225D01*
X60266712Y-104000265D01*
X60284987Y-104030088D01*
X60431250Y-104198938D01*
X60603126Y-104341632D01*
X60796000Y-104454338D01*
X61004692Y-104534030D01*
X61009760Y-104535061D01*
X61009763Y-104535062D01*
X61117347Y-104556950D01*
X61223597Y-104578567D01*
X61228772Y-104578757D01*
X61228774Y-104578757D01*
X61441673Y-104586564D01*
X61441677Y-104586564D01*
X61446837Y-104586753D01*
X61451957Y-104586097D01*
X61451959Y-104586097D01*
X61556094Y-104572757D01*
X61626204Y-104583942D01*
X61679138Y-104631255D01*
X61698089Y-104699675D01*
X61677041Y-104767480D01*
X61661199Y-104786831D01*
X60537905Y-105910125D01*
X60531640Y-105915979D01*
X60488040Y-105954014D01*
X60483673Y-105960228D01*
X60451297Y-106006294D01*
X60447364Y-106011589D01*
X60407949Y-106061857D01*
X60404826Y-106068773D01*
X60403442Y-106071059D01*
X60395068Y-106085740D01*
X60393803Y-106088100D01*
X60389435Y-106094314D01*
X60386675Y-106101393D01*
X60386674Y-106101395D01*
X60366223Y-106153850D01*
X60363672Y-106159919D01*
X60337380Y-106218148D01*
X60335996Y-106225615D01*
X60335195Y-106228170D01*
X60330566Y-106244423D01*
X60329903Y-106247003D01*
X60327143Y-106254084D01*
X60326152Y-106261615D01*
X60326151Y-106261617D01*
X60318804Y-106317427D01*
X60317773Y-106323934D01*
X60306129Y-106386761D01*
X60306566Y-106394341D01*
X60306566Y-106394342D01*
X60309716Y-106448967D01*
X60309925Y-106456221D01*
X60309925Y-109259513D01*
X60309633Y-109268083D01*
X60306555Y-109313240D01*
X60305700Y-109325777D01*
X60307005Y-109333254D01*
X60307005Y-109333255D01*
X60316686Y-109388724D01*
X60317648Y-109395246D01*
X60325323Y-109458667D01*
X60328006Y-109465768D01*
X60328647Y-109468377D01*
X60333110Y-109484687D01*
X60333875Y-109487223D01*
X60335182Y-109494709D01*
X60338236Y-109501666D01*
X60360867Y-109553220D01*
X60363358Y-109559324D01*
X60385938Y-109619081D01*
X60390242Y-109625344D01*
X60391479Y-109627710D01*
X60399724Y-109642522D01*
X60401057Y-109644776D01*
X60404110Y-109651730D01*
X60413179Y-109663548D01*
X60443004Y-109702416D01*
X60446884Y-109707757D01*
X60478764Y-109754145D01*
X60478769Y-109754150D01*
X60483068Y-109760406D01*
X60488738Y-109765457D01*
X60488739Y-109765459D01*
X60529595Y-109801860D01*
X60534871Y-109806841D01*
X61495335Y-110767305D01*
X61529361Y-110829617D01*
X61531550Y-110843228D01*
X61536458Y-110889928D01*
X61595473Y-111071556D01*
X61690960Y-111236944D01*
X61695378Y-111241851D01*
X61695379Y-111241852D01*
X61716843Y-111265690D01*
X61747561Y-111329697D01*
X61738796Y-111400151D01*
X61716843Y-111434310D01*
X61690960Y-111463056D01*
X61595473Y-111628444D01*
X61536458Y-111810072D01*
X61535768Y-111816633D01*
X61535768Y-111816635D01*
X61528229Y-111888365D01*
X61516496Y-112000000D01*
X61536458Y-112189928D01*
X61595473Y-112371556D01*
X61598776Y-112377277D01*
X61598777Y-112377279D01*
X61615406Y-112406081D01*
X61690960Y-112536944D01*
X61695378Y-112541851D01*
X61695379Y-112541852D01*
X61769950Y-112624671D01*
X61818747Y-112678866D01*
X61973248Y-112791118D01*
X61979276Y-112793802D01*
X61979278Y-112793803D01*
X62119176Y-112856089D01*
X62173272Y-112902069D01*
X62193921Y-112969996D01*
X62174569Y-113038304D01*
X62121358Y-113085306D01*
X62089264Y-113095376D01*
X62013376Y-113108416D01*
X62002254Y-113111396D01*
X61809393Y-113182546D01*
X61803971Y-113188384D01*
X61807455Y-113196769D01*
X62307189Y-113696504D01*
X62321132Y-113704117D01*
X62322966Y-113703986D01*
X62329580Y-113699735D01*
X62827635Y-113201679D01*
X62834392Y-113189304D01*
X62831353Y-113185245D01*
X62662728Y-113117970D01*
X62663170Y-113116863D01*
X62608648Y-113081639D01*
X62579311Y-113016988D01*
X62589584Y-112946738D01*
X62636205Y-112893195D01*
X62677874Y-112876109D01*
X62679886Y-112875681D01*
X62712288Y-112868794D01*
X62740824Y-112856089D01*
X62880722Y-112793803D01*
X62880724Y-112793802D01*
X62886752Y-112791118D01*
X63041253Y-112678866D01*
X63090050Y-112624671D01*
X63164621Y-112541852D01*
X63164622Y-112541851D01*
X63169040Y-112536944D01*
X63264527Y-112371556D01*
X63272973Y-112345562D01*
X63313048Y-112286957D01*
X63378445Y-112259321D01*
X63392806Y-112258500D01*
X63525487Y-112258500D01*
X63531939Y-112257128D01*
X63531944Y-112257128D01*
X63618887Y-112238647D01*
X63712288Y-112218794D01*
X63763022Y-112196206D01*
X63880722Y-112143803D01*
X63880724Y-112143802D01*
X63886752Y-112141118D01*
X63945914Y-112098134D01*
X68605106Y-112098134D01*
X68611861Y-112160316D01*
X68662991Y-112296705D01*
X68750345Y-112413261D01*
X68866901Y-112500615D01*
X69003290Y-112551745D01*
X69065472Y-112558500D01*
X70761740Y-112558500D01*
X70823922Y-112551745D01*
X70960311Y-112500615D01*
X71076867Y-112413261D01*
X71164221Y-112296705D01*
X71215351Y-112160316D01*
X71217297Y-112161046D01*
X71247151Y-112108795D01*
X71310109Y-112075979D01*
X71380813Y-112082409D01*
X71423606Y-112110498D01*
X71569306Y-112256198D01*
X71573814Y-112259355D01*
X71573817Y-112259357D01*
X71613234Y-112286957D01*
X71756857Y-112387523D01*
X71761839Y-112389846D01*
X71761844Y-112389849D01*
X71959381Y-112481961D01*
X71964363Y-112484284D01*
X71969671Y-112485706D01*
X71969673Y-112485707D01*
X72180204Y-112542119D01*
X72180206Y-112542119D01*
X72185519Y-112543543D01*
X72413606Y-112563498D01*
X72641693Y-112543543D01*
X72647006Y-112542119D01*
X72647008Y-112542119D01*
X72857539Y-112485707D01*
X72857541Y-112485706D01*
X72862849Y-112484284D01*
X72867831Y-112481961D01*
X73065368Y-112389849D01*
X73065373Y-112389846D01*
X73070355Y-112387523D01*
X73213978Y-112286957D01*
X73253395Y-112259357D01*
X73253398Y-112259355D01*
X73257906Y-112256198D01*
X73419804Y-112094300D01*
X73428131Y-112082409D01*
X73490431Y-111993435D01*
X73551129Y-111906749D01*
X73553452Y-111901767D01*
X73553455Y-111901762D01*
X73576801Y-111851695D01*
X76062251Y-111851695D01*
X76062548Y-111856848D01*
X76062548Y-111856851D01*
X76072183Y-112023955D01*
X76075110Y-112074715D01*
X76076247Y-112079761D01*
X76076248Y-112079767D01*
X76080402Y-112098197D01*
X76124222Y-112292639D01*
X76208266Y-112499616D01*
X76235478Y-112544022D01*
X76320490Y-112682749D01*
X76324987Y-112690088D01*
X76471250Y-112858938D01*
X76475230Y-112862242D01*
X76479981Y-112866187D01*
X76519616Y-112925090D01*
X76521113Y-112996071D01*
X76483997Y-113056593D01*
X76443725Y-113081112D01*
X76432538Y-113085306D01*
X76328295Y-113124385D01*
X76211739Y-113211739D01*
X76124385Y-113328295D01*
X76073255Y-113464684D01*
X76066500Y-113526866D01*
X76066500Y-115323134D01*
X76073255Y-115385316D01*
X76124385Y-115521705D01*
X76211739Y-115638261D01*
X76328295Y-115725615D01*
X76464684Y-115776745D01*
X76526866Y-115783500D01*
X78323134Y-115783500D01*
X78385316Y-115776745D01*
X78521705Y-115725615D01*
X78638261Y-115638261D01*
X78725615Y-115521705D01*
X78776745Y-115385316D01*
X78783500Y-115323134D01*
X78783500Y-114675000D01*
X79651502Y-114675000D01*
X79671457Y-114903087D01*
X79672881Y-114908400D01*
X79672881Y-114908402D01*
X79722119Y-115092157D01*
X79730716Y-115124243D01*
X79733039Y-115129224D01*
X79733039Y-115129225D01*
X79825151Y-115326762D01*
X79825154Y-115326767D01*
X79827477Y-115331749D01*
X79860739Y-115379252D01*
X79954599Y-115513297D01*
X79958802Y-115519300D01*
X80120700Y-115681198D01*
X80125208Y-115684355D01*
X80125211Y-115684357D01*
X80134227Y-115690670D01*
X80308251Y-115812523D01*
X80313233Y-115814846D01*
X80313238Y-115814849D01*
X80510775Y-115906961D01*
X80515757Y-115909284D01*
X80521065Y-115910706D01*
X80521067Y-115910707D01*
X80731598Y-115967119D01*
X80731600Y-115967119D01*
X80736913Y-115968543D01*
X80965000Y-115988498D01*
X81193087Y-115968543D01*
X81198400Y-115967119D01*
X81198402Y-115967119D01*
X81408933Y-115910707D01*
X81408935Y-115910706D01*
X81414243Y-115909284D01*
X81419225Y-115906961D01*
X81616762Y-115814849D01*
X81616767Y-115814846D01*
X81621749Y-115812523D01*
X81795773Y-115690670D01*
X81804789Y-115684357D01*
X81804792Y-115684355D01*
X81809300Y-115681198D01*
X81971198Y-115519300D01*
X81975402Y-115513297D01*
X82069261Y-115379252D01*
X82102523Y-115331749D01*
X82104846Y-115326767D01*
X82104849Y-115326762D01*
X82196961Y-115129225D01*
X82196961Y-115129224D01*
X82199284Y-115124243D01*
X82207882Y-115092157D01*
X82210195Y-115083525D01*
X87561983Y-115083525D01*
X87625872Y-115222111D01*
X87631623Y-115232072D01*
X87741634Y-115387734D01*
X87749112Y-115396489D01*
X87885642Y-115529490D01*
X87894586Y-115536733D01*
X88053073Y-115642631D01*
X88063186Y-115648122D01*
X88168356Y-115693306D01*
X88182356Y-115694997D01*
X88185000Y-115690670D01*
X88185000Y-115682835D01*
X88985000Y-115682835D01*
X88988973Y-115696366D01*
X88995669Y-115697328D01*
X89028855Y-115686063D01*
X89039370Y-115681382D01*
X89205669Y-115588250D01*
X89215162Y-115581725D01*
X89361712Y-115459841D01*
X89369841Y-115451712D01*
X89491725Y-115305162D01*
X89498250Y-115295669D01*
X89591382Y-115129370D01*
X89596063Y-115118855D01*
X89605126Y-115092157D01*
X89605713Y-115078064D01*
X89599682Y-115075000D01*
X89003115Y-115075000D01*
X88987876Y-115079475D01*
X88986671Y-115080865D01*
X88985000Y-115088548D01*
X88985000Y-115682835D01*
X88185000Y-115682835D01*
X88185000Y-115093115D01*
X88180525Y-115077876D01*
X88179135Y-115076671D01*
X88171452Y-115075000D01*
X87576168Y-115075000D01*
X87562637Y-115078973D01*
X87561983Y-115083525D01*
X82210195Y-115083525D01*
X82257119Y-114908402D01*
X82257119Y-114908400D01*
X82258543Y-114903087D01*
X82278498Y-114675000D01*
X82258543Y-114446913D01*
X82219249Y-114300265D01*
X82211621Y-114271799D01*
X87562466Y-114271799D01*
X87569197Y-114275000D01*
X88166885Y-114275000D01*
X88182124Y-114270525D01*
X88183329Y-114269135D01*
X88185000Y-114261452D01*
X88185000Y-114256885D01*
X88985000Y-114256885D01*
X88989475Y-114272124D01*
X88990865Y-114273329D01*
X88998548Y-114275000D01*
X89596198Y-114275000D01*
X89609729Y-114271027D01*
X89610273Y-114267242D01*
X89609911Y-114266073D01*
X89529478Y-114102969D01*
X89523468Y-114093162D01*
X89409419Y-113940433D01*
X89401717Y-113931879D01*
X89261752Y-113802496D01*
X89252620Y-113795489D01*
X89140902Y-113725000D01*
X100436502Y-113725000D01*
X100456457Y-113953087D01*
X100457881Y-113958400D01*
X100457881Y-113958402D01*
X100511726Y-114159351D01*
X100515716Y-114174243D01*
X100518039Y-114179224D01*
X100518039Y-114179225D01*
X100610151Y-114376762D01*
X100610154Y-114376767D01*
X100612477Y-114381749D01*
X100661943Y-114452393D01*
X100730976Y-114550982D01*
X100743802Y-114569300D01*
X100905700Y-114731198D01*
X100910208Y-114734355D01*
X100910211Y-114734357D01*
X100947333Y-114760350D01*
X101093251Y-114862523D01*
X101098233Y-114864846D01*
X101098238Y-114864849D01*
X101168489Y-114897607D01*
X101300757Y-114959284D01*
X101306065Y-114960706D01*
X101306067Y-114960707D01*
X101516598Y-115017119D01*
X101516600Y-115017119D01*
X101521913Y-115018543D01*
X101750000Y-115038498D01*
X101978087Y-115018543D01*
X101983400Y-115017119D01*
X101983402Y-115017119D01*
X102193933Y-114960707D01*
X102193935Y-114960706D01*
X102199243Y-114959284D01*
X102331511Y-114897607D01*
X102401762Y-114864849D01*
X102401767Y-114864846D01*
X102406749Y-114862523D01*
X102552667Y-114760350D01*
X102589789Y-114734357D01*
X102589792Y-114734355D01*
X102593066Y-114732062D01*
X106314243Y-114732062D01*
X106317589Y-114736532D01*
X106403318Y-114773364D01*
X106414261Y-114776919D01*
X106600170Y-114818987D01*
X106611579Y-114820489D01*
X106802048Y-114827972D01*
X106813530Y-114827370D01*
X107002169Y-114800020D01*
X107013364Y-114797332D01*
X107177837Y-114741500D01*
X107189373Y-114733389D01*
X107188671Y-114729629D01*
X107187951Y-114728636D01*
X106762812Y-114303497D01*
X106748868Y-114295883D01*
X106747035Y-114296014D01*
X106740420Y-114300265D01*
X106321003Y-114719682D01*
X106314243Y-114732062D01*
X102593066Y-114732062D01*
X102594300Y-114731198D01*
X102756198Y-114569300D01*
X102769025Y-114550982D01*
X102838057Y-114452393D01*
X102887523Y-114381749D01*
X102889846Y-114376767D01*
X102889849Y-114376762D01*
X102981961Y-114179225D01*
X102981961Y-114179224D01*
X102984284Y-114174243D01*
X102988275Y-114159351D01*
X103042119Y-113958402D01*
X103042119Y-113958400D01*
X103043543Y-113953087D01*
X103063498Y-113725000D01*
X103061472Y-113701848D01*
X105646044Y-113701848D01*
X105658510Y-113892047D01*
X105660311Y-113903417D01*
X105707230Y-114088161D01*
X105711071Y-114099007D01*
X105734800Y-114150479D01*
X105744072Y-114161104D01*
X105749964Y-114159351D01*
X106171503Y-113737812D01*
X106177881Y-113726132D01*
X107320883Y-113726132D01*
X107321014Y-113727965D01*
X107325265Y-113734580D01*
X107747865Y-114157180D01*
X107760245Y-114163940D01*
X107763306Y-114161648D01*
X107763877Y-114160566D01*
X107822332Y-113988364D01*
X107825020Y-113977169D01*
X107852666Y-113786490D01*
X107853296Y-113779107D01*
X107854616Y-113728704D01*
X107854373Y-113721305D01*
X107836743Y-113529439D01*
X107834645Y-113518118D01*
X107782906Y-113334667D01*
X107778785Y-113323928D01*
X107766311Y-113298633D01*
X107756764Y-113288256D01*
X107750331Y-113290354D01*
X107328497Y-113712188D01*
X107320883Y-113726132D01*
X106177881Y-113726132D01*
X106179117Y-113723868D01*
X106178986Y-113722035D01*
X106174735Y-113715420D01*
X105753285Y-113293970D01*
X105740905Y-113287210D01*
X105734939Y-113291676D01*
X105732067Y-113297134D01*
X105727666Y-113307758D01*
X105671141Y-113489800D01*
X105668749Y-113501054D01*
X105646345Y-113690347D01*
X105646044Y-113701848D01*
X103061472Y-113701848D01*
X103043543Y-113496913D01*
X103032925Y-113457285D01*
X102985707Y-113281067D01*
X102985706Y-113281065D01*
X102984284Y-113275757D01*
X102942078Y-113185245D01*
X102889849Y-113073238D01*
X102889846Y-113073233D01*
X102887523Y-113068251D01*
X102814098Y-112963389D01*
X102759357Y-112885211D01*
X102759355Y-112885208D01*
X102756198Y-112880700D01*
X102594300Y-112718802D01*
X102593349Y-112718136D01*
X106312358Y-112718136D01*
X106313320Y-112722635D01*
X106737188Y-113146503D01*
X106751132Y-113154117D01*
X106752965Y-113153986D01*
X106759580Y-113149735D01*
X107179453Y-112729862D01*
X107186213Y-112717482D01*
X107183175Y-112713423D01*
X107069123Y-112667921D01*
X107058085Y-112664651D01*
X106871142Y-112627466D01*
X106859695Y-112626263D01*
X106669107Y-112623768D01*
X106657627Y-112624671D01*
X106469776Y-112656950D01*
X106458656Y-112659930D01*
X106323676Y-112709726D01*
X106312358Y-112718136D01*
X102593349Y-112718136D01*
X102589792Y-112715645D01*
X102589789Y-112715643D01*
X102459867Y-112624671D01*
X102406749Y-112587477D01*
X102401767Y-112585154D01*
X102401762Y-112585151D01*
X102204225Y-112493039D01*
X102204224Y-112493039D01*
X102199243Y-112490716D01*
X102193935Y-112489294D01*
X102193933Y-112489293D01*
X101983402Y-112432881D01*
X101983400Y-112432881D01*
X101978087Y-112431457D01*
X101750000Y-112411502D01*
X101521913Y-112431457D01*
X101516600Y-112432881D01*
X101516598Y-112432881D01*
X101306067Y-112489293D01*
X101306065Y-112489294D01*
X101300757Y-112490716D01*
X101295776Y-112493039D01*
X101295775Y-112493039D01*
X101098238Y-112585151D01*
X101098233Y-112585154D01*
X101093251Y-112587477D01*
X101040133Y-112624671D01*
X100910211Y-112715643D01*
X100910208Y-112715645D01*
X100905700Y-112718802D01*
X100743802Y-112880700D01*
X100740645Y-112885208D01*
X100740643Y-112885211D01*
X100685902Y-112963389D01*
X100612477Y-113068251D01*
X100610154Y-113073233D01*
X100610151Y-113073238D01*
X100557922Y-113185245D01*
X100515716Y-113275757D01*
X100514294Y-113281065D01*
X100514293Y-113281067D01*
X100467075Y-113457285D01*
X100456457Y-113496913D01*
X100436502Y-113725000D01*
X89140902Y-113725000D01*
X89091413Y-113693775D01*
X89081165Y-113688554D01*
X89001828Y-113656902D01*
X88987786Y-113655577D01*
X88985000Y-113660416D01*
X88985000Y-114256885D01*
X88185000Y-114256885D01*
X88185000Y-113668130D01*
X88181027Y-113654599D01*
X88174944Y-113653725D01*
X88114825Y-113675904D01*
X88104447Y-113680854D01*
X87940630Y-113778315D01*
X87931323Y-113785077D01*
X87788015Y-113910755D01*
X87780094Y-113919103D01*
X87662087Y-114068793D01*
X87655819Y-114078444D01*
X87567068Y-114247132D01*
X87562684Y-114257715D01*
X87562466Y-114271799D01*
X82211621Y-114271799D01*
X82200707Y-114231067D01*
X82200706Y-114231065D01*
X82199284Y-114225757D01*
X82172787Y-114168933D01*
X82104849Y-114023238D01*
X82104846Y-114023233D01*
X82102523Y-114018251D01*
X81971198Y-113830700D01*
X81809300Y-113668802D01*
X81804792Y-113665645D01*
X81804789Y-113665643D01*
X81726611Y-113610902D01*
X81621749Y-113537477D01*
X81616767Y-113535154D01*
X81616762Y-113535151D01*
X81419225Y-113443039D01*
X81419224Y-113443039D01*
X81414243Y-113440716D01*
X81408935Y-113439294D01*
X81408933Y-113439293D01*
X81198402Y-113382881D01*
X81198400Y-113382881D01*
X81193087Y-113381457D01*
X80965000Y-113361502D01*
X80736913Y-113381457D01*
X80731600Y-113382881D01*
X80731598Y-113382881D01*
X80521067Y-113439293D01*
X80521065Y-113439294D01*
X80515757Y-113440716D01*
X80510776Y-113443039D01*
X80510775Y-113443039D01*
X80313238Y-113535151D01*
X80313233Y-113535154D01*
X80308251Y-113537477D01*
X80203389Y-113610902D01*
X80125211Y-113665643D01*
X80125208Y-113665645D01*
X80120700Y-113668802D01*
X79958802Y-113830700D01*
X79827477Y-114018251D01*
X79825154Y-114023233D01*
X79825151Y-114023238D01*
X79757213Y-114168933D01*
X79730716Y-114225757D01*
X79729294Y-114231065D01*
X79729293Y-114231067D01*
X79710751Y-114300265D01*
X79671457Y-114446913D01*
X79651502Y-114675000D01*
X78783500Y-114675000D01*
X78783500Y-113526866D01*
X78776745Y-113464684D01*
X78725615Y-113328295D01*
X78638261Y-113211739D01*
X78521705Y-113124385D01*
X78479108Y-113108416D01*
X78403203Y-113079960D01*
X78346439Y-113037318D01*
X78321739Y-112970756D01*
X78336947Y-112901408D01*
X78358493Y-112872727D01*
X78459435Y-112772137D01*
X78463096Y-112768489D01*
X78501070Y-112715643D01*
X78590435Y-112591277D01*
X78593453Y-112587077D01*
X78605107Y-112563498D01*
X78690136Y-112391453D01*
X78690137Y-112391451D01*
X78692430Y-112386811D01*
X78744293Y-112216109D01*
X78755865Y-112178023D01*
X78755865Y-112178021D01*
X78757370Y-112173069D01*
X78786529Y-111951590D01*
X78786611Y-111948240D01*
X78788074Y-111888365D01*
X78788074Y-111888361D01*
X78788156Y-111885000D01*
X78769852Y-111662361D01*
X78715431Y-111445702D01*
X78626354Y-111240840D01*
X78520542Y-111077279D01*
X78507822Y-111057617D01*
X78507820Y-111057614D01*
X78505014Y-111053277D01*
X78354670Y-110888051D01*
X78350619Y-110884852D01*
X78350615Y-110884848D01*
X78183414Y-110752800D01*
X78183410Y-110752798D01*
X78179359Y-110749598D01*
X78138053Y-110726796D01*
X78088084Y-110676364D01*
X78073312Y-110606921D01*
X78098428Y-110540516D01*
X78125780Y-110513909D01*
X78190045Y-110468069D01*
X78304860Y-110386173D01*
X78315566Y-110375505D01*
X78459435Y-110232137D01*
X78463096Y-110228489D01*
X78522594Y-110145689D01*
X78526078Y-110140840D01*
X80325000Y-110140840D01*
X80325442Y-110148286D01*
X80326994Y-110161336D01*
X80331952Y-110179374D01*
X80368755Y-110262231D01*
X80381713Y-110281085D01*
X80444342Y-110343604D01*
X80463212Y-110356525D01*
X80546125Y-110393180D01*
X80564202Y-110398108D01*
X80576787Y-110399576D01*
X80584088Y-110400000D01*
X81056885Y-110400000D01*
X81072124Y-110395525D01*
X81073329Y-110394135D01*
X81075000Y-110386452D01*
X81075000Y-109668115D01*
X81070525Y-109652876D01*
X81069135Y-109651671D01*
X81061452Y-109650000D01*
X80343115Y-109650000D01*
X80327876Y-109654475D01*
X80326671Y-109655865D01*
X80325000Y-109663548D01*
X80325000Y-110140840D01*
X78526078Y-110140840D01*
X78590435Y-110051277D01*
X78593453Y-110047077D01*
X78607805Y-110018039D01*
X78690136Y-109851453D01*
X78690137Y-109851451D01*
X78692430Y-109846811D01*
X78748533Y-109662155D01*
X78755865Y-109638023D01*
X78755865Y-109638021D01*
X78757370Y-109633069D01*
X78786529Y-109411590D01*
X78787291Y-109380400D01*
X78788074Y-109348365D01*
X78788074Y-109348361D01*
X78788156Y-109345000D01*
X78769852Y-109122361D01*
X78715431Y-108905702D01*
X78683334Y-108831885D01*
X80325000Y-108831885D01*
X80329475Y-108847124D01*
X80330865Y-108848329D01*
X80338548Y-108850000D01*
X81056885Y-108850000D01*
X81072124Y-108845525D01*
X81073329Y-108844135D01*
X81075000Y-108836452D01*
X81075000Y-108118115D01*
X81070525Y-108102876D01*
X81069135Y-108101671D01*
X81061452Y-108100000D01*
X80584160Y-108100000D01*
X80576714Y-108100442D01*
X80563664Y-108101994D01*
X80545626Y-108106952D01*
X80462769Y-108143755D01*
X80443915Y-108156713D01*
X80381396Y-108219342D01*
X80368475Y-108238212D01*
X80331820Y-108321125D01*
X80326892Y-108339202D01*
X80325424Y-108351787D01*
X80325000Y-108359088D01*
X80325000Y-108831885D01*
X78683334Y-108831885D01*
X78626354Y-108700840D01*
X78528524Y-108549618D01*
X78507822Y-108517617D01*
X78507820Y-108517614D01*
X78505014Y-108513277D01*
X78354670Y-108348051D01*
X78350619Y-108344852D01*
X78350615Y-108344848D01*
X78183414Y-108212800D01*
X78183410Y-108212798D01*
X78179359Y-108209598D01*
X78147046Y-108191760D01*
X78113449Y-108173214D01*
X77983789Y-108101638D01*
X77978920Y-108099914D01*
X77978916Y-108099912D01*
X77778087Y-108028795D01*
X77778083Y-108028794D01*
X77773212Y-108027069D01*
X77768119Y-108026162D01*
X77768116Y-108026161D01*
X77558373Y-107988800D01*
X77558367Y-107988799D01*
X77553284Y-107987894D01*
X77479452Y-107986992D01*
X77335081Y-107985228D01*
X77335079Y-107985228D01*
X77329911Y-107985165D01*
X77109091Y-108018955D01*
X76896756Y-108088357D01*
X76871180Y-108101671D01*
X76734668Y-108172735D01*
X76698607Y-108191507D01*
X76694474Y-108194610D01*
X76694471Y-108194612D01*
X76525304Y-108321626D01*
X76519965Y-108325635D01*
X76365629Y-108487138D01*
X76239743Y-108671680D01*
X76217763Y-108719033D01*
X76155120Y-108853986D01*
X76145688Y-108874305D01*
X76085989Y-109089570D01*
X76062251Y-109311695D01*
X76062548Y-109316848D01*
X76062548Y-109316851D01*
X76071083Y-109464866D01*
X76075110Y-109534715D01*
X76076247Y-109539761D01*
X76076248Y-109539767D01*
X76076982Y-109543023D01*
X76124222Y-109752639D01*
X76208266Y-109959616D01*
X76233176Y-110000265D01*
X76317051Y-110137137D01*
X76324987Y-110150088D01*
X76471250Y-110318938D01*
X76643126Y-110461632D01*
X76713595Y-110502811D01*
X76716445Y-110504476D01*
X76765169Y-110556114D01*
X76778240Y-110625897D01*
X76751509Y-110691669D01*
X76711055Y-110725027D01*
X76698607Y-110731507D01*
X76694474Y-110734610D01*
X76694471Y-110734612D01*
X76524100Y-110862530D01*
X76519965Y-110865635D01*
X76365629Y-111027138D01*
X76239743Y-111211680D01*
X76145688Y-111414305D01*
X76085989Y-111629570D01*
X76062251Y-111851695D01*
X73576801Y-111851695D01*
X73645567Y-111704225D01*
X73645567Y-111704224D01*
X73647890Y-111699243D01*
X73659118Y-111657342D01*
X73705725Y-111483402D01*
X73705725Y-111483400D01*
X73707149Y-111478087D01*
X73727104Y-111250000D01*
X73707149Y-111021913D01*
X73672304Y-110891870D01*
X73649313Y-110806067D01*
X73649312Y-110806065D01*
X73647890Y-110800757D01*
X73632291Y-110767305D01*
X73553455Y-110598238D01*
X73553452Y-110598233D01*
X73551129Y-110593251D01*
X73456654Y-110458327D01*
X73422963Y-110410211D01*
X73422961Y-110410208D01*
X73419804Y-110405700D01*
X73257906Y-110243802D01*
X73253398Y-110240645D01*
X73253395Y-110240643D01*
X73175217Y-110185902D01*
X73070355Y-110112477D01*
X73065373Y-110110154D01*
X73065368Y-110110151D01*
X72867831Y-110018039D01*
X72867830Y-110018039D01*
X72862849Y-110015716D01*
X72857541Y-110014294D01*
X72857539Y-110014293D01*
X72647008Y-109957881D01*
X72647006Y-109957881D01*
X72641693Y-109956457D01*
X72413606Y-109936502D01*
X72185519Y-109956457D01*
X72180206Y-109957881D01*
X72180204Y-109957881D01*
X71969673Y-110014293D01*
X71969671Y-110014294D01*
X71964363Y-110015716D01*
X71959382Y-110018039D01*
X71959381Y-110018039D01*
X71761844Y-110110151D01*
X71761839Y-110110154D01*
X71756857Y-110112477D01*
X71651995Y-110185902D01*
X71573817Y-110240643D01*
X71573814Y-110240645D01*
X71569306Y-110243802D01*
X71423606Y-110389502D01*
X71361294Y-110423528D01*
X71290479Y-110418463D01*
X71233643Y-110375916D01*
X71216474Y-110339263D01*
X71215351Y-110339684D01*
X71167373Y-110211703D01*
X71164221Y-110203295D01*
X71076867Y-110086739D01*
X70960311Y-109999385D01*
X70823922Y-109948255D01*
X70761740Y-109941500D01*
X69065472Y-109941500D01*
X69003290Y-109948255D01*
X68866901Y-109999385D01*
X68750345Y-110086739D01*
X68662991Y-110203295D01*
X68611861Y-110339684D01*
X68605106Y-110401866D01*
X68605106Y-112098134D01*
X63945914Y-112098134D01*
X64041253Y-112028866D01*
X64169040Y-111886944D01*
X64264527Y-111721556D01*
X64323542Y-111539928D01*
X64328450Y-111493230D01*
X64355463Y-111427573D01*
X64364665Y-111417305D01*
X69149908Y-106632062D01*
X71989243Y-106632062D01*
X71992589Y-106636532D01*
X72078318Y-106673364D01*
X72089261Y-106676919D01*
X72275170Y-106718987D01*
X72286579Y-106720489D01*
X72477048Y-106727972D01*
X72488530Y-106727370D01*
X72677169Y-106700020D01*
X72688364Y-106697332D01*
X72852837Y-106641500D01*
X72864373Y-106633389D01*
X72863671Y-106629629D01*
X72862951Y-106628636D01*
X72437812Y-106203497D01*
X72423868Y-106195883D01*
X72422035Y-106196014D01*
X72415420Y-106200265D01*
X71996003Y-106619682D01*
X71989243Y-106632062D01*
X69149908Y-106632062D01*
X70180122Y-105601848D01*
X71321044Y-105601848D01*
X71333510Y-105792047D01*
X71335311Y-105803417D01*
X71382230Y-105988161D01*
X71386071Y-105999007D01*
X71409800Y-106050479D01*
X71419072Y-106061104D01*
X71424964Y-106059351D01*
X71846503Y-105637812D01*
X71852881Y-105626132D01*
X72995883Y-105626132D01*
X72996014Y-105627965D01*
X73000265Y-105634580D01*
X73422865Y-106057180D01*
X73435245Y-106063940D01*
X73438306Y-106061648D01*
X73438877Y-106060566D01*
X73497332Y-105888364D01*
X73500020Y-105877169D01*
X73527666Y-105686490D01*
X73528296Y-105679107D01*
X73529616Y-105628704D01*
X73529494Y-105625000D01*
X76111502Y-105625000D01*
X76131457Y-105853087D01*
X76132881Y-105858400D01*
X76132881Y-105858402D01*
X76186726Y-106059351D01*
X76190716Y-106074243D01*
X76193039Y-106079224D01*
X76193039Y-106079225D01*
X76285151Y-106276762D01*
X76285154Y-106276767D01*
X76287477Y-106281749D01*
X76340949Y-106358115D01*
X76404565Y-106448967D01*
X76418802Y-106469300D01*
X76580700Y-106631198D01*
X76585208Y-106634355D01*
X76585211Y-106634357D01*
X76640919Y-106673364D01*
X76768251Y-106762523D01*
X76773233Y-106764846D01*
X76773238Y-106764849D01*
X76936019Y-106840754D01*
X76975757Y-106859284D01*
X76981065Y-106860706D01*
X76981067Y-106860707D01*
X77191598Y-106917119D01*
X77191600Y-106917119D01*
X77196913Y-106918543D01*
X77425000Y-106938498D01*
X77653087Y-106918543D01*
X77658400Y-106917119D01*
X77658402Y-106917119D01*
X77868933Y-106860707D01*
X77868935Y-106860706D01*
X77874243Y-106859284D01*
X77913981Y-106840754D01*
X78076762Y-106764849D01*
X78076767Y-106764846D01*
X78081749Y-106762523D01*
X78209081Y-106673364D01*
X78264789Y-106634357D01*
X78264792Y-106634355D01*
X78269300Y-106631198D01*
X78431198Y-106469300D01*
X78445436Y-106448967D01*
X78509051Y-106358115D01*
X78562523Y-106281749D01*
X78564846Y-106276767D01*
X78564849Y-106276762D01*
X78656961Y-106079225D01*
X78656961Y-106079224D01*
X78659284Y-106074243D01*
X78663275Y-106059351D01*
X78717119Y-105858402D01*
X78717119Y-105858400D01*
X78718543Y-105853087D01*
X78738498Y-105625000D01*
X78718543Y-105396913D01*
X78717119Y-105391598D01*
X78717118Y-105391591D01*
X78678686Y-105248165D01*
X78680375Y-105177188D01*
X78720169Y-105118392D01*
X78785433Y-105090444D01*
X78855446Y-105102217D01*
X78889487Y-105126458D01*
X81838095Y-108075066D01*
X81872121Y-108137378D01*
X81875000Y-108164161D01*
X81875000Y-110381885D01*
X81879475Y-110397124D01*
X81880865Y-110398329D01*
X81888548Y-110400000D01*
X82365840Y-110400000D01*
X82373286Y-110399558D01*
X82386336Y-110398006D01*
X82404374Y-110393048D01*
X82487231Y-110356245D01*
X82506085Y-110343287D01*
X82568604Y-110280658D01*
X82581525Y-110261788D01*
X82618180Y-110178875D01*
X82623108Y-110160798D01*
X82624576Y-110148213D01*
X82625000Y-110140912D01*
X82625000Y-110028635D01*
X82645002Y-109960514D01*
X82698658Y-109914021D01*
X82768932Y-109903917D01*
X82833512Y-109933411D01*
X82858433Y-109962800D01*
X82914987Y-110055088D01*
X83061250Y-110223938D01*
X83233126Y-110366632D01*
X83426000Y-110479338D01*
X83430825Y-110481180D01*
X83430826Y-110481181D01*
X83503612Y-110508975D01*
X83634692Y-110559030D01*
X83639760Y-110560061D01*
X83639763Y-110560062D01*
X83747017Y-110581883D01*
X83853597Y-110603567D01*
X83858772Y-110603757D01*
X83858774Y-110603757D01*
X84071673Y-110611564D01*
X84071677Y-110611564D01*
X84076837Y-110611753D01*
X84081957Y-110611097D01*
X84081959Y-110611097D01*
X84293288Y-110584025D01*
X84293289Y-110584025D01*
X84298416Y-110583368D01*
X84303366Y-110581883D01*
X84507429Y-110520661D01*
X84507434Y-110520659D01*
X84512384Y-110519174D01*
X84712994Y-110420896D01*
X84894860Y-110291173D01*
X84904984Y-110281085D01*
X85007551Y-110178875D01*
X85053096Y-110133489D01*
X85181476Y-109954829D01*
X85183453Y-109952077D01*
X85184776Y-109953028D01*
X85231645Y-109909857D01*
X85301580Y-109897625D01*
X85367026Y-109925144D01*
X85394875Y-109956994D01*
X85454987Y-110055088D01*
X85601250Y-110223938D01*
X85773126Y-110366632D01*
X85966000Y-110479338D01*
X85970825Y-110481180D01*
X85970826Y-110481181D01*
X86043612Y-110508975D01*
X86174692Y-110559030D01*
X86179760Y-110560061D01*
X86179763Y-110560062D01*
X86287017Y-110581883D01*
X86393597Y-110603567D01*
X86398772Y-110603757D01*
X86398774Y-110603757D01*
X86611673Y-110611564D01*
X86611677Y-110611564D01*
X86616837Y-110611753D01*
X86621957Y-110611097D01*
X86621959Y-110611097D01*
X86833288Y-110584025D01*
X86833289Y-110584025D01*
X86838416Y-110583368D01*
X86843366Y-110581883D01*
X87047429Y-110520661D01*
X87047434Y-110520659D01*
X87052384Y-110519174D01*
X87252994Y-110420896D01*
X87434860Y-110291173D01*
X87444984Y-110281085D01*
X87547551Y-110178875D01*
X87593096Y-110133489D01*
X87721476Y-109954829D01*
X87723453Y-109952077D01*
X87724776Y-109953028D01*
X87771645Y-109909857D01*
X87841580Y-109897625D01*
X87907026Y-109925144D01*
X87934875Y-109956994D01*
X87994987Y-110055088D01*
X88141250Y-110223938D01*
X88313126Y-110366632D01*
X88506000Y-110479338D01*
X88510825Y-110481180D01*
X88510826Y-110481181D01*
X88583612Y-110508975D01*
X88714692Y-110559030D01*
X88719760Y-110560061D01*
X88719763Y-110560062D01*
X88827017Y-110581883D01*
X88933597Y-110603567D01*
X88938772Y-110603757D01*
X88938774Y-110603757D01*
X89151673Y-110611564D01*
X89151677Y-110611564D01*
X89156837Y-110611753D01*
X89161957Y-110611097D01*
X89161959Y-110611097D01*
X89373288Y-110584025D01*
X89373289Y-110584025D01*
X89378416Y-110583368D01*
X89383366Y-110581883D01*
X89587429Y-110520661D01*
X89587434Y-110520659D01*
X89592384Y-110519174D01*
X89792994Y-110420896D01*
X89974860Y-110291173D01*
X89984984Y-110281085D01*
X90087551Y-110178875D01*
X90133096Y-110133489D01*
X90263453Y-109952077D01*
X90268681Y-109941500D01*
X90360136Y-109756453D01*
X90360137Y-109756451D01*
X90362430Y-109751811D01*
X90427370Y-109538069D01*
X90442256Y-109425000D01*
X100563235Y-109425000D01*
X100582260Y-109642454D01*
X100583684Y-109647767D01*
X100583684Y-109647769D01*
X100628222Y-109813985D01*
X100638756Y-109853300D01*
X100641078Y-109858280D01*
X100641079Y-109858282D01*
X100713829Y-110014293D01*
X100731007Y-110051132D01*
X100856209Y-110229940D01*
X101010560Y-110384291D01*
X101015068Y-110387448D01*
X101015071Y-110387450D01*
X101130207Y-110468069D01*
X101189367Y-110509493D01*
X101194349Y-110511816D01*
X101194354Y-110511819D01*
X101379681Y-110598238D01*
X101387200Y-110601744D01*
X101392508Y-110603166D01*
X101392510Y-110603167D01*
X101592731Y-110656816D01*
X101592733Y-110656816D01*
X101598046Y-110658240D01*
X101815500Y-110677265D01*
X102032954Y-110658240D01*
X102038267Y-110656816D01*
X102038269Y-110656816D01*
X102238490Y-110603167D01*
X102238492Y-110603166D01*
X102243800Y-110601744D01*
X102251319Y-110598238D01*
X102436646Y-110511819D01*
X102436651Y-110511816D01*
X102441633Y-110509493D01*
X102500793Y-110468069D01*
X102615308Y-110387885D01*
X103963920Y-110387885D01*
X103965951Y-110390598D01*
X103967733Y-110391522D01*
X104125452Y-110442768D01*
X104137426Y-110445401D01*
X104327524Y-110468069D01*
X104339773Y-110468326D01*
X104530651Y-110453639D01*
X104542731Y-110451508D01*
X104727105Y-110400030D01*
X104737253Y-110396094D01*
X104747188Y-110386777D01*
X104744950Y-110380135D01*
X104368312Y-110003497D01*
X104354368Y-109995883D01*
X104352535Y-109996014D01*
X104345920Y-110000265D01*
X103970680Y-110375505D01*
X103963920Y-110387885D01*
X102615308Y-110387885D01*
X102615929Y-110387450D01*
X102615932Y-110387448D01*
X102620440Y-110384291D01*
X102774791Y-110229940D01*
X102899993Y-110051132D01*
X102917172Y-110014293D01*
X102989921Y-109858282D01*
X102989922Y-109858280D01*
X102992244Y-109853300D01*
X103002779Y-109813985D01*
X103047316Y-109647769D01*
X103047316Y-109647767D01*
X103048740Y-109642454D01*
X103064699Y-109460039D01*
X103079992Y-109420943D01*
X103079151Y-109419244D01*
X103299584Y-109419244D01*
X103313750Y-109446195D01*
X103315778Y-109460478D01*
X103328109Y-109607326D01*
X103330324Y-109619391D01*
X103383089Y-109803408D01*
X103385134Y-109808574D01*
X103393251Y-109817108D01*
X103400051Y-109814764D01*
X103777003Y-109437812D01*
X103783381Y-109426132D01*
X104926383Y-109426132D01*
X104926514Y-109427965D01*
X104930765Y-109434580D01*
X105305581Y-109809396D01*
X105317961Y-109816156D01*
X105320861Y-109813985D01*
X105321596Y-109812580D01*
X105371635Y-109662155D01*
X105374355Y-109650183D01*
X105397087Y-109470243D01*
X105414254Y-109430880D01*
X105413765Y-109429949D01*
X105629283Y-109429949D01*
X105646485Y-109465969D01*
X105647614Y-109475053D01*
X105662260Y-109642454D01*
X105663684Y-109647767D01*
X105663684Y-109647769D01*
X105708222Y-109813985D01*
X105718756Y-109853300D01*
X105721078Y-109858280D01*
X105721079Y-109858282D01*
X105793829Y-110014293D01*
X105811007Y-110051132D01*
X105936209Y-110229940D01*
X106090560Y-110384291D01*
X106095068Y-110387448D01*
X106095071Y-110387450D01*
X106210207Y-110468069D01*
X106269367Y-110509493D01*
X106274349Y-110511816D01*
X106274354Y-110511819D01*
X106459681Y-110598238D01*
X106467200Y-110601744D01*
X106472508Y-110603166D01*
X106472510Y-110603167D01*
X106672731Y-110656816D01*
X106672733Y-110656816D01*
X106678046Y-110658240D01*
X106895500Y-110677265D01*
X107112954Y-110658240D01*
X107118267Y-110656816D01*
X107118269Y-110656816D01*
X107318490Y-110603167D01*
X107318492Y-110603166D01*
X107323800Y-110601744D01*
X107331319Y-110598238D01*
X107516646Y-110511819D01*
X107516651Y-110511816D01*
X107521633Y-110509493D01*
X107580793Y-110468069D01*
X107695929Y-110387450D01*
X107695932Y-110387448D01*
X107700440Y-110384291D01*
X107854791Y-110229940D01*
X107979993Y-110051132D01*
X107997172Y-110014293D01*
X108069921Y-109858282D01*
X108069922Y-109858280D01*
X108072244Y-109853300D01*
X108082779Y-109813985D01*
X108127316Y-109647769D01*
X108127316Y-109647767D01*
X108128740Y-109642454D01*
X108147765Y-109425000D01*
X108128740Y-109207546D01*
X108098505Y-109094707D01*
X108073667Y-109002010D01*
X108073666Y-109002008D01*
X108072244Y-108996700D01*
X108005695Y-108853986D01*
X107982316Y-108803849D01*
X107982314Y-108803846D01*
X107979993Y-108798868D01*
X107854791Y-108620060D01*
X107700440Y-108465709D01*
X107695932Y-108462552D01*
X107695929Y-108462550D01*
X107526142Y-108343664D01*
X107526139Y-108343662D01*
X107521633Y-108340507D01*
X107516651Y-108338184D01*
X107516646Y-108338181D01*
X107328782Y-108250579D01*
X107328781Y-108250578D01*
X107323800Y-108248256D01*
X107318492Y-108246834D01*
X107318490Y-108246833D01*
X107118269Y-108193184D01*
X107118267Y-108193184D01*
X107112954Y-108191760D01*
X106895500Y-108172735D01*
X106678046Y-108191760D01*
X106672733Y-108193184D01*
X106672731Y-108193184D01*
X106472510Y-108246833D01*
X106472508Y-108246834D01*
X106467200Y-108248256D01*
X106462220Y-108250578D01*
X106462218Y-108250579D01*
X106274349Y-108338184D01*
X106274346Y-108338186D01*
X106269368Y-108340507D01*
X106090560Y-108465709D01*
X105936209Y-108620060D01*
X105811007Y-108798868D01*
X105808686Y-108803846D01*
X105808684Y-108803849D01*
X105785305Y-108853986D01*
X105718756Y-108996700D01*
X105717334Y-109002008D01*
X105717333Y-109002010D01*
X105692495Y-109094707D01*
X105662260Y-109207546D01*
X105661781Y-109213026D01*
X105661779Y-109213038D01*
X105646695Y-109385436D01*
X105629283Y-109429949D01*
X105413765Y-109429949D01*
X105397645Y-109399280D01*
X105395776Y-109386749D01*
X105380245Y-109228347D01*
X105377862Y-109216312D01*
X105323718Y-109036978D01*
X105318797Y-109031943D01*
X105311680Y-109034505D01*
X104933997Y-109412188D01*
X104926383Y-109426132D01*
X103783381Y-109426132D01*
X103784617Y-109423868D01*
X103784486Y-109422035D01*
X103780235Y-109415420D01*
X103404527Y-109039712D01*
X103392147Y-109032952D01*
X103389618Y-109034845D01*
X103388513Y-109036995D01*
X103336149Y-109202066D01*
X103333601Y-109214053D01*
X103314599Y-109383463D01*
X103299584Y-109419244D01*
X103079151Y-109419244D01*
X103065284Y-109391219D01*
X103063863Y-109380400D01*
X103059084Y-109325777D01*
X103048740Y-109207546D01*
X103018505Y-109094707D01*
X102993667Y-109002010D01*
X102993666Y-109002008D01*
X102992244Y-108996700D01*
X102925695Y-108853986D01*
X102902316Y-108803849D01*
X102902314Y-108803846D01*
X102899993Y-108798868D01*
X102774791Y-108620060D01*
X102620440Y-108465709D01*
X102615932Y-108462552D01*
X102615929Y-108462550D01*
X102615493Y-108462245D01*
X103962936Y-108462245D01*
X103965389Y-108469204D01*
X104342688Y-108846503D01*
X104356632Y-108854117D01*
X104358465Y-108853986D01*
X104365080Y-108849735D01*
X104741300Y-108473515D01*
X104748060Y-108461135D01*
X104746306Y-108458792D01*
X104743780Y-108457505D01*
X104571318Y-108404119D01*
X104559305Y-108401653D01*
X104368917Y-108381642D01*
X104356649Y-108381557D01*
X104166008Y-108398907D01*
X104153959Y-108401205D01*
X103970310Y-108455256D01*
X103970091Y-108455344D01*
X103962936Y-108462245D01*
X102615493Y-108462245D01*
X102446142Y-108343664D01*
X102446139Y-108343662D01*
X102441633Y-108340507D01*
X102436651Y-108338184D01*
X102436646Y-108338181D01*
X102248782Y-108250579D01*
X102248781Y-108250578D01*
X102243800Y-108248256D01*
X102238492Y-108246834D01*
X102238490Y-108246833D01*
X102038269Y-108193184D01*
X102038267Y-108193184D01*
X102032954Y-108191760D01*
X101815500Y-108172735D01*
X101598046Y-108191760D01*
X101592733Y-108193184D01*
X101592731Y-108193184D01*
X101392510Y-108246833D01*
X101392508Y-108246834D01*
X101387200Y-108248256D01*
X101382220Y-108250578D01*
X101382218Y-108250579D01*
X101194349Y-108338184D01*
X101194346Y-108338186D01*
X101189368Y-108340507D01*
X101010560Y-108465709D01*
X100856209Y-108620060D01*
X100731007Y-108798868D01*
X100728686Y-108803846D01*
X100728684Y-108803849D01*
X100705305Y-108853986D01*
X100638756Y-108996700D01*
X100637334Y-109002008D01*
X100637333Y-109002010D01*
X100612495Y-109094707D01*
X100582260Y-109207546D01*
X100563235Y-109425000D01*
X90442256Y-109425000D01*
X90456529Y-109316590D01*
X90458156Y-109250000D01*
X90439852Y-109027361D01*
X90385431Y-108810702D01*
X90296354Y-108605840D01*
X90202740Y-108461135D01*
X90177822Y-108422617D01*
X90177820Y-108422614D01*
X90175014Y-108418277D01*
X90024670Y-108253051D01*
X90020619Y-108249852D01*
X90020615Y-108249848D01*
X89853414Y-108117800D01*
X89853410Y-108117798D01*
X89849359Y-108114598D01*
X89835509Y-108106952D01*
X89797136Y-108085769D01*
X89653789Y-108006638D01*
X89648920Y-108004914D01*
X89648916Y-108004912D01*
X89448087Y-107933795D01*
X89448083Y-107933794D01*
X89443212Y-107932069D01*
X89438119Y-107931162D01*
X89438116Y-107931161D01*
X89228373Y-107893800D01*
X89228367Y-107893799D01*
X89223284Y-107892894D01*
X89149452Y-107891992D01*
X89005081Y-107890228D01*
X89005079Y-107890228D01*
X88999911Y-107890165D01*
X88779091Y-107923955D01*
X88566756Y-107993357D01*
X88368607Y-108096507D01*
X88364474Y-108099610D01*
X88364471Y-108099612D01*
X88194100Y-108227530D01*
X88189965Y-108230635D01*
X88186393Y-108234373D01*
X88077760Y-108348051D01*
X88035629Y-108392138D01*
X87928201Y-108549621D01*
X87873293Y-108594621D01*
X87802768Y-108602792D01*
X87739021Y-108571538D01*
X87718324Y-108547054D01*
X87637822Y-108422617D01*
X87637820Y-108422614D01*
X87635014Y-108418277D01*
X87484670Y-108253051D01*
X87480619Y-108249852D01*
X87480615Y-108249848D01*
X87313414Y-108117800D01*
X87313410Y-108117798D01*
X87309359Y-108114598D01*
X87295509Y-108106952D01*
X87257136Y-108085769D01*
X87113789Y-108006638D01*
X87108920Y-108004914D01*
X87108916Y-108004912D01*
X86908087Y-107933795D01*
X86908083Y-107933794D01*
X86903212Y-107932069D01*
X86898119Y-107931162D01*
X86898116Y-107931161D01*
X86688373Y-107893800D01*
X86688367Y-107893799D01*
X86683284Y-107892894D01*
X86609452Y-107891992D01*
X86465081Y-107890228D01*
X86465079Y-107890228D01*
X86459911Y-107890165D01*
X86239091Y-107923955D01*
X86026756Y-107993357D01*
X85828607Y-108096507D01*
X85824474Y-108099610D01*
X85824471Y-108099612D01*
X85654100Y-108227530D01*
X85649965Y-108230635D01*
X85646393Y-108234373D01*
X85537760Y-108348051D01*
X85495629Y-108392138D01*
X85388201Y-108549621D01*
X85333293Y-108594621D01*
X85262768Y-108602792D01*
X85199021Y-108571538D01*
X85178324Y-108547054D01*
X85097822Y-108422617D01*
X85097820Y-108422614D01*
X85095014Y-108418277D01*
X84944670Y-108253051D01*
X84940619Y-108249852D01*
X84940615Y-108249848D01*
X84773414Y-108117800D01*
X84773410Y-108117798D01*
X84769359Y-108114598D01*
X84755509Y-108106952D01*
X84717136Y-108085769D01*
X84573789Y-108006638D01*
X84568920Y-108004914D01*
X84568916Y-108004912D01*
X84368087Y-107933795D01*
X84368083Y-107933794D01*
X84363212Y-107932069D01*
X84358119Y-107931162D01*
X84358116Y-107931161D01*
X84148373Y-107893800D01*
X84148367Y-107893799D01*
X84143284Y-107892894D01*
X84069452Y-107891992D01*
X83925081Y-107890228D01*
X83925079Y-107890228D01*
X83919911Y-107890165D01*
X83755059Y-107915391D01*
X83684698Y-107905923D01*
X83646906Y-107879936D01*
X79795405Y-104028435D01*
X79761379Y-103966123D01*
X79758500Y-103939340D01*
X79758500Y-98236552D01*
X80736956Y-98236552D01*
X80737472Y-98242696D01*
X80752169Y-98417715D01*
X80752685Y-98423865D01*
X80754384Y-98429789D01*
X80801488Y-98594060D01*
X80804497Y-98604555D01*
X80807312Y-98610032D01*
X80807313Y-98610035D01*
X80873161Y-98738161D01*
X80890418Y-98771740D01*
X80894241Y-98776564D01*
X80894244Y-98776568D01*
X80921982Y-98811564D01*
X81007177Y-98919052D01*
X81150324Y-99040880D01*
X81314409Y-99132584D01*
X81493180Y-99190670D01*
X81679830Y-99212927D01*
X81685965Y-99212455D01*
X81685967Y-99212455D01*
X81861105Y-99198979D01*
X81861109Y-99198978D01*
X81867247Y-99198506D01*
X82001967Y-99160891D01*
X82042350Y-99149616D01*
X82042353Y-99149615D01*
X82048294Y-99147956D01*
X82053798Y-99145176D01*
X82053800Y-99145175D01*
X82099611Y-99122034D01*
X82156421Y-99108500D01*
X83720641Y-99108500D01*
X83788762Y-99128502D01*
X83835255Y-99182158D01*
X83845359Y-99252432D01*
X83815865Y-99317012D01*
X83799601Y-99332689D01*
X83701128Y-99411864D01*
X83697170Y-99416582D01*
X83697167Y-99416584D01*
X83672913Y-99445489D01*
X83580302Y-99555859D01*
X83577338Y-99561251D01*
X83577335Y-99561255D01*
X83510334Y-99683131D01*
X83489746Y-99720580D01*
X83432909Y-99899752D01*
X83411956Y-100086552D01*
X83427685Y-100273865D01*
X83479497Y-100454555D01*
X83482312Y-100460032D01*
X83482313Y-100460035D01*
X83533253Y-100559154D01*
X83565418Y-100621740D01*
X83569241Y-100626564D01*
X83569244Y-100626568D01*
X83668227Y-100751452D01*
X83682177Y-100769052D01*
X83686871Y-100773047D01*
X83726994Y-100807194D01*
X83825324Y-100890880D01*
X83830702Y-100893886D01*
X83830704Y-100893887D01*
X83863658Y-100912304D01*
X83989409Y-100982584D01*
X84168180Y-101040670D01*
X84247989Y-101050187D01*
X84290078Y-101055206D01*
X84355352Y-101083134D01*
X84364254Y-101091225D01*
X84604595Y-101331566D01*
X84638621Y-101393878D01*
X84641500Y-101420661D01*
X84641500Y-104458122D01*
X84621498Y-104526243D01*
X84587771Y-104561335D01*
X84510211Y-104615643D01*
X84510208Y-104615645D01*
X84505700Y-104618802D01*
X84343802Y-104780700D01*
X84340645Y-104785208D01*
X84340643Y-104785211D01*
X84295998Y-104848971D01*
X84212477Y-104968251D01*
X84210154Y-104973233D01*
X84210151Y-104973238D01*
X84121531Y-105163287D01*
X84115716Y-105175757D01*
X84114294Y-105181065D01*
X84114293Y-105181067D01*
X84057883Y-105391591D01*
X84056457Y-105396913D01*
X84036502Y-105625000D01*
X84056457Y-105853087D01*
X84057881Y-105858400D01*
X84057881Y-105858402D01*
X84111726Y-106059351D01*
X84115716Y-106074243D01*
X84118039Y-106079224D01*
X84118039Y-106079225D01*
X84210151Y-106276762D01*
X84210154Y-106276767D01*
X84212477Y-106281749D01*
X84265949Y-106358115D01*
X84329565Y-106448967D01*
X84343802Y-106469300D01*
X84505700Y-106631198D01*
X84510208Y-106634355D01*
X84510211Y-106634357D01*
X84565919Y-106673364D01*
X84693251Y-106762523D01*
X84698233Y-106764846D01*
X84698238Y-106764849D01*
X84861019Y-106840754D01*
X84900757Y-106859284D01*
X84906065Y-106860706D01*
X84906067Y-106860707D01*
X85116598Y-106917119D01*
X85116600Y-106917119D01*
X85121913Y-106918543D01*
X85350000Y-106938498D01*
X85578087Y-106918543D01*
X85583400Y-106917119D01*
X85583402Y-106917119D01*
X85793933Y-106860707D01*
X85793935Y-106860706D01*
X85799243Y-106859284D01*
X85838981Y-106840754D01*
X86001762Y-106764849D01*
X86001767Y-106764846D01*
X86006749Y-106762523D01*
X86134081Y-106673364D01*
X86189789Y-106634357D01*
X86189792Y-106634355D01*
X86193066Y-106632062D01*
X89914243Y-106632062D01*
X89917589Y-106636532D01*
X90003318Y-106673364D01*
X90014261Y-106676919D01*
X90200170Y-106718987D01*
X90211579Y-106720489D01*
X90402048Y-106727972D01*
X90413530Y-106727370D01*
X90602169Y-106700020D01*
X90613364Y-106697332D01*
X90777837Y-106641500D01*
X90789373Y-106633389D01*
X90788671Y-106629629D01*
X90787951Y-106628636D01*
X90607840Y-106448525D01*
X92396922Y-106448525D01*
X92472386Y-106612218D01*
X92478137Y-106622179D01*
X92593455Y-106785350D01*
X92600921Y-106794092D01*
X92744047Y-106933520D01*
X92752981Y-106940754D01*
X92919112Y-107051760D01*
X92929224Y-107057251D01*
X93058355Y-107112729D01*
X93072355Y-107114420D01*
X93075000Y-107110092D01*
X93075000Y-107100640D01*
X93875000Y-107100640D01*
X93878973Y-107114171D01*
X93885669Y-107115133D01*
X93939283Y-107096934D01*
X93949786Y-107092258D01*
X94124124Y-106994625D01*
X94133596Y-106988115D01*
X94287219Y-106860348D01*
X94295348Y-106852219D01*
X94423115Y-106698596D01*
X94429625Y-106689124D01*
X94527258Y-106514786D01*
X94531934Y-106504283D01*
X94547931Y-106457157D01*
X94548518Y-106443064D01*
X94542488Y-106440000D01*
X93893115Y-106440000D01*
X93877876Y-106444475D01*
X93876671Y-106445865D01*
X93875000Y-106453548D01*
X93875000Y-107100640D01*
X93075000Y-107100640D01*
X93075000Y-106458115D01*
X93070525Y-106442876D01*
X93069135Y-106441671D01*
X93061452Y-106440000D01*
X92411107Y-106440000D01*
X92397576Y-106443973D01*
X92396922Y-106448525D01*
X90607840Y-106448525D01*
X90362812Y-106203497D01*
X90348868Y-106195883D01*
X90347035Y-106196014D01*
X90340420Y-106200265D01*
X89921003Y-106619682D01*
X89914243Y-106632062D01*
X86193066Y-106632062D01*
X86194300Y-106631198D01*
X86356198Y-106469300D01*
X86370436Y-106448967D01*
X86434051Y-106358115D01*
X86487523Y-106281749D01*
X86489846Y-106276767D01*
X86489849Y-106276762D01*
X86581961Y-106079225D01*
X86581961Y-106079224D01*
X86584284Y-106074243D01*
X86588275Y-106059351D01*
X86642119Y-105858402D01*
X86642119Y-105858400D01*
X86643543Y-105853087D01*
X86663498Y-105625000D01*
X86661472Y-105601848D01*
X89246044Y-105601848D01*
X89258510Y-105792047D01*
X89260311Y-105803417D01*
X89307230Y-105988161D01*
X89311071Y-105999007D01*
X89334800Y-106050479D01*
X89344072Y-106061104D01*
X89349964Y-106059351D01*
X89771503Y-105637812D01*
X89777881Y-105626132D01*
X90920883Y-105626132D01*
X90921014Y-105627965D01*
X90925265Y-105634580D01*
X91347865Y-106057180D01*
X91360245Y-106063940D01*
X91363306Y-106061648D01*
X91363877Y-106060566D01*
X91422332Y-105888364D01*
X91425020Y-105877169D01*
X91452666Y-105686490D01*
X91453296Y-105679107D01*
X91454616Y-105628704D01*
X91454373Y-105621305D01*
X91436743Y-105429439D01*
X91434645Y-105418118D01*
X91382906Y-105234667D01*
X91378785Y-105223928D01*
X91366311Y-105198633D01*
X91356764Y-105188256D01*
X91350331Y-105190354D01*
X90928497Y-105612188D01*
X90920883Y-105626132D01*
X89777881Y-105626132D01*
X89779117Y-105623868D01*
X89778986Y-105622035D01*
X89774735Y-105615420D01*
X89353285Y-105193970D01*
X89340905Y-105187210D01*
X89334939Y-105191676D01*
X89332067Y-105197134D01*
X89327666Y-105207758D01*
X89271141Y-105389800D01*
X89268749Y-105401054D01*
X89246345Y-105590347D01*
X89246044Y-105601848D01*
X86661472Y-105601848D01*
X86643543Y-105396913D01*
X86642117Y-105391591D01*
X86585707Y-105181067D01*
X86585706Y-105181065D01*
X86584284Y-105175757D01*
X86578469Y-105163287D01*
X86489849Y-104973238D01*
X86489846Y-104973233D01*
X86487523Y-104968251D01*
X86404002Y-104848971D01*
X86359357Y-104785211D01*
X86359355Y-104785208D01*
X86356198Y-104780700D01*
X86194300Y-104618802D01*
X86193349Y-104618136D01*
X89912358Y-104618136D01*
X89913320Y-104622635D01*
X90337188Y-105046503D01*
X90351132Y-105054117D01*
X90352965Y-105053986D01*
X90359580Y-105049735D01*
X90779453Y-104629862D01*
X90786213Y-104617482D01*
X90783175Y-104613423D01*
X90669123Y-104567921D01*
X90658085Y-104564651D01*
X90471142Y-104527466D01*
X90459695Y-104526263D01*
X90269107Y-104523768D01*
X90257627Y-104524671D01*
X90069776Y-104556950D01*
X90058656Y-104559930D01*
X89923676Y-104609726D01*
X89912358Y-104618136D01*
X86193349Y-104618136D01*
X86189792Y-104615645D01*
X86189789Y-104615643D01*
X86112229Y-104561335D01*
X86067901Y-104505878D01*
X86058500Y-104458122D01*
X86058500Y-101103912D01*
X86058792Y-101095342D01*
X86062209Y-101045224D01*
X86062209Y-101045220D01*
X86062725Y-101037648D01*
X86051739Y-100974703D01*
X86050777Y-100968182D01*
X86044015Y-100912304D01*
X86043102Y-100904758D01*
X86040416Y-100897650D01*
X86039779Y-100895056D01*
X86035318Y-100878750D01*
X86034548Y-100876199D01*
X86033242Y-100868716D01*
X86007561Y-100810212D01*
X86005069Y-100804105D01*
X85985173Y-100751452D01*
X85985173Y-100751451D01*
X85982487Y-100744344D01*
X85978184Y-100738083D01*
X85976947Y-100735717D01*
X85968720Y-100720937D01*
X85967369Y-100718652D01*
X85964315Y-100711695D01*
X85959695Y-100705675D01*
X85959692Y-100705669D01*
X85925421Y-100661009D01*
X85921541Y-100655668D01*
X85889661Y-100609280D01*
X85889656Y-100609275D01*
X85885357Y-100603019D01*
X85838829Y-100561564D01*
X85833554Y-100556584D01*
X85365819Y-100088849D01*
X85331793Y-100026537D01*
X85329515Y-100012050D01*
X85320397Y-99919060D01*
X85320396Y-99919055D01*
X85319795Y-99912926D01*
X85265465Y-99732977D01*
X85177218Y-99567008D01*
X85058415Y-99421340D01*
X84949920Y-99331585D01*
X84910181Y-99272751D01*
X84908559Y-99201773D01*
X84945569Y-99141185D01*
X85009459Y-99110225D01*
X85030235Y-99108500D01*
X88407208Y-99108500D01*
X88475329Y-99128502D01*
X88496303Y-99145405D01*
X90628674Y-101277776D01*
X90635816Y-101285542D01*
X90669471Y-101325367D01*
X90674890Y-101329510D01*
X90674892Y-101329512D01*
X90734008Y-101374710D01*
X90736429Y-101376609D01*
X90794418Y-101423232D01*
X90799738Y-101427509D01*
X90805850Y-101430543D01*
X90808644Y-101432330D01*
X90809004Y-101432582D01*
X90809373Y-101432785D01*
X90812234Y-101434517D01*
X90817652Y-101438660D01*
X90891277Y-101472992D01*
X90894048Y-101474326D01*
X90966814Y-101510447D01*
X90973435Y-101512098D01*
X90976563Y-101513249D01*
X90976956Y-101513413D01*
X90977361Y-101513532D01*
X90980525Y-101514609D01*
X90986704Y-101517490D01*
X91060498Y-101533985D01*
X91066002Y-101535215D01*
X91069000Y-101535924D01*
X91147801Y-101555572D01*
X91154622Y-101555763D01*
X91157925Y-101556215D01*
X91158809Y-101556374D01*
X91163692Y-101557052D01*
X91168740Y-101558180D01*
X91174463Y-101558500D01*
X91250844Y-101558500D01*
X91254363Y-101558549D01*
X91334257Y-101560781D01*
X91340961Y-101559502D01*
X91347762Y-101558955D01*
X91347804Y-101559475D01*
X91358125Y-101558500D01*
X94182208Y-101558500D01*
X94250329Y-101578502D01*
X94271303Y-101595405D01*
X94646123Y-101970225D01*
X94680149Y-102032537D01*
X94675084Y-102103352D01*
X94632537Y-102160188D01*
X94566017Y-102184999D01*
X94512799Y-102177302D01*
X94435316Y-102148255D01*
X94373134Y-102141500D01*
X92576866Y-102141500D01*
X92514684Y-102148255D01*
X92378295Y-102199385D01*
X92261739Y-102286739D01*
X92174385Y-102403295D01*
X92123255Y-102539684D01*
X92116500Y-102601866D01*
X92116500Y-104398134D01*
X92123255Y-104460316D01*
X92174385Y-104596705D01*
X92261739Y-104713261D01*
X92378295Y-104800615D01*
X92514684Y-104851745D01*
X92576866Y-104858500D01*
X92753342Y-104858500D01*
X92821463Y-104878502D01*
X92867956Y-104932158D01*
X92878060Y-105002432D01*
X92848566Y-105067012D01*
X92817765Y-105092785D01*
X92801119Y-105102688D01*
X92791807Y-105109453D01*
X92641587Y-105241194D01*
X92633670Y-105249537D01*
X92509975Y-105406443D01*
X92503704Y-105416100D01*
X92410681Y-105592909D01*
X92406272Y-105603551D01*
X92400327Y-105622699D01*
X92400109Y-105636799D01*
X92406841Y-105640000D01*
X94539019Y-105640000D01*
X94552550Y-105636027D01*
X94553615Y-105628621D01*
X94550663Y-105620931D01*
X94462292Y-105441733D01*
X94456282Y-105431925D01*
X94336731Y-105271827D01*
X94329041Y-105263287D01*
X94182315Y-105127654D01*
X94173190Y-105120653D01*
X94126291Y-105091062D01*
X94079353Y-105037796D01*
X94068663Y-104967608D01*
X94097617Y-104902784D01*
X94157021Y-104863904D01*
X94193526Y-104858500D01*
X94373134Y-104858500D01*
X94435316Y-104851745D01*
X94571705Y-104800615D01*
X94688261Y-104713261D01*
X94775615Y-104596705D01*
X94826745Y-104460316D01*
X94833500Y-104398134D01*
X94833500Y-102601866D01*
X94826745Y-102539684D01*
X94797698Y-102462201D01*
X94792515Y-102391395D01*
X94826436Y-102329026D01*
X94888691Y-102294896D01*
X94959515Y-102299843D01*
X95004775Y-102328877D01*
X95955795Y-103279897D01*
X95989821Y-103342209D01*
X95991987Y-103382379D01*
X95989906Y-103401848D01*
X95989084Y-103409547D01*
X95987251Y-103426695D01*
X95987548Y-103431847D01*
X95987548Y-103431851D01*
X95998835Y-103627596D01*
X96000110Y-103649715D01*
X96001247Y-103654761D01*
X96001248Y-103654767D01*
X96006297Y-103677169D01*
X96049222Y-103867639D01*
X96133266Y-104074616D01*
X96249987Y-104265088D01*
X96396250Y-104433938D01*
X96400230Y-104437242D01*
X96404981Y-104441187D01*
X96444616Y-104500090D01*
X96446113Y-104571071D01*
X96408997Y-104631593D01*
X96368725Y-104656112D01*
X96360264Y-104659284D01*
X96253295Y-104699385D01*
X96136739Y-104786739D01*
X96049385Y-104903295D01*
X95998255Y-105039684D01*
X95991500Y-105101866D01*
X95991500Y-106898134D01*
X95998255Y-106960316D01*
X96049385Y-107096705D01*
X96136739Y-107213261D01*
X96253295Y-107300615D01*
X96389684Y-107351745D01*
X96451866Y-107358500D01*
X98248134Y-107358500D01*
X98310316Y-107351745D01*
X98446705Y-107300615D01*
X98563261Y-107213261D01*
X98650615Y-107096705D01*
X98701745Y-106960316D01*
X98708500Y-106898134D01*
X98708500Y-106348525D01*
X110046922Y-106348525D01*
X110122386Y-106512218D01*
X110128137Y-106522179D01*
X110243455Y-106685350D01*
X110250921Y-106694092D01*
X110394047Y-106833520D01*
X110402981Y-106840754D01*
X110569112Y-106951760D01*
X110579224Y-106957251D01*
X110708355Y-107012729D01*
X110722355Y-107014420D01*
X110725000Y-107010092D01*
X110725000Y-107000640D01*
X111525000Y-107000640D01*
X111528973Y-107014171D01*
X111535669Y-107015133D01*
X111589283Y-106996934D01*
X111599786Y-106992258D01*
X111774124Y-106894625D01*
X111783596Y-106888115D01*
X111937219Y-106760348D01*
X111945348Y-106752219D01*
X112073115Y-106598596D01*
X112079625Y-106589124D01*
X112177258Y-106414786D01*
X112181934Y-106404283D01*
X112197931Y-106357157D01*
X112198518Y-106343064D01*
X112192488Y-106340000D01*
X111543115Y-106340000D01*
X111527876Y-106344475D01*
X111526671Y-106345865D01*
X111525000Y-106353548D01*
X111525000Y-107000640D01*
X110725000Y-107000640D01*
X110725000Y-106358115D01*
X110720525Y-106342876D01*
X110719135Y-106341671D01*
X110711452Y-106340000D01*
X110061107Y-106340000D01*
X110047576Y-106343973D01*
X110046922Y-106348525D01*
X98708500Y-106348525D01*
X98708500Y-105101866D01*
X98701745Y-105039684D01*
X98650615Y-104903295D01*
X98563261Y-104786739D01*
X98446705Y-104699385D01*
X98434132Y-104694672D01*
X98328203Y-104654960D01*
X98271439Y-104612318D01*
X98246739Y-104545756D01*
X98261947Y-104476408D01*
X98283493Y-104447727D01*
X98299213Y-104432062D01*
X101514243Y-104432062D01*
X101517589Y-104436532D01*
X101603318Y-104473364D01*
X101614261Y-104476919D01*
X101800170Y-104518987D01*
X101811579Y-104520489D01*
X102002048Y-104527972D01*
X102013530Y-104527370D01*
X102202169Y-104500020D01*
X102213364Y-104497332D01*
X102377837Y-104441500D01*
X102389373Y-104433389D01*
X102388671Y-104429629D01*
X102387951Y-104428636D01*
X101962812Y-104003497D01*
X101948868Y-103995883D01*
X101947035Y-103996014D01*
X101940420Y-104000265D01*
X101521003Y-104419682D01*
X101514243Y-104432062D01*
X98299213Y-104432062D01*
X98302651Y-104428636D01*
X98388096Y-104343489D01*
X98403285Y-104322352D01*
X98515435Y-104166277D01*
X98518453Y-104162077D01*
X98537076Y-104124397D01*
X98615136Y-103966453D01*
X98615137Y-103966451D01*
X98617430Y-103961811D01*
X98682370Y-103748069D01*
X98711529Y-103526590D01*
X98713156Y-103460000D01*
X98708375Y-103401848D01*
X100846044Y-103401848D01*
X100858510Y-103592047D01*
X100860311Y-103603417D01*
X100907230Y-103788161D01*
X100911071Y-103799007D01*
X100934800Y-103850479D01*
X100944072Y-103861104D01*
X100949964Y-103859351D01*
X101371503Y-103437812D01*
X101377881Y-103426132D01*
X102520883Y-103426132D01*
X102521014Y-103427965D01*
X102525265Y-103434580D01*
X102947865Y-103857180D01*
X102960245Y-103863940D01*
X102963306Y-103861648D01*
X102963877Y-103860566D01*
X103022332Y-103688364D01*
X103025020Y-103677169D01*
X103052666Y-103486490D01*
X103053296Y-103479107D01*
X103054616Y-103428704D01*
X103054494Y-103425000D01*
X105636502Y-103425000D01*
X105656457Y-103653087D01*
X105657881Y-103658400D01*
X105657881Y-103658402D01*
X105711726Y-103859351D01*
X105715716Y-103874243D01*
X105718039Y-103879224D01*
X105718039Y-103879225D01*
X105810151Y-104076762D01*
X105810154Y-104076767D01*
X105812477Y-104081749D01*
X105871664Y-104166277D01*
X105940552Y-104264658D01*
X105943802Y-104269300D01*
X106105700Y-104431198D01*
X106110208Y-104434355D01*
X106110211Y-104434357D01*
X106187246Y-104488297D01*
X106293251Y-104562523D01*
X106298233Y-104564846D01*
X106298238Y-104564849D01*
X106495775Y-104656961D01*
X106500757Y-104659284D01*
X106506065Y-104660706D01*
X106506067Y-104660707D01*
X106716598Y-104717119D01*
X106716600Y-104717119D01*
X106721913Y-104718543D01*
X106950000Y-104738498D01*
X107178087Y-104718543D01*
X107183400Y-104717119D01*
X107183402Y-104717119D01*
X107393933Y-104660707D01*
X107393935Y-104660706D01*
X107399243Y-104659284D01*
X107404225Y-104656961D01*
X107601762Y-104564849D01*
X107601767Y-104564846D01*
X107606749Y-104562523D01*
X107712754Y-104488297D01*
X107789789Y-104434357D01*
X107789792Y-104434355D01*
X107794300Y-104431198D01*
X107927364Y-104298134D01*
X109766500Y-104298134D01*
X109773255Y-104360316D01*
X109824385Y-104496705D01*
X109911739Y-104613261D01*
X110028295Y-104700615D01*
X110164684Y-104751745D01*
X110226866Y-104758500D01*
X110403342Y-104758500D01*
X110471463Y-104778502D01*
X110517956Y-104832158D01*
X110528060Y-104902432D01*
X110498566Y-104967012D01*
X110467765Y-104992785D01*
X110451119Y-105002688D01*
X110441807Y-105009453D01*
X110291587Y-105141194D01*
X110283670Y-105149537D01*
X110159975Y-105306443D01*
X110153704Y-105316100D01*
X110060681Y-105492909D01*
X110056272Y-105503551D01*
X110050327Y-105522699D01*
X110050109Y-105536799D01*
X110056841Y-105540000D01*
X112189019Y-105540000D01*
X112202550Y-105536027D01*
X112203615Y-105528621D01*
X112200663Y-105520931D01*
X112112292Y-105341733D01*
X112106282Y-105331925D01*
X111986731Y-105171827D01*
X111979041Y-105163287D01*
X111832315Y-105027654D01*
X111823190Y-105020653D01*
X111776291Y-104991062D01*
X111729353Y-104937796D01*
X111718663Y-104867608D01*
X111747617Y-104802784D01*
X111807021Y-104763904D01*
X111843526Y-104758500D01*
X112023134Y-104758500D01*
X112085316Y-104751745D01*
X112221705Y-104700615D01*
X112338261Y-104613261D01*
X112425615Y-104496705D01*
X112476745Y-104360316D01*
X112483500Y-104298134D01*
X112483500Y-102501866D01*
X112476745Y-102439684D01*
X112425615Y-102303295D01*
X112338261Y-102186739D01*
X112221705Y-102099385D01*
X112085316Y-102048255D01*
X112023134Y-102041500D01*
X110226866Y-102041500D01*
X110164684Y-102048255D01*
X110028295Y-102099385D01*
X109911739Y-102186739D01*
X109824385Y-102303295D01*
X109773255Y-102439684D01*
X109766500Y-102501866D01*
X109766500Y-104298134D01*
X107927364Y-104298134D01*
X107956198Y-104269300D01*
X107959449Y-104264658D01*
X108028336Y-104166277D01*
X108087523Y-104081749D01*
X108089846Y-104076767D01*
X108089849Y-104076762D01*
X108181961Y-103879225D01*
X108181961Y-103879224D01*
X108184284Y-103874243D01*
X108188275Y-103859351D01*
X108242119Y-103658402D01*
X108242119Y-103658400D01*
X108243543Y-103653087D01*
X108263498Y-103425000D01*
X108243543Y-103196913D01*
X108241637Y-103189800D01*
X108185707Y-102981067D01*
X108185706Y-102981065D01*
X108184284Y-102975757D01*
X108127502Y-102853986D01*
X108089849Y-102773238D01*
X108089846Y-102773233D01*
X108087523Y-102768251D01*
X107986837Y-102624457D01*
X107959357Y-102585211D01*
X107959355Y-102585208D01*
X107956198Y-102580700D01*
X107794300Y-102418802D01*
X107789792Y-102415645D01*
X107789789Y-102415643D01*
X107665874Y-102328877D01*
X107606749Y-102287477D01*
X107601767Y-102285154D01*
X107601762Y-102285151D01*
X107404225Y-102193039D01*
X107404224Y-102193039D01*
X107399243Y-102190716D01*
X107393935Y-102189294D01*
X107393933Y-102189293D01*
X107183402Y-102132881D01*
X107183400Y-102132881D01*
X107178087Y-102131457D01*
X106950000Y-102111502D01*
X106721913Y-102131457D01*
X106716600Y-102132881D01*
X106716598Y-102132881D01*
X106506067Y-102189293D01*
X106506065Y-102189294D01*
X106500757Y-102190716D01*
X106495776Y-102193039D01*
X106495775Y-102193039D01*
X106298238Y-102285151D01*
X106298233Y-102285154D01*
X106293251Y-102287477D01*
X106234126Y-102328877D01*
X106110211Y-102415643D01*
X106110208Y-102415645D01*
X106105700Y-102418802D01*
X105943802Y-102580700D01*
X105940645Y-102585208D01*
X105940643Y-102585211D01*
X105913163Y-102624457D01*
X105812477Y-102768251D01*
X105810154Y-102773233D01*
X105810151Y-102773238D01*
X105772498Y-102853986D01*
X105715716Y-102975757D01*
X105714294Y-102981065D01*
X105714293Y-102981067D01*
X105658363Y-103189800D01*
X105656457Y-103196913D01*
X105636502Y-103425000D01*
X103054494Y-103425000D01*
X103054373Y-103421305D01*
X103036743Y-103229439D01*
X103034645Y-103218118D01*
X102982906Y-103034667D01*
X102978785Y-103023928D01*
X102966311Y-102998633D01*
X102956764Y-102988256D01*
X102950331Y-102990354D01*
X102528497Y-103412188D01*
X102520883Y-103426132D01*
X101377881Y-103426132D01*
X101379117Y-103423868D01*
X101378986Y-103422035D01*
X101374735Y-103415420D01*
X100953285Y-102993970D01*
X100940905Y-102987210D01*
X100934939Y-102991676D01*
X100932067Y-102997134D01*
X100927666Y-103007758D01*
X100871141Y-103189800D01*
X100868749Y-103201054D01*
X100846345Y-103390347D01*
X100846044Y-103401848D01*
X98708375Y-103401848D01*
X98694852Y-103237361D01*
X98640431Y-103020702D01*
X98551354Y-102815840D01*
X98430014Y-102628277D01*
X98279670Y-102463051D01*
X98275619Y-102459852D01*
X98275615Y-102459848D01*
X98222799Y-102418136D01*
X101512358Y-102418136D01*
X101513320Y-102422635D01*
X101937188Y-102846503D01*
X101951132Y-102854117D01*
X101952965Y-102853986D01*
X101959580Y-102849735D01*
X102379453Y-102429862D01*
X102386213Y-102417482D01*
X102383175Y-102413423D01*
X102269123Y-102367921D01*
X102258085Y-102364651D01*
X102071142Y-102327466D01*
X102059695Y-102326263D01*
X101869107Y-102323768D01*
X101857627Y-102324671D01*
X101669776Y-102356950D01*
X101658656Y-102359930D01*
X101523676Y-102409726D01*
X101512358Y-102418136D01*
X98222799Y-102418136D01*
X98108414Y-102327800D01*
X98108410Y-102327798D01*
X98104359Y-102324598D01*
X98083645Y-102313163D01*
X98035777Y-102286739D01*
X97908789Y-102216638D01*
X97903920Y-102214914D01*
X97903916Y-102214912D01*
X97703087Y-102143795D01*
X97703083Y-102143794D01*
X97698212Y-102142069D01*
X97693119Y-102141162D01*
X97693116Y-102141161D01*
X97483373Y-102103800D01*
X97483367Y-102103799D01*
X97478284Y-102102894D01*
X97404441Y-102101992D01*
X97254927Y-102100165D01*
X97187055Y-102079332D01*
X97167371Y-102063269D01*
X96208015Y-101103912D01*
X95226320Y-100122217D01*
X95219177Y-100114450D01*
X95189935Y-100079847D01*
X95185529Y-100074633D01*
X95121031Y-100025321D01*
X95118615Y-100023427D01*
X95060583Y-99976768D01*
X95060582Y-99976767D01*
X95055262Y-99972490D01*
X95049143Y-99969453D01*
X95046348Y-99967665D01*
X95045987Y-99967412D01*
X95045620Y-99967210D01*
X95042762Y-99965479D01*
X95037348Y-99961340D01*
X94963736Y-99927014D01*
X94960963Y-99925679D01*
X94954275Y-99922359D01*
X94902153Y-99874154D01*
X94884366Y-99805422D01*
X94906563Y-99737984D01*
X94961695Y-99693252D01*
X95010300Y-99683500D01*
X95153247Y-99683500D01*
X95215429Y-99676745D01*
X95351818Y-99625615D01*
X95468374Y-99538261D01*
X95555728Y-99421705D01*
X95606858Y-99285316D01*
X95613613Y-99223134D01*
X95613613Y-98326848D01*
X97701157Y-98326848D01*
X97713623Y-98517047D01*
X97715424Y-98528417D01*
X97762343Y-98713161D01*
X97766184Y-98724007D01*
X97789913Y-98775479D01*
X97799185Y-98786104D01*
X97805077Y-98784351D01*
X98226616Y-98362812D01*
X98234230Y-98348868D01*
X98234099Y-98347035D01*
X98229848Y-98340420D01*
X97808398Y-97918970D01*
X97796018Y-97912210D01*
X97790052Y-97916676D01*
X97787180Y-97922134D01*
X97782779Y-97932758D01*
X97726254Y-98114800D01*
X97723862Y-98126054D01*
X97701458Y-98315347D01*
X97701157Y-98326848D01*
X95613613Y-98326848D01*
X95613613Y-97526866D01*
X95606858Y-97464684D01*
X95561292Y-97343136D01*
X98367471Y-97343136D01*
X98368433Y-97347635D01*
X99281703Y-98260905D01*
X99315729Y-98323217D01*
X99310664Y-98394032D01*
X99281703Y-98439095D01*
X98376116Y-99344682D01*
X98369356Y-99357062D01*
X98372702Y-99361532D01*
X98458431Y-99398364D01*
X98469374Y-99401919D01*
X98655283Y-99443987D01*
X98666692Y-99445489D01*
X98857161Y-99452972D01*
X98868643Y-99452370D01*
X99057289Y-99425018D01*
X99068472Y-99422334D01*
X99248968Y-99361064D01*
X99259478Y-99356384D01*
X99362777Y-99298533D01*
X99431986Y-99282699D01*
X99498768Y-99306795D01*
X99542326Y-99364237D01*
X99544670Y-99370489D01*
X99554498Y-99396705D01*
X99641852Y-99513261D01*
X99758408Y-99600615D01*
X99894797Y-99651745D01*
X99956979Y-99658500D01*
X101653247Y-99658500D01*
X101715429Y-99651745D01*
X101851818Y-99600615D01*
X101968374Y-99513261D01*
X102055728Y-99396705D01*
X102106858Y-99260316D01*
X102113613Y-99198134D01*
X102113613Y-99123134D01*
X103486388Y-99123134D01*
X103493143Y-99185316D01*
X103544273Y-99321705D01*
X103631627Y-99438261D01*
X103748183Y-99525615D01*
X103884572Y-99576745D01*
X103946754Y-99583500D01*
X105643022Y-99583500D01*
X105705204Y-99576745D01*
X105841593Y-99525615D01*
X105958149Y-99438261D01*
X106045503Y-99321705D01*
X106056965Y-99291130D01*
X106099607Y-99234366D01*
X106166169Y-99209667D01*
X106235518Y-99224875D01*
X106244948Y-99230595D01*
X106262963Y-99242632D01*
X106273074Y-99248122D01*
X106448210Y-99323366D01*
X106459143Y-99326918D01*
X106645058Y-99368987D01*
X106656467Y-99370489D01*
X106846936Y-99377972D01*
X106858418Y-99377370D01*
X107047057Y-99350020D01*
X107058252Y-99347332D01*
X107222725Y-99291500D01*
X107234261Y-99283389D01*
X107233559Y-99279629D01*
X107232839Y-99278636D01*
X106318298Y-98364095D01*
X106284272Y-98301783D01*
X106286107Y-98276132D01*
X107365771Y-98276132D01*
X107365902Y-98277965D01*
X107370153Y-98284580D01*
X107792753Y-98707180D01*
X107805133Y-98713940D01*
X107808194Y-98711648D01*
X107808765Y-98710566D01*
X107867220Y-98538364D01*
X107869908Y-98527169D01*
X107897554Y-98336490D01*
X107898184Y-98329107D01*
X107899504Y-98278704D01*
X107899261Y-98271305D01*
X107881631Y-98079439D01*
X107879533Y-98068118D01*
X107827794Y-97884667D01*
X107823673Y-97873928D01*
X107811199Y-97848633D01*
X107801652Y-97838256D01*
X107795219Y-97840354D01*
X107373385Y-98262188D01*
X107365771Y-98276132D01*
X106286107Y-98276132D01*
X106289337Y-98230968D01*
X106318298Y-98185905D01*
X107224341Y-97279862D01*
X107231101Y-97267482D01*
X107228063Y-97263423D01*
X107114011Y-97217921D01*
X107102973Y-97214651D01*
X106916030Y-97177466D01*
X106904583Y-97176263D01*
X106713995Y-97173768D01*
X106702515Y-97174671D01*
X106514664Y-97206950D01*
X106503544Y-97209930D01*
X106324713Y-97275904D01*
X106314338Y-97280852D01*
X106240144Y-97324993D01*
X106171374Y-97342632D01*
X106103984Y-97320291D01*
X106057740Y-97260937D01*
X106048655Y-97236703D01*
X106045503Y-97228295D01*
X105958149Y-97111739D01*
X105841593Y-97024385D01*
X105705204Y-96973255D01*
X105643022Y-96966500D01*
X103946754Y-96966500D01*
X103884572Y-96973255D01*
X103748183Y-97024385D01*
X103631627Y-97111739D01*
X103544273Y-97228295D01*
X103493143Y-97364684D01*
X103486388Y-97426866D01*
X103486388Y-99123134D01*
X102113613Y-99123134D01*
X102113613Y-97501866D01*
X102106858Y-97439684D01*
X102055728Y-97303295D01*
X101968374Y-97186739D01*
X101851818Y-97099385D01*
X101715429Y-97048255D01*
X101653247Y-97041500D01*
X99956979Y-97041500D01*
X99894797Y-97048255D01*
X99758408Y-97099385D01*
X99641852Y-97186739D01*
X99554498Y-97303295D01*
X99551346Y-97311703D01*
X99551345Y-97311705D01*
X99542496Y-97335310D01*
X99499855Y-97392075D01*
X99433294Y-97416775D01*
X99363945Y-97401568D01*
X99357279Y-97397643D01*
X99311525Y-97368775D01*
X99301281Y-97363555D01*
X99124236Y-97292921D01*
X99113198Y-97289651D01*
X98926255Y-97252466D01*
X98914808Y-97251263D01*
X98724220Y-97248768D01*
X98712740Y-97249671D01*
X98524889Y-97281950D01*
X98513769Y-97284930D01*
X98378789Y-97334726D01*
X98367471Y-97343136D01*
X95561292Y-97343136D01*
X95555728Y-97328295D01*
X95468374Y-97211739D01*
X95351818Y-97124385D01*
X95215429Y-97073255D01*
X95153247Y-97066500D01*
X93456979Y-97066500D01*
X93394797Y-97073255D01*
X93258408Y-97124385D01*
X93141852Y-97211739D01*
X93054498Y-97328295D01*
X93051346Y-97336703D01*
X93051345Y-97336705D01*
X93042496Y-97360310D01*
X92999855Y-97417075D01*
X92933294Y-97441775D01*
X92863945Y-97426568D01*
X92857279Y-97422643D01*
X92811525Y-97393775D01*
X92801281Y-97388555D01*
X92624236Y-97317921D01*
X92613198Y-97314651D01*
X92426255Y-97277466D01*
X92414808Y-97276263D01*
X92224220Y-97273768D01*
X92212740Y-97274671D01*
X92024889Y-97306950D01*
X92013769Y-97309930D01*
X91878789Y-97359726D01*
X91867471Y-97368136D01*
X91868433Y-97372635D01*
X92781703Y-98285905D01*
X92815729Y-98348217D01*
X92810664Y-98419032D01*
X92781703Y-98464095D01*
X91876116Y-99369682D01*
X91869356Y-99382062D01*
X91872702Y-99386532D01*
X91958431Y-99423364D01*
X91969374Y-99426919D01*
X92155283Y-99468987D01*
X92166692Y-99470489D01*
X92357161Y-99477972D01*
X92368643Y-99477370D01*
X92557289Y-99450018D01*
X92568472Y-99447334D01*
X92748968Y-99386064D01*
X92759478Y-99381384D01*
X92862777Y-99323533D01*
X92931986Y-99307699D01*
X92998768Y-99331795D01*
X93042326Y-99389237D01*
X93047820Y-99403891D01*
X93054498Y-99421705D01*
X93141852Y-99538261D01*
X93149032Y-99543642D01*
X93149033Y-99543643D01*
X93243809Y-99614674D01*
X93286324Y-99671533D01*
X93291350Y-99742352D01*
X93257290Y-99804645D01*
X93194958Y-99838635D01*
X93168244Y-99841500D01*
X91672792Y-99841500D01*
X91604671Y-99821498D01*
X91583697Y-99804595D01*
X90532870Y-98753767D01*
X90130951Y-98351848D01*
X91201157Y-98351848D01*
X91213623Y-98542047D01*
X91215424Y-98553417D01*
X91262343Y-98738161D01*
X91266184Y-98749007D01*
X91289913Y-98800479D01*
X91299185Y-98811104D01*
X91305077Y-98809351D01*
X91726616Y-98387812D01*
X91734230Y-98373868D01*
X91734099Y-98372035D01*
X91729848Y-98365420D01*
X91308398Y-97943970D01*
X91296018Y-97937210D01*
X91290052Y-97941676D01*
X91287180Y-97947134D01*
X91282779Y-97957758D01*
X91226254Y-98139800D01*
X91223862Y-98151054D01*
X91201458Y-98340347D01*
X91201157Y-98351848D01*
X90130951Y-98351848D01*
X89451320Y-97672217D01*
X89444177Y-97664450D01*
X89414935Y-97629847D01*
X89410529Y-97624633D01*
X89346031Y-97575321D01*
X89343615Y-97573427D01*
X89285583Y-97526768D01*
X89285582Y-97526767D01*
X89280262Y-97522490D01*
X89274143Y-97519453D01*
X89271348Y-97517665D01*
X89270987Y-97517412D01*
X89270620Y-97517210D01*
X89267762Y-97515479D01*
X89262348Y-97511340D01*
X89188736Y-97477014D01*
X89185964Y-97475680D01*
X89179639Y-97472540D01*
X89113186Y-97439553D01*
X89106565Y-97437902D01*
X89103437Y-97436751D01*
X89103044Y-97436587D01*
X89102639Y-97436468D01*
X89099475Y-97435391D01*
X89093296Y-97432510D01*
X89014000Y-97414785D01*
X89011002Y-97414076D01*
X88938821Y-97396079D01*
X88938820Y-97396079D01*
X88932199Y-97394428D01*
X88925378Y-97394237D01*
X88922075Y-97393785D01*
X88921191Y-97393626D01*
X88916308Y-97392948D01*
X88911260Y-97391820D01*
X88905537Y-97391500D01*
X88829156Y-97391500D01*
X88825637Y-97391451D01*
X88745743Y-97389219D01*
X88739039Y-97390498D01*
X88732238Y-97391045D01*
X88732196Y-97390525D01*
X88721875Y-97391500D01*
X88379660Y-97391500D01*
X88311539Y-97371498D01*
X88265046Y-97317842D01*
X88254942Y-97247568D01*
X88284436Y-97182988D01*
X88290565Y-97176405D01*
X93555284Y-91911687D01*
X93617596Y-91877661D01*
X93669500Y-91877312D01*
X93792585Y-91902354D01*
X93792593Y-91902355D01*
X93797656Y-91903385D01*
X93927089Y-91908131D01*
X94023949Y-91911683D01*
X94023953Y-91911683D01*
X94029113Y-91911872D01*
X94034233Y-91911216D01*
X94034235Y-91911216D01*
X94108166Y-91901745D01*
X94258847Y-91882442D01*
X94263795Y-91880957D01*
X94263802Y-91880956D01*
X94475747Y-91817369D01*
X94480690Y-91815886D01*
X94485324Y-91813616D01*
X94684049Y-91716262D01*
X94684052Y-91716260D01*
X94688684Y-91713991D01*
X94877243Y-91579494D01*
X95041303Y-91416005D01*
X95176458Y-91227917D01*
X95208109Y-91163877D01*
X95276784Y-91024922D01*
X95276785Y-91024920D01*
X95279078Y-91020280D01*
X95346408Y-90798671D01*
X95376640Y-90569041D01*
X95377840Y-90519947D01*
X95378245Y-90503365D01*
X95378245Y-90503361D01*
X95378327Y-90500000D01*
X95366980Y-90361981D01*
X95359773Y-90274318D01*
X95359772Y-90274312D01*
X95359349Y-90269167D01*
X95321310Y-90117725D01*
X95304184Y-90049544D01*
X95304183Y-90049540D01*
X95302925Y-90044533D01*
X95291167Y-90017491D01*
X95212630Y-89836868D01*
X95212628Y-89836865D01*
X95210570Y-89832131D01*
X95084764Y-89637665D01*
X94928887Y-89466358D01*
X94924836Y-89463159D01*
X94924832Y-89463155D01*
X94816406Y-89377526D01*
X97862050Y-89377526D01*
X97862274Y-89382192D01*
X97862274Y-89382197D01*
X97866163Y-89463155D01*
X97874947Y-89646019D01*
X97927388Y-89909656D01*
X98018220Y-90162646D01*
X98020432Y-90166762D01*
X98020433Y-90166765D01*
X98043513Y-90209718D01*
X98145450Y-90399431D01*
X98148241Y-90403168D01*
X98148245Y-90403175D01*
X98218044Y-90496646D01*
X98306281Y-90614810D01*
X98309590Y-90618090D01*
X98309595Y-90618096D01*
X98486582Y-90793544D01*
X98497180Y-90804050D01*
X98500942Y-90806808D01*
X98500945Y-90806811D01*
X98548370Y-90841584D01*
X98713954Y-90962995D01*
X98718089Y-90965171D01*
X98718093Y-90965173D01*
X98947698Y-91085975D01*
X98951840Y-91088154D01*
X99094346Y-91137919D01*
X99168679Y-91163877D01*
X99205613Y-91176775D01*
X99210206Y-91177647D01*
X99465109Y-91226042D01*
X99465112Y-91226042D01*
X99469698Y-91226913D01*
X99597370Y-91231929D01*
X99733625Y-91237283D01*
X99733630Y-91237283D01*
X99738293Y-91237466D01*
X99842607Y-91226042D01*
X100000844Y-91208713D01*
X100000850Y-91208712D01*
X100005497Y-91208203D01*
X100010021Y-91207012D01*
X100260918Y-91140956D01*
X100260920Y-91140955D01*
X100265441Y-91139765D01*
X100269738Y-91137919D01*
X100508120Y-91035502D01*
X100508122Y-91035501D01*
X100512414Y-91033657D01*
X100654643Y-90945643D01*
X100737017Y-90894669D01*
X100737021Y-90894666D01*
X100740990Y-90892210D01*
X100946149Y-90718530D01*
X101123382Y-90516434D01*
X101131789Y-90503365D01*
X101266269Y-90294291D01*
X101268797Y-90290361D01*
X101379199Y-90045278D01*
X101416209Y-89914051D01*
X101450893Y-89791072D01*
X101450894Y-89791069D01*
X101452163Y-89786568D01*
X101470043Y-89646019D01*
X101485688Y-89523045D01*
X101485688Y-89523041D01*
X101486086Y-89519915D01*
X101486878Y-89489684D01*
X101488488Y-89428160D01*
X101488571Y-89425000D01*
X101485043Y-89377526D01*
X102862050Y-89377526D01*
X102862274Y-89382192D01*
X102862274Y-89382197D01*
X102866163Y-89463155D01*
X102874947Y-89646019D01*
X102927388Y-89909656D01*
X103018220Y-90162646D01*
X103020432Y-90166762D01*
X103020433Y-90166765D01*
X103043513Y-90209718D01*
X103145450Y-90399431D01*
X103148241Y-90403168D01*
X103148245Y-90403175D01*
X103218044Y-90496646D01*
X103306281Y-90614810D01*
X103309590Y-90618090D01*
X103309595Y-90618096D01*
X103486582Y-90793544D01*
X103497180Y-90804050D01*
X103500942Y-90806808D01*
X103500945Y-90806811D01*
X103548370Y-90841584D01*
X103713954Y-90962995D01*
X103718089Y-90965171D01*
X103718093Y-90965173D01*
X103947698Y-91085975D01*
X103951840Y-91088154D01*
X104094346Y-91137919D01*
X104168679Y-91163877D01*
X104205613Y-91176775D01*
X104210206Y-91177647D01*
X104465109Y-91226042D01*
X104465112Y-91226042D01*
X104469698Y-91226913D01*
X104597370Y-91231929D01*
X104733625Y-91237283D01*
X104733630Y-91237283D01*
X104738293Y-91237466D01*
X104842607Y-91226042D01*
X105000844Y-91208713D01*
X105000850Y-91208712D01*
X105005497Y-91208203D01*
X105010021Y-91207012D01*
X105260918Y-91140956D01*
X105260920Y-91140955D01*
X105265441Y-91139765D01*
X105269738Y-91137919D01*
X105508120Y-91035502D01*
X105508122Y-91035501D01*
X105512414Y-91033657D01*
X105654643Y-90945643D01*
X105737017Y-90894669D01*
X105737021Y-90894666D01*
X105740990Y-90892210D01*
X105946149Y-90718530D01*
X106123382Y-90516434D01*
X106131789Y-90503365D01*
X106266269Y-90294291D01*
X106268797Y-90290361D01*
X106379199Y-90045278D01*
X106416209Y-89914051D01*
X106450893Y-89791072D01*
X106450894Y-89791069D01*
X106452163Y-89786568D01*
X106470043Y-89646019D01*
X106485688Y-89523045D01*
X106485688Y-89523041D01*
X106486086Y-89519915D01*
X106486878Y-89489684D01*
X106488488Y-89428160D01*
X106488571Y-89425000D01*
X106478391Y-89288019D01*
X106468996Y-89161592D01*
X106468996Y-89161591D01*
X106468650Y-89156937D01*
X106467619Y-89152379D01*
X106410361Y-88899331D01*
X106410360Y-88899326D01*
X106409327Y-88894763D01*
X106311902Y-88644238D01*
X106178518Y-88410864D01*
X106012105Y-88199769D01*
X105816317Y-88015591D01*
X105595457Y-87862374D01*
X105591264Y-87860306D01*
X105358564Y-87745551D01*
X105358561Y-87745550D01*
X105354376Y-87743486D01*
X105306745Y-87728239D01*
X105128410Y-87671154D01*
X105098370Y-87661538D01*
X105093763Y-87660788D01*
X105093760Y-87660787D01*
X104837674Y-87619081D01*
X104837675Y-87619081D01*
X104833063Y-87618330D01*
X104702719Y-87616624D01*
X104568961Y-87614873D01*
X104568958Y-87614873D01*
X104564284Y-87614812D01*
X104297937Y-87651060D01*
X104039874Y-87726278D01*
X103795763Y-87838815D01*
X103791854Y-87841378D01*
X103574881Y-87983631D01*
X103574876Y-87983635D01*
X103570968Y-87986197D01*
X103370426Y-88165188D01*
X103198544Y-88371854D01*
X103059096Y-88601656D01*
X103057287Y-88605970D01*
X103057285Y-88605974D01*
X103042942Y-88640179D01*
X102955148Y-88849545D01*
X102888981Y-89110077D01*
X102862050Y-89377526D01*
X101485043Y-89377526D01*
X101478391Y-89288019D01*
X101468996Y-89161592D01*
X101468996Y-89161591D01*
X101468650Y-89156937D01*
X101467619Y-89152379D01*
X101410361Y-88899331D01*
X101410360Y-88899326D01*
X101409327Y-88894763D01*
X101311902Y-88644238D01*
X101178518Y-88410864D01*
X101012105Y-88199769D01*
X100816317Y-88015591D01*
X100595457Y-87862374D01*
X100591264Y-87860306D01*
X100358564Y-87745551D01*
X100358561Y-87745550D01*
X100354376Y-87743486D01*
X100306745Y-87728239D01*
X100128410Y-87671154D01*
X100098370Y-87661538D01*
X100093763Y-87660788D01*
X100093760Y-87660787D01*
X99837674Y-87619081D01*
X99837675Y-87619081D01*
X99833063Y-87618330D01*
X99702719Y-87616624D01*
X99568961Y-87614873D01*
X99568958Y-87614873D01*
X99564284Y-87614812D01*
X99297937Y-87651060D01*
X99039874Y-87726278D01*
X98795763Y-87838815D01*
X98791854Y-87841378D01*
X98574881Y-87983631D01*
X98574876Y-87983635D01*
X98570968Y-87986197D01*
X98370426Y-88165188D01*
X98198544Y-88371854D01*
X98059096Y-88601656D01*
X98057287Y-88605970D01*
X98057285Y-88605974D01*
X98042942Y-88640179D01*
X97955148Y-88849545D01*
X97888981Y-89110077D01*
X97862050Y-89377526D01*
X94816406Y-89377526D01*
X94751178Y-89326012D01*
X94751175Y-89326010D01*
X94747123Y-89322810D01*
X94738607Y-89318109D01*
X94688636Y-89267677D01*
X94673500Y-89207800D01*
X94673500Y-84996884D01*
X94687699Y-84948525D01*
X110321922Y-84948525D01*
X110397386Y-85112218D01*
X110403137Y-85122179D01*
X110518455Y-85285350D01*
X110525921Y-85294092D01*
X110669047Y-85433520D01*
X110677981Y-85440754D01*
X110844112Y-85551760D01*
X110854224Y-85557251D01*
X110983355Y-85612729D01*
X110997355Y-85614420D01*
X111000000Y-85610092D01*
X111000000Y-85600640D01*
X111800000Y-85600640D01*
X111803973Y-85614171D01*
X111810669Y-85615133D01*
X111864283Y-85596934D01*
X111874786Y-85592258D01*
X112049124Y-85494625D01*
X112058596Y-85488115D01*
X112212219Y-85360348D01*
X112220348Y-85352219D01*
X112348115Y-85198596D01*
X112354625Y-85189124D01*
X112452258Y-85014786D01*
X112456934Y-85004283D01*
X112472931Y-84957157D01*
X112473518Y-84943064D01*
X112467488Y-84940000D01*
X111818115Y-84940000D01*
X111802876Y-84944475D01*
X111801671Y-84945865D01*
X111800000Y-84953548D01*
X111800000Y-85600640D01*
X111000000Y-85600640D01*
X111000000Y-84958115D01*
X110995525Y-84942876D01*
X110994135Y-84941671D01*
X110986452Y-84940000D01*
X110336107Y-84940000D01*
X110322576Y-84943973D01*
X110321922Y-84948525D01*
X94687699Y-84948525D01*
X94693502Y-84928763D01*
X94726332Y-84894305D01*
X94769803Y-84863297D01*
X94852243Y-84804494D01*
X95016303Y-84641005D01*
X95151458Y-84452917D01*
X95254078Y-84245280D01*
X95321408Y-84023671D01*
X95351640Y-83794041D01*
X95352183Y-83771827D01*
X95353245Y-83728365D01*
X95353245Y-83728361D01*
X95353327Y-83725000D01*
X95340338Y-83567012D01*
X95334773Y-83499318D01*
X95334772Y-83499312D01*
X95334349Y-83494167D01*
X95299664Y-83356081D01*
X95279184Y-83274544D01*
X95279183Y-83274540D01*
X95277925Y-83269533D01*
X95275866Y-83264797D01*
X95187630Y-83061868D01*
X95187628Y-83061865D01*
X95185570Y-83057131D01*
X95179750Y-83048134D01*
X97531500Y-83048134D01*
X97538255Y-83110316D01*
X97589385Y-83246705D01*
X97676739Y-83363261D01*
X97793295Y-83450615D01*
X97929684Y-83501745D01*
X97991866Y-83508500D01*
X100288134Y-83508500D01*
X100350316Y-83501745D01*
X100486705Y-83450615D01*
X100603261Y-83363261D01*
X100690615Y-83246705D01*
X100741745Y-83110316D01*
X100748500Y-83048134D01*
X100748500Y-81900000D01*
X105146526Y-81900000D01*
X105166391Y-82152403D01*
X105225495Y-82398591D01*
X105227388Y-82403162D01*
X105227389Y-82403164D01*
X105299931Y-82578295D01*
X105322384Y-82632502D01*
X105454672Y-82848376D01*
X105619102Y-83040898D01*
X105811624Y-83205328D01*
X106027498Y-83337616D01*
X106032068Y-83339509D01*
X106032072Y-83339511D01*
X106256836Y-83432611D01*
X106261409Y-83434505D01*
X106328513Y-83450615D01*
X106502784Y-83492454D01*
X106502790Y-83492455D01*
X106507597Y-83493609D01*
X106760000Y-83513474D01*
X107012403Y-83493609D01*
X107017210Y-83492455D01*
X107017216Y-83492454D01*
X107191487Y-83450615D01*
X107258591Y-83434505D01*
X107263164Y-83432611D01*
X107487928Y-83339511D01*
X107487932Y-83339509D01*
X107492502Y-83337616D01*
X107708376Y-83205328D01*
X107900898Y-83040898D01*
X108022830Y-82898134D01*
X110041500Y-82898134D01*
X110048255Y-82960316D01*
X110099385Y-83096705D01*
X110186739Y-83213261D01*
X110303295Y-83300615D01*
X110439684Y-83351745D01*
X110501866Y-83358500D01*
X110678342Y-83358500D01*
X110746463Y-83378502D01*
X110792956Y-83432158D01*
X110803060Y-83502432D01*
X110773566Y-83567012D01*
X110742765Y-83592785D01*
X110726119Y-83602688D01*
X110716807Y-83609453D01*
X110566587Y-83741194D01*
X110558670Y-83749537D01*
X110434975Y-83906443D01*
X110428704Y-83916100D01*
X110335681Y-84092909D01*
X110331272Y-84103551D01*
X110325327Y-84122699D01*
X110325109Y-84136799D01*
X110331841Y-84140000D01*
X112464019Y-84140000D01*
X112477550Y-84136027D01*
X112478615Y-84128621D01*
X112475663Y-84120931D01*
X112387292Y-83941733D01*
X112381282Y-83931925D01*
X112261731Y-83771827D01*
X112254041Y-83763287D01*
X112107315Y-83627654D01*
X112098190Y-83620653D01*
X112051291Y-83591062D01*
X112004353Y-83537796D01*
X111993663Y-83467608D01*
X112022617Y-83402784D01*
X112082021Y-83363904D01*
X112118526Y-83358500D01*
X112298134Y-83358500D01*
X112360316Y-83351745D01*
X112496705Y-83300615D01*
X112613261Y-83213261D01*
X112700615Y-83096705D01*
X112751745Y-82960316D01*
X112758500Y-82898134D01*
X112758500Y-81101866D01*
X112751745Y-81039684D01*
X112700615Y-80903295D01*
X112613261Y-80786739D01*
X112496705Y-80699385D01*
X112360316Y-80648255D01*
X112298134Y-80641500D01*
X110501866Y-80641500D01*
X110439684Y-80648255D01*
X110303295Y-80699385D01*
X110186739Y-80786739D01*
X110099385Y-80903295D01*
X110048255Y-81039684D01*
X110041500Y-81101866D01*
X110041500Y-82898134D01*
X108022830Y-82898134D01*
X108065328Y-82848376D01*
X108197616Y-82632502D01*
X108220070Y-82578295D01*
X108292611Y-82403164D01*
X108292612Y-82403162D01*
X108294505Y-82398591D01*
X108353609Y-82152403D01*
X108373474Y-81900000D01*
X108353609Y-81647597D01*
X108294505Y-81401409D01*
X108197616Y-81167498D01*
X108065328Y-80951624D01*
X107921040Y-80782685D01*
X107904106Y-80762858D01*
X107900898Y-80759102D01*
X107708376Y-80594672D01*
X107492502Y-80462384D01*
X107487932Y-80460491D01*
X107487928Y-80460489D01*
X107263164Y-80367389D01*
X107263162Y-80367388D01*
X107258591Y-80365495D01*
X107173968Y-80345179D01*
X107017216Y-80307546D01*
X107017210Y-80307545D01*
X107012403Y-80306391D01*
X106760000Y-80286526D01*
X106507597Y-80306391D01*
X106502790Y-80307545D01*
X106502784Y-80307546D01*
X106346032Y-80345179D01*
X106261409Y-80365495D01*
X106256838Y-80367388D01*
X106256836Y-80367389D01*
X106032072Y-80460489D01*
X106032068Y-80460491D01*
X106027498Y-80462384D01*
X105811624Y-80594672D01*
X105619102Y-80759102D01*
X105615894Y-80762858D01*
X105598960Y-80782685D01*
X105454672Y-80951624D01*
X105322384Y-81167498D01*
X105225495Y-81401409D01*
X105166391Y-81647597D01*
X105146526Y-81900000D01*
X100748500Y-81900000D01*
X100748500Y-80751866D01*
X100741745Y-80689684D01*
X100690615Y-80553295D01*
X100603261Y-80436739D01*
X100486705Y-80349385D01*
X100350316Y-80298255D01*
X100288134Y-80291500D01*
X97991866Y-80291500D01*
X97929684Y-80298255D01*
X97793295Y-80349385D01*
X97676739Y-80436739D01*
X97589385Y-80553295D01*
X97538255Y-80689684D01*
X97531500Y-80751866D01*
X97531500Y-83048134D01*
X95179750Y-83048134D01*
X95059764Y-82862665D01*
X95050183Y-82852135D01*
X94928481Y-82718387D01*
X94903887Y-82691358D01*
X94899836Y-82688159D01*
X94899832Y-82688155D01*
X94726177Y-82551011D01*
X94726172Y-82551008D01*
X94722123Y-82547810D01*
X94717607Y-82545317D01*
X94717604Y-82545315D01*
X94523879Y-82438373D01*
X94523875Y-82438371D01*
X94519355Y-82435876D01*
X94514486Y-82434152D01*
X94514482Y-82434150D01*
X94305903Y-82360288D01*
X94305899Y-82360287D01*
X94301028Y-82358562D01*
X94295935Y-82357655D01*
X94295932Y-82357654D01*
X94078095Y-82318851D01*
X94078089Y-82318850D01*
X94073006Y-82317945D01*
X94000096Y-82317054D01*
X93846581Y-82315179D01*
X93846579Y-82315179D01*
X93841411Y-82315116D01*
X93612464Y-82350150D01*
X93392314Y-82422106D01*
X93387726Y-82424494D01*
X93387722Y-82424496D01*
X93191461Y-82526663D01*
X93186872Y-82529052D01*
X93182739Y-82532155D01*
X93182736Y-82532157D01*
X93043469Y-82636722D01*
X93001655Y-82668117D01*
X92984170Y-82686414D01*
X92922646Y-82721844D01*
X92851733Y-82718387D01*
X92793947Y-82677141D01*
X92775094Y-82643592D01*
X92753768Y-82586705D01*
X92753767Y-82586703D01*
X92750615Y-82578295D01*
X92663261Y-82461739D01*
X92546705Y-82374385D01*
X92410316Y-82323255D01*
X92348134Y-82316500D01*
X90451866Y-82316500D01*
X90389684Y-82323255D01*
X90253295Y-82374385D01*
X90136739Y-82461739D01*
X90049385Y-82578295D01*
X89998255Y-82714684D01*
X89991500Y-82776866D01*
X89991500Y-84673134D01*
X89998255Y-84735316D01*
X90049385Y-84871705D01*
X90136739Y-84988261D01*
X90253295Y-85075615D01*
X90389684Y-85126745D01*
X90451866Y-85133500D01*
X92348134Y-85133500D01*
X92410316Y-85126745D01*
X92546705Y-85075615D01*
X92663261Y-84988261D01*
X92750615Y-84871705D01*
X92775180Y-84806178D01*
X92817822Y-84749414D01*
X92884383Y-84724714D01*
X92953732Y-84739921D01*
X92973647Y-84753464D01*
X93038724Y-84807492D01*
X93129349Y-84882730D01*
X93194072Y-84920551D01*
X93242794Y-84972189D01*
X93256500Y-85029338D01*
X93256500Y-89207586D01*
X93236498Y-89275707D01*
X93206153Y-89308346D01*
X93046576Y-89428160D01*
X93026655Y-89443117D01*
X93009170Y-89461414D01*
X92947646Y-89496844D01*
X92876733Y-89493387D01*
X92818947Y-89452141D01*
X92800094Y-89418592D01*
X92778768Y-89361705D01*
X92778767Y-89361703D01*
X92775615Y-89353295D01*
X92688261Y-89236739D01*
X92571705Y-89149385D01*
X92435316Y-89098255D01*
X92373134Y-89091500D01*
X90476866Y-89091500D01*
X90414684Y-89098255D01*
X90278295Y-89149385D01*
X90161739Y-89236739D01*
X90074385Y-89353295D01*
X90023255Y-89489684D01*
X90016500Y-89551866D01*
X90016500Y-91448134D01*
X90023255Y-91510316D01*
X90074385Y-91646705D01*
X90161739Y-91763261D01*
X90278295Y-91850615D01*
X90414684Y-91901745D01*
X90476866Y-91908500D01*
X91250340Y-91908500D01*
X91318461Y-91928502D01*
X91364954Y-91982158D01*
X91375058Y-92052432D01*
X91345564Y-92117012D01*
X91339435Y-92123595D01*
X87333435Y-96129595D01*
X87271123Y-96163621D01*
X87244340Y-96166500D01*
X85742708Y-96166500D01*
X85674587Y-96146498D01*
X85662393Y-96137585D01*
X85614851Y-96098255D01*
X85588580Y-96076522D01*
X85583161Y-96073592D01*
X85583158Y-96073590D01*
X85493291Y-96025000D01*
X85423231Y-95987119D01*
X85243666Y-95931534D01*
X85237541Y-95930890D01*
X85237540Y-95930890D01*
X85062852Y-95912529D01*
X85062851Y-95912529D01*
X85056724Y-95911885D01*
X84979673Y-95918897D01*
X84875665Y-95928363D01*
X84875662Y-95928364D01*
X84869526Y-95928922D01*
X84863620Y-95930660D01*
X84863616Y-95930661D01*
X84771610Y-95957740D01*
X84689202Y-95981994D01*
X84522621Y-96069080D01*
X84376128Y-96186864D01*
X84372170Y-96191582D01*
X84372167Y-96191584D01*
X84334278Y-96236739D01*
X84255302Y-96330859D01*
X84252338Y-96336251D01*
X84252335Y-96336255D01*
X84238345Y-96361703D01*
X84164746Y-96495580D01*
X84162885Y-96501447D01*
X84162884Y-96501449D01*
X84147326Y-96550494D01*
X84107909Y-96674752D01*
X84086956Y-96861552D01*
X84087472Y-96867696D01*
X84102098Y-97041869D01*
X84102685Y-97048865D01*
X84139561Y-97177466D01*
X84154497Y-97229555D01*
X84152033Y-97230261D01*
X84157489Y-97289821D01*
X84124714Y-97352800D01*
X84063094Y-97388062D01*
X84033859Y-97391500D01*
X82159453Y-97391500D01*
X82099525Y-97376336D01*
X82092680Y-97372635D01*
X82073231Y-97362119D01*
X81893666Y-97306534D01*
X81887541Y-97305890D01*
X81887540Y-97305890D01*
X81712852Y-97287529D01*
X81712851Y-97287529D01*
X81706724Y-97286885D01*
X81640402Y-97292921D01*
X81525665Y-97303363D01*
X81525662Y-97303364D01*
X81519526Y-97303922D01*
X81513620Y-97305660D01*
X81513616Y-97305661D01*
X81412878Y-97335310D01*
X81339202Y-97356994D01*
X81302204Y-97376336D01*
X81205549Y-97426866D01*
X81172621Y-97444080D01*
X81026128Y-97561864D01*
X81022170Y-97566582D01*
X81022167Y-97566584D01*
X80940048Y-97664450D01*
X80905302Y-97705859D01*
X80902338Y-97711251D01*
X80902335Y-97711255D01*
X80887594Y-97738069D01*
X80814746Y-97870580D01*
X80812885Y-97876447D01*
X80812884Y-97876449D01*
X80788978Y-97951811D01*
X80757909Y-98049752D01*
X80736956Y-98236552D01*
X79758500Y-98236552D01*
X79758500Y-92218012D01*
X79778502Y-92149891D01*
X79789119Y-92135681D01*
X79799552Y-92123595D01*
X79837023Y-92080184D01*
X79929870Y-91916744D01*
X79989203Y-91738382D01*
X80012762Y-91551892D01*
X80013138Y-91525000D01*
X79994795Y-91337926D01*
X79940465Y-91157977D01*
X79852218Y-90992008D01*
X79733415Y-90846340D01*
X79669596Y-90793544D01*
X79593329Y-90730450D01*
X79593324Y-90730447D01*
X79588580Y-90726522D01*
X79583161Y-90723592D01*
X79583158Y-90723590D01*
X79481828Y-90668802D01*
X79423231Y-90637119D01*
X79243666Y-90581534D01*
X79237541Y-90580890D01*
X79237540Y-90580890D01*
X79062852Y-90562529D01*
X79062851Y-90562529D01*
X79056724Y-90561885D01*
X78979673Y-90568897D01*
X78875665Y-90578363D01*
X78875662Y-90578364D01*
X78869526Y-90578922D01*
X78863620Y-90580660D01*
X78863616Y-90580661D01*
X78760289Y-90611072D01*
X78689202Y-90631994D01*
X78683742Y-90634848D01*
X78683743Y-90634848D01*
X78530399Y-90715014D01*
X78522621Y-90719080D01*
X78376128Y-90836864D01*
X78372170Y-90841582D01*
X78372167Y-90841584D01*
X78329687Y-90892210D01*
X78255302Y-90980859D01*
X78252338Y-90986251D01*
X78252335Y-90986255D01*
X78224152Y-91037520D01*
X78164746Y-91145580D01*
X78162885Y-91151447D01*
X78162884Y-91151449D01*
X78138887Y-91227096D01*
X78107909Y-91324752D01*
X78086956Y-91511552D01*
X78087472Y-91517696D01*
X78101141Y-91680475D01*
X78102685Y-91698865D01*
X78121150Y-91763261D01*
X78146199Y-91850615D01*
X78154497Y-91879555D01*
X78157312Y-91885032D01*
X78157313Y-91885035D01*
X78237603Y-92041263D01*
X78240418Y-92046740D01*
X78244241Y-92051564D01*
X78244244Y-92051568D01*
X78314245Y-92139886D01*
X78340883Y-92205696D01*
X78341500Y-92218151D01*
X78341500Y-104256088D01*
X78341208Y-104264658D01*
X78338015Y-104311502D01*
X78337275Y-104322352D01*
X78338580Y-104329829D01*
X78338580Y-104329830D01*
X78348261Y-104385299D01*
X78349219Y-104391789D01*
X78352715Y-104420671D01*
X78341041Y-104490698D01*
X78293359Y-104543300D01*
X78224807Y-104561772D01*
X78155357Y-104539017D01*
X78086263Y-104490637D01*
X78086257Y-104490633D01*
X78081749Y-104487477D01*
X78076767Y-104485154D01*
X78076762Y-104485151D01*
X77879225Y-104393039D01*
X77879224Y-104393039D01*
X77874243Y-104390716D01*
X77868935Y-104389294D01*
X77868933Y-104389293D01*
X77658402Y-104332881D01*
X77658400Y-104332881D01*
X77653087Y-104331457D01*
X77425000Y-104311502D01*
X77196913Y-104331457D01*
X77191600Y-104332881D01*
X77191598Y-104332881D01*
X76981067Y-104389293D01*
X76981065Y-104389294D01*
X76975757Y-104390716D01*
X76970776Y-104393039D01*
X76970775Y-104393039D01*
X76773238Y-104485151D01*
X76773233Y-104485154D01*
X76768251Y-104487477D01*
X76688528Y-104543300D01*
X76585211Y-104615643D01*
X76585208Y-104615645D01*
X76580700Y-104618802D01*
X76418802Y-104780700D01*
X76415645Y-104785208D01*
X76415643Y-104785211D01*
X76370998Y-104848971D01*
X76287477Y-104968251D01*
X76285154Y-104973233D01*
X76285151Y-104973238D01*
X76196531Y-105163287D01*
X76190716Y-105175757D01*
X76189294Y-105181065D01*
X76189293Y-105181067D01*
X76132883Y-105391591D01*
X76131457Y-105396913D01*
X76111502Y-105625000D01*
X73529494Y-105625000D01*
X73529373Y-105621305D01*
X73511743Y-105429439D01*
X73509645Y-105418118D01*
X73457906Y-105234667D01*
X73453785Y-105223928D01*
X73441311Y-105198633D01*
X73431764Y-105188256D01*
X73425331Y-105190354D01*
X73003497Y-105612188D01*
X72995883Y-105626132D01*
X71852881Y-105626132D01*
X71854117Y-105623868D01*
X71853986Y-105622035D01*
X71849735Y-105615420D01*
X71428285Y-105193970D01*
X71415905Y-105187210D01*
X71409939Y-105191676D01*
X71407067Y-105197134D01*
X71402666Y-105207758D01*
X71346141Y-105389800D01*
X71343749Y-105401054D01*
X71321345Y-105590347D01*
X71321044Y-105601848D01*
X70180122Y-105601848D01*
X71163834Y-104618136D01*
X71987358Y-104618136D01*
X71988320Y-104622635D01*
X72412188Y-105046503D01*
X72426132Y-105054117D01*
X72427965Y-105053986D01*
X72434580Y-105049735D01*
X72854453Y-104629862D01*
X72861213Y-104617482D01*
X72858175Y-104613423D01*
X72744123Y-104567921D01*
X72733085Y-104564651D01*
X72546142Y-104527466D01*
X72534695Y-104526263D01*
X72344107Y-104523768D01*
X72332627Y-104524671D01*
X72144776Y-104556950D01*
X72133656Y-104559930D01*
X71998676Y-104609726D01*
X71987358Y-104618136D01*
X71163834Y-104618136D01*
X76012270Y-99769700D01*
X76074582Y-99735674D01*
X76091695Y-99733167D01*
X76136568Y-99729714D01*
X76211106Y-99723979D01*
X76211111Y-99723978D01*
X76217247Y-99723506D01*
X76223179Y-99721850D01*
X76223183Y-99721849D01*
X76392350Y-99674616D01*
X76392353Y-99674615D01*
X76398294Y-99672956D01*
X76403798Y-99670176D01*
X76403800Y-99670175D01*
X76560574Y-99590983D01*
X76560576Y-99590982D01*
X76566075Y-99588204D01*
X76714199Y-99472477D01*
X76735902Y-99447334D01*
X76832994Y-99334852D01*
X76832995Y-99334850D01*
X76837023Y-99330184D01*
X76929870Y-99166744D01*
X76989203Y-98988382D01*
X77012762Y-98801892D01*
X77013138Y-98775000D01*
X76994795Y-98587926D01*
X76940465Y-98407977D01*
X76852218Y-98242008D01*
X76733415Y-98096340D01*
X76677100Y-98049752D01*
X76593329Y-97980450D01*
X76593324Y-97980447D01*
X76588580Y-97976522D01*
X76583161Y-97973592D01*
X76583158Y-97973590D01*
X76507639Y-97932758D01*
X76423231Y-97887119D01*
X76243666Y-97831534D01*
X76237541Y-97830890D01*
X76237540Y-97830890D01*
X76062852Y-97812529D01*
X76062851Y-97812529D01*
X76056724Y-97811885D01*
X75979673Y-97818897D01*
X75875665Y-97828363D01*
X75875662Y-97828364D01*
X75869526Y-97828922D01*
X75863620Y-97830660D01*
X75863616Y-97830661D01*
X75802553Y-97848633D01*
X75689202Y-97881994D01*
X75522621Y-97969080D01*
X75376128Y-98086864D01*
X75372170Y-98091582D01*
X75372167Y-98091584D01*
X75293023Y-98185905D01*
X75255302Y-98230859D01*
X75252338Y-98236251D01*
X75252335Y-98236255D01*
X75195070Y-98340420D01*
X75164746Y-98395580D01*
X75162885Y-98401447D01*
X75162884Y-98401449D01*
X75156989Y-98420032D01*
X75107909Y-98574752D01*
X75103952Y-98610035D01*
X75100779Y-98638320D01*
X75073309Y-98703787D01*
X75064668Y-98713361D01*
X69647001Y-104131029D01*
X64308380Y-109469650D01*
X64246068Y-109503676D01*
X64175253Y-109498611D01*
X64125650Y-109464867D01*
X64041253Y-109371134D01*
X63886752Y-109258882D01*
X63880724Y-109256198D01*
X63880722Y-109256197D01*
X63718319Y-109183891D01*
X63718318Y-109183891D01*
X63712288Y-109181206D01*
X63618887Y-109161353D01*
X63531944Y-109142872D01*
X63531939Y-109142872D01*
X63525487Y-109141500D01*
X63334513Y-109141500D01*
X63328061Y-109142872D01*
X63328056Y-109142872D01*
X63241112Y-109161353D01*
X63147712Y-109181206D01*
X63141682Y-109183891D01*
X63141681Y-109183891D01*
X62979278Y-109256197D01*
X62979276Y-109256198D01*
X62973248Y-109258882D01*
X62818747Y-109371134D01*
X62814329Y-109376041D01*
X62814325Y-109376045D01*
X62701216Y-109501666D01*
X62690960Y-109513056D01*
X62687661Y-109518769D01*
X62687658Y-109518774D01*
X62609840Y-109653559D01*
X62558457Y-109702552D01*
X62488744Y-109715988D01*
X62422833Y-109689601D01*
X62411626Y-109679655D01*
X61763830Y-109031860D01*
X61729805Y-108969547D01*
X61726925Y-108942764D01*
X61726925Y-108712728D01*
X62311007Y-108712728D01*
X62311079Y-108713501D01*
X62314719Y-108719033D01*
X62417188Y-108821502D01*
X62431132Y-108829116D01*
X62432965Y-108828985D01*
X62439580Y-108824734D01*
X62541945Y-108722369D01*
X62548705Y-108709989D01*
X62548030Y-108709088D01*
X62542604Y-108706504D01*
X62525747Y-108702270D01*
X62510778Y-108700379D01*
X62356547Y-108699572D01*
X62341571Y-108701304D01*
X62323236Y-108705706D01*
X62311007Y-108712728D01*
X61726925Y-108712728D01*
X61726925Y-108369337D01*
X61746927Y-108301216D01*
X61800583Y-108254723D01*
X61870857Y-108244619D01*
X61902664Y-108253570D01*
X61941790Y-108270380D01*
X61952738Y-108273937D01*
X62156854Y-108320124D01*
X62168264Y-108321626D01*
X62377387Y-108329842D01*
X62388869Y-108329240D01*
X62595982Y-108299211D01*
X62607178Y-108296523D01*
X62805350Y-108229252D01*
X62815857Y-108224574D01*
X62824429Y-108219773D01*
X62834294Y-108209695D01*
X62831338Y-108202023D01*
X61843410Y-107214095D01*
X61809384Y-107151783D01*
X61811219Y-107126132D01*
X62890883Y-107126132D01*
X62891014Y-107127966D01*
X62895265Y-107134580D01*
X63393109Y-107632424D01*
X63405489Y-107639184D01*
X63412069Y-107634258D01*
X63419574Y-107620857D01*
X63424252Y-107610350D01*
X63491523Y-107412178D01*
X63494211Y-107400982D01*
X63524536Y-107191829D01*
X63525166Y-107184447D01*
X63526626Y-107128704D01*
X63526383Y-107121305D01*
X63507045Y-106910849D01*
X63504947Y-106899528D01*
X63448142Y-106698113D01*
X63444017Y-106687366D01*
X63412166Y-106622780D01*
X63402619Y-106612401D01*
X63396186Y-106614500D01*
X62898496Y-107112189D01*
X62890883Y-107126132D01*
X61811219Y-107126132D01*
X61814449Y-107080968D01*
X61843410Y-107035905D01*
X62320000Y-106559315D01*
X62827631Y-106051683D01*
X62834391Y-106039303D01*
X62831353Y-106035244D01*
X62712624Y-105987877D01*
X62656765Y-105944057D01*
X62633464Y-105876993D01*
X62650120Y-105807977D01*
X62670219Y-105781752D01*
X62889067Y-105562904D01*
X62951379Y-105528878D01*
X62978162Y-105525999D01*
X67203589Y-105525999D01*
X67212159Y-105526291D01*
X67262277Y-105529708D01*
X67262281Y-105529708D01*
X67269853Y-105530224D01*
X67277330Y-105528919D01*
X67277331Y-105528919D01*
X67323100Y-105520931D01*
X67332804Y-105519237D01*
X67339322Y-105518276D01*
X67402743Y-105510601D01*
X67409844Y-105507918D01*
X67412453Y-105507277D01*
X67428763Y-105502814D01*
X67431299Y-105502049D01*
X67438785Y-105500742D01*
X67497301Y-105475055D01*
X67503405Y-105472564D01*
X67556049Y-105452672D01*
X67556050Y-105452671D01*
X67563157Y-105449986D01*
X67569420Y-105445682D01*
X67571786Y-105444445D01*
X67586598Y-105436200D01*
X67588852Y-105434867D01*
X67595806Y-105431814D01*
X67646503Y-105392912D01*
X67651833Y-105389040D01*
X67698221Y-105357160D01*
X67698226Y-105357155D01*
X67704482Y-105352856D01*
X67714393Y-105341733D01*
X67745936Y-105306329D01*
X67750917Y-105301053D01*
X76031854Y-97020117D01*
X76094166Y-96986091D01*
X76111280Y-96983583D01*
X76162321Y-96979656D01*
X76236104Y-96973979D01*
X76236107Y-96973978D01*
X76242247Y-96973506D01*
X76327378Y-96949737D01*
X76417350Y-96924616D01*
X76417353Y-96924615D01*
X76423294Y-96922956D01*
X76428798Y-96920176D01*
X76428800Y-96920175D01*
X76585574Y-96840983D01*
X76585576Y-96840982D01*
X76591075Y-96838204D01*
X76739199Y-96722477D01*
X76743225Y-96717813D01*
X76857994Y-96584852D01*
X76857995Y-96584850D01*
X76862023Y-96580184D01*
X76954870Y-96416744D01*
X77014203Y-96238382D01*
X77037762Y-96051892D01*
X77038138Y-96025000D01*
X77019795Y-95837926D01*
X76965465Y-95657977D01*
X76877218Y-95492008D01*
X76758415Y-95346340D01*
X76704603Y-95301823D01*
X76618329Y-95230450D01*
X76618324Y-95230447D01*
X76613580Y-95226522D01*
X76608161Y-95223592D01*
X76608158Y-95223590D01*
X76538671Y-95186019D01*
X76448231Y-95137119D01*
X76268666Y-95081534D01*
X76262541Y-95080890D01*
X76262540Y-95080890D01*
X76087852Y-95062529D01*
X76087851Y-95062529D01*
X76081724Y-95061885D01*
X76004673Y-95068897D01*
X75900665Y-95078363D01*
X75900662Y-95078364D01*
X75894526Y-95078922D01*
X75888620Y-95080660D01*
X75888616Y-95080661D01*
X75755278Y-95119905D01*
X75714202Y-95131994D01*
X75547621Y-95219080D01*
X75401128Y-95336864D01*
X75397170Y-95341582D01*
X75397167Y-95341584D01*
X75309797Y-95445708D01*
X75280302Y-95480859D01*
X75277338Y-95486251D01*
X75277335Y-95486255D01*
X75271176Y-95497459D01*
X75189746Y-95645580D01*
X75132909Y-95824752D01*
X75131431Y-95837926D01*
X75126410Y-95882691D01*
X75098939Y-95948157D01*
X75090290Y-95957740D01*
X66975936Y-104072094D01*
X66913624Y-104106120D01*
X66886841Y-104108999D01*
X65409500Y-104108999D01*
X65341379Y-104088997D01*
X65294886Y-104035341D01*
X65283500Y-103982999D01*
X65283500Y-102326866D01*
X65276745Y-102264684D01*
X65225615Y-102128295D01*
X65138261Y-102011739D01*
X65021705Y-101924385D01*
X64885316Y-101873255D01*
X64823134Y-101866500D01*
X63026866Y-101866500D01*
X62964684Y-101873255D01*
X62828295Y-101924385D01*
X62711739Y-102011739D01*
X62624385Y-102128295D01*
X62621233Y-102136703D01*
X62579919Y-102246907D01*
X62537277Y-102303671D01*
X62470716Y-102328371D01*
X62401367Y-102313163D01*
X62368743Y-102287476D01*
X62318151Y-102231875D01*
X62318142Y-102231866D01*
X62314670Y-102228051D01*
X62310619Y-102224852D01*
X62310615Y-102224848D01*
X62143414Y-102092800D01*
X62143410Y-102092798D01*
X62139359Y-102089598D01*
X61943789Y-101981638D01*
X61938920Y-101979914D01*
X61938916Y-101979912D01*
X61738087Y-101908795D01*
X61738083Y-101908794D01*
X61733212Y-101907069D01*
X61728119Y-101906162D01*
X61728116Y-101906161D01*
X61518373Y-101868800D01*
X61518367Y-101868799D01*
X61513284Y-101867894D01*
X61439452Y-101866992D01*
X61295081Y-101865228D01*
X61295079Y-101865228D01*
X61289911Y-101865165D01*
X61069091Y-101898955D01*
X60856756Y-101968357D01*
X60826443Y-101984137D01*
X60703274Y-102048255D01*
X60658607Y-102071507D01*
X60654474Y-102074610D01*
X60654471Y-102074612D01*
X60499835Y-102190716D01*
X60479965Y-102205635D01*
X60440525Y-102246907D01*
X60386280Y-102303671D01*
X60325629Y-102367138D01*
X60322715Y-102371410D01*
X60322714Y-102371411D01*
X60260781Y-102462202D01*
X60199743Y-102551680D01*
X60105688Y-102754305D01*
X60045989Y-102969570D01*
X60022251Y-103191695D01*
X58883500Y-103191695D01*
X58883500Y-98348134D01*
X59691500Y-98348134D01*
X59698255Y-98410316D01*
X59749385Y-98546705D01*
X59836739Y-98663261D01*
X59953295Y-98750615D01*
X60089684Y-98801745D01*
X60151866Y-98808500D01*
X61948134Y-98808500D01*
X62010316Y-98801745D01*
X62146705Y-98750615D01*
X62263261Y-98663261D01*
X62350615Y-98546705D01*
X62381584Y-98464095D01*
X62394598Y-98429382D01*
X62437240Y-98372618D01*
X62503802Y-98347918D01*
X62573150Y-98363126D01*
X62607817Y-98391114D01*
X62636250Y-98423938D01*
X62808126Y-98566632D01*
X63001000Y-98679338D01*
X63005825Y-98681180D01*
X63005826Y-98681181D01*
X63065025Y-98703787D01*
X63209692Y-98759030D01*
X63214760Y-98760061D01*
X63214763Y-98760062D01*
X63322017Y-98781883D01*
X63428597Y-98803567D01*
X63433772Y-98803757D01*
X63433774Y-98803757D01*
X63646673Y-98811564D01*
X63646677Y-98811564D01*
X63651837Y-98811753D01*
X63656957Y-98811097D01*
X63656959Y-98811097D01*
X63868288Y-98784025D01*
X63868289Y-98784025D01*
X63873416Y-98783368D01*
X63878366Y-98781883D01*
X64082429Y-98720661D01*
X64082434Y-98720659D01*
X64087384Y-98719174D01*
X64287994Y-98620896D01*
X64469860Y-98491173D01*
X64628096Y-98333489D01*
X64663241Y-98284580D01*
X64755435Y-98156277D01*
X64758453Y-98152077D01*
X64771315Y-98126054D01*
X64855136Y-97956453D01*
X64855137Y-97956451D01*
X64857430Y-97951811D01*
X64891931Y-97838256D01*
X64920865Y-97743023D01*
X64920865Y-97743021D01*
X64922370Y-97738069D01*
X64951529Y-97516590D01*
X64953156Y-97450000D01*
X64934852Y-97227361D01*
X64880431Y-97010702D01*
X64791354Y-96805840D01*
X64785706Y-96797110D01*
X64765496Y-96729053D01*
X64785288Y-96660871D01*
X64802400Y-96639571D01*
X71080528Y-90361443D01*
X71086793Y-90355589D01*
X71124664Y-90322552D01*
X71124665Y-90322551D01*
X71130385Y-90317561D01*
X71167136Y-90265271D01*
X71171028Y-90260029D01*
X71210476Y-90209718D01*
X71213600Y-90202799D01*
X71214988Y-90200507D01*
X71223357Y-90185835D01*
X71224622Y-90183475D01*
X71228990Y-90177261D01*
X71252203Y-90117723D01*
X71254759Y-90111642D01*
X71277918Y-90060352D01*
X71281045Y-90053427D01*
X71282430Y-90045954D01*
X71283234Y-90043388D01*
X71287855Y-90027165D01*
X71288520Y-90024573D01*
X71291282Y-90017491D01*
X71299622Y-89954139D01*
X71300654Y-89947623D01*
X71310911Y-89892281D01*
X71312295Y-89884814D01*
X71308709Y-89822620D01*
X71308500Y-89815367D01*
X71308500Y-87718012D01*
X71328502Y-87649891D01*
X71339119Y-87635681D01*
X71382994Y-87584852D01*
X71382995Y-87584850D01*
X71387023Y-87580184D01*
X71479870Y-87416744D01*
X71539203Y-87238382D01*
X71562762Y-87051892D01*
X71563138Y-87025000D01*
X71544795Y-86837926D01*
X71490465Y-86657977D01*
X71402218Y-86492008D01*
X71283415Y-86346340D01*
X71229603Y-86301823D01*
X71143329Y-86230450D01*
X71143324Y-86230447D01*
X71138580Y-86226522D01*
X71133161Y-86223592D01*
X71133158Y-86223590D01*
X71063671Y-86186019D01*
X70973231Y-86137119D01*
X70793666Y-86081534D01*
X70787541Y-86080890D01*
X70787540Y-86080890D01*
X70612852Y-86062529D01*
X70612851Y-86062529D01*
X70606724Y-86061885D01*
X70529673Y-86068897D01*
X70425665Y-86078363D01*
X70425662Y-86078364D01*
X70419526Y-86078922D01*
X70413620Y-86080660D01*
X70413616Y-86080661D01*
X70280278Y-86119905D01*
X70239202Y-86131994D01*
X70072621Y-86219080D01*
X69926128Y-86336864D01*
X69922170Y-86341582D01*
X69922167Y-86341584D01*
X69834797Y-86445708D01*
X69805302Y-86480859D01*
X69802338Y-86486251D01*
X69802335Y-86486255D01*
X69796176Y-86497459D01*
X69714746Y-86645580D01*
X69657909Y-86824752D01*
X69636956Y-87011552D01*
X69652685Y-87198865D01*
X69704497Y-87379555D01*
X69707312Y-87385032D01*
X69707313Y-87385035D01*
X69742353Y-87453215D01*
X69790418Y-87546740D01*
X69794241Y-87551564D01*
X69794244Y-87551568D01*
X69864245Y-87639886D01*
X69890883Y-87705696D01*
X69891500Y-87718151D01*
X69891500Y-89494340D01*
X69871498Y-89562461D01*
X69854595Y-89583435D01*
X63350506Y-96087524D01*
X63288194Y-96121550D01*
X63280488Y-96122976D01*
X63274091Y-96123955D01*
X63061756Y-96193357D01*
X62863607Y-96296507D01*
X62859474Y-96299610D01*
X62859471Y-96299612D01*
X62703466Y-96416744D01*
X62684965Y-96430635D01*
X62628537Y-96489684D01*
X62604283Y-96515064D01*
X62542759Y-96550494D01*
X62471846Y-96547037D01*
X62414060Y-96505791D01*
X62395207Y-96472243D01*
X62353767Y-96361703D01*
X62350615Y-96353295D01*
X62263261Y-96236739D01*
X62146705Y-96149385D01*
X62010316Y-96098255D01*
X61948134Y-96091500D01*
X60151866Y-96091500D01*
X60089684Y-96098255D01*
X59953295Y-96149385D01*
X59836739Y-96236739D01*
X59749385Y-96353295D01*
X59698255Y-96489684D01*
X59691500Y-96551866D01*
X59691500Y-98348134D01*
X58883500Y-98348134D01*
X58883500Y-92404357D01*
X58903502Y-92336236D01*
X58957158Y-92289743D01*
X59027432Y-92279639D01*
X59092012Y-92309133D01*
X59112713Y-92332086D01*
X59243802Y-92519300D01*
X59405700Y-92681198D01*
X59410208Y-92684355D01*
X59410211Y-92684357D01*
X59488389Y-92739098D01*
X59593251Y-92812523D01*
X59598233Y-92814846D01*
X59598238Y-92814849D01*
X59795775Y-92906961D01*
X59800757Y-92909284D01*
X59806065Y-92910706D01*
X59806067Y-92910707D01*
X60016598Y-92967119D01*
X60016600Y-92967119D01*
X60021913Y-92968543D01*
X60250000Y-92988498D01*
X60478087Y-92968543D01*
X60483400Y-92967119D01*
X60483402Y-92967119D01*
X60693933Y-92910707D01*
X60693935Y-92910706D01*
X60699243Y-92909284D01*
X60704225Y-92906961D01*
X60901762Y-92814849D01*
X60901767Y-92814846D01*
X60906749Y-92812523D01*
X61011611Y-92739098D01*
X61089789Y-92684357D01*
X61089792Y-92684355D01*
X61094300Y-92681198D01*
X61256198Y-92519300D01*
X61387523Y-92331749D01*
X61389846Y-92326767D01*
X61389849Y-92326762D01*
X61481961Y-92129225D01*
X61481961Y-92129224D01*
X61484284Y-92124243D01*
X61503758Y-92051568D01*
X61542119Y-91908402D01*
X61542119Y-91908400D01*
X61543543Y-91903087D01*
X61563498Y-91675000D01*
X63936502Y-91675000D01*
X63956457Y-91903087D01*
X63957881Y-91908400D01*
X63957881Y-91908402D01*
X63996243Y-92051568D01*
X64015716Y-92124243D01*
X64018039Y-92129224D01*
X64018039Y-92129225D01*
X64110151Y-92326762D01*
X64110154Y-92326767D01*
X64112477Y-92331749D01*
X64243802Y-92519300D01*
X64405700Y-92681198D01*
X64410208Y-92684355D01*
X64410211Y-92684357D01*
X64488389Y-92739098D01*
X64593251Y-92812523D01*
X64598233Y-92814846D01*
X64598238Y-92814849D01*
X64795775Y-92906961D01*
X64800757Y-92909284D01*
X64806065Y-92910706D01*
X64806067Y-92910707D01*
X65016598Y-92967119D01*
X65016600Y-92967119D01*
X65021913Y-92968543D01*
X65250000Y-92988498D01*
X65478087Y-92968543D01*
X65483400Y-92967119D01*
X65483402Y-92967119D01*
X65693933Y-92910707D01*
X65693935Y-92910706D01*
X65699243Y-92909284D01*
X65704225Y-92906961D01*
X65901762Y-92814849D01*
X65901767Y-92814846D01*
X65906749Y-92812523D01*
X66011611Y-92739098D01*
X66089789Y-92684357D01*
X66089792Y-92684355D01*
X66094300Y-92681198D01*
X66256198Y-92519300D01*
X66387523Y-92331749D01*
X66389846Y-92326767D01*
X66389849Y-92326762D01*
X66481961Y-92129225D01*
X66481961Y-92129224D01*
X66484284Y-92124243D01*
X66503758Y-92051568D01*
X66542119Y-91908402D01*
X66542119Y-91908400D01*
X66543543Y-91903087D01*
X66563498Y-91675000D01*
X66543543Y-91446913D01*
X66534137Y-91411808D01*
X66485707Y-91231067D01*
X66485706Y-91231065D01*
X66484284Y-91225757D01*
X66476336Y-91208713D01*
X66389849Y-91023238D01*
X66389846Y-91023233D01*
X66387523Y-91018251D01*
X66270492Y-90851114D01*
X66259357Y-90835211D01*
X66259355Y-90835208D01*
X66256198Y-90830700D01*
X66094300Y-90668802D01*
X66089792Y-90665645D01*
X66089789Y-90665643D01*
X65972271Y-90583356D01*
X65906749Y-90537477D01*
X65901767Y-90535154D01*
X65901762Y-90535151D01*
X65704225Y-90443039D01*
X65704224Y-90443039D01*
X65699243Y-90440716D01*
X65693935Y-90439294D01*
X65693933Y-90439293D01*
X65483402Y-90382881D01*
X65483400Y-90382881D01*
X65478087Y-90381457D01*
X65250000Y-90361502D01*
X65021913Y-90381457D01*
X65016600Y-90382881D01*
X65016598Y-90382881D01*
X64806067Y-90439293D01*
X64806065Y-90439294D01*
X64800757Y-90440716D01*
X64795776Y-90443039D01*
X64795775Y-90443039D01*
X64598238Y-90535151D01*
X64598233Y-90535154D01*
X64593251Y-90537477D01*
X64527729Y-90583356D01*
X64410211Y-90665643D01*
X64410208Y-90665645D01*
X64405700Y-90668802D01*
X64243802Y-90830700D01*
X64240645Y-90835208D01*
X64240643Y-90835211D01*
X64229508Y-90851114D01*
X64112477Y-91018251D01*
X64110154Y-91023233D01*
X64110151Y-91023238D01*
X64023664Y-91208713D01*
X64015716Y-91225757D01*
X64014294Y-91231065D01*
X64014293Y-91231067D01*
X63965863Y-91411808D01*
X63956457Y-91446913D01*
X63936502Y-91675000D01*
X61563498Y-91675000D01*
X61543543Y-91446913D01*
X61534137Y-91411808D01*
X61485707Y-91231067D01*
X61485706Y-91231065D01*
X61484284Y-91225757D01*
X61476336Y-91208713D01*
X61389849Y-91023238D01*
X61389846Y-91023233D01*
X61387523Y-91018251D01*
X61270492Y-90851114D01*
X61259357Y-90835211D01*
X61259355Y-90835208D01*
X61256198Y-90830700D01*
X61094300Y-90668802D01*
X61089792Y-90665645D01*
X61089789Y-90665643D01*
X60972271Y-90583356D01*
X60906749Y-90537477D01*
X60901767Y-90535154D01*
X60901762Y-90535151D01*
X60704225Y-90443039D01*
X60704224Y-90443039D01*
X60699243Y-90440716D01*
X60693935Y-90439294D01*
X60693933Y-90439293D01*
X60483402Y-90382881D01*
X60483400Y-90382881D01*
X60478087Y-90381457D01*
X60250000Y-90361502D01*
X60021913Y-90381457D01*
X60016600Y-90382881D01*
X60016598Y-90382881D01*
X59806067Y-90439293D01*
X59806065Y-90439294D01*
X59800757Y-90440716D01*
X59795776Y-90443039D01*
X59795775Y-90443039D01*
X59598238Y-90535151D01*
X59598233Y-90535154D01*
X59593251Y-90537477D01*
X59527729Y-90583356D01*
X59410211Y-90665643D01*
X59410208Y-90665645D01*
X59405700Y-90668802D01*
X59243802Y-90830700D01*
X59240645Y-90835208D01*
X59240643Y-90835211D01*
X59112713Y-91017914D01*
X59057256Y-91062242D01*
X58986636Y-91069551D01*
X58923276Y-91037520D01*
X58887291Y-90976319D01*
X58883500Y-90945643D01*
X58883500Y-88548217D01*
X58903502Y-88480096D01*
X58957158Y-88433603D01*
X59027432Y-88423499D01*
X59092012Y-88452993D01*
X59123695Y-88494967D01*
X59185151Y-88626762D01*
X59185154Y-88626767D01*
X59187477Y-88631749D01*
X59318802Y-88819300D01*
X59480700Y-88981198D01*
X59485208Y-88984355D01*
X59485211Y-88984357D01*
X59563389Y-89039098D01*
X59668251Y-89112523D01*
X59673233Y-89114846D01*
X59673238Y-89114849D01*
X59870775Y-89206961D01*
X59875757Y-89209284D01*
X59881065Y-89210706D01*
X59881067Y-89210707D01*
X60091598Y-89267119D01*
X60091600Y-89267119D01*
X60096913Y-89268543D01*
X60325000Y-89288498D01*
X60553087Y-89268543D01*
X60558400Y-89267119D01*
X60558402Y-89267119D01*
X60768933Y-89210707D01*
X60768935Y-89210706D01*
X60774243Y-89209284D01*
X60779225Y-89206961D01*
X60976762Y-89114849D01*
X60976767Y-89114846D01*
X60981749Y-89112523D01*
X61086611Y-89039098D01*
X61164789Y-88984357D01*
X61164792Y-88984355D01*
X61169300Y-88981198D01*
X61331198Y-88819300D01*
X61462523Y-88631749D01*
X61464846Y-88626767D01*
X61464849Y-88626762D01*
X61556961Y-88429225D01*
X61556961Y-88429224D01*
X61559284Y-88424243D01*
X61618543Y-88203087D01*
X61638498Y-87975000D01*
X66631502Y-87975000D01*
X66651457Y-88203087D01*
X66710716Y-88424243D01*
X66713039Y-88429224D01*
X66713039Y-88429225D01*
X66805151Y-88626762D01*
X66805154Y-88626767D01*
X66807477Y-88631749D01*
X66938802Y-88819300D01*
X67100700Y-88981198D01*
X67105208Y-88984355D01*
X67105211Y-88984357D01*
X67183389Y-89039098D01*
X67288251Y-89112523D01*
X67293233Y-89114846D01*
X67293238Y-89114849D01*
X67490775Y-89206961D01*
X67495757Y-89209284D01*
X67501065Y-89210706D01*
X67501067Y-89210707D01*
X67711598Y-89267119D01*
X67711600Y-89267119D01*
X67716913Y-89268543D01*
X67945000Y-89288498D01*
X68173087Y-89268543D01*
X68178400Y-89267119D01*
X68178402Y-89267119D01*
X68388933Y-89210707D01*
X68388935Y-89210706D01*
X68394243Y-89209284D01*
X68399225Y-89206961D01*
X68596762Y-89114849D01*
X68596767Y-89114846D01*
X68601749Y-89112523D01*
X68706611Y-89039098D01*
X68784789Y-88984357D01*
X68784792Y-88984355D01*
X68789300Y-88981198D01*
X68951198Y-88819300D01*
X69082523Y-88631749D01*
X69084846Y-88626767D01*
X69084849Y-88626762D01*
X69176961Y-88429225D01*
X69176961Y-88429224D01*
X69179284Y-88424243D01*
X69238543Y-88203087D01*
X69258498Y-87975000D01*
X69238543Y-87746913D01*
X69215667Y-87661538D01*
X69180707Y-87531067D01*
X69180706Y-87531065D01*
X69179284Y-87525757D01*
X69146305Y-87455033D01*
X69084849Y-87323238D01*
X69084846Y-87323233D01*
X69082523Y-87318251D01*
X68951198Y-87130700D01*
X68789300Y-86968802D01*
X68784792Y-86965645D01*
X68784789Y-86965643D01*
X68611150Y-86844060D01*
X68601749Y-86837477D01*
X68596767Y-86835154D01*
X68596762Y-86835151D01*
X68399225Y-86743039D01*
X68399224Y-86743039D01*
X68394243Y-86740716D01*
X68388935Y-86739294D01*
X68388933Y-86739293D01*
X68178402Y-86682881D01*
X68178400Y-86682881D01*
X68173087Y-86681457D01*
X67945000Y-86661502D01*
X67716913Y-86681457D01*
X67711600Y-86682881D01*
X67711598Y-86682881D01*
X67501067Y-86739293D01*
X67501065Y-86739294D01*
X67495757Y-86740716D01*
X67490776Y-86743039D01*
X67490775Y-86743039D01*
X67293238Y-86835151D01*
X67293233Y-86835154D01*
X67288251Y-86837477D01*
X67278850Y-86844060D01*
X67105211Y-86965643D01*
X67105208Y-86965645D01*
X67100700Y-86968802D01*
X66938802Y-87130700D01*
X66807477Y-87318251D01*
X66805154Y-87323233D01*
X66805151Y-87323238D01*
X66743695Y-87455033D01*
X66710716Y-87525757D01*
X66709294Y-87531065D01*
X66709293Y-87531067D01*
X66674333Y-87661538D01*
X66651457Y-87746913D01*
X66631502Y-87975000D01*
X61638498Y-87975000D01*
X61618543Y-87746913D01*
X61595667Y-87661538D01*
X61560707Y-87531067D01*
X61560706Y-87531065D01*
X61559284Y-87525757D01*
X61526305Y-87455033D01*
X61464849Y-87323238D01*
X61464846Y-87323233D01*
X61462523Y-87318251D01*
X61331198Y-87130700D01*
X61169300Y-86968802D01*
X61164792Y-86965645D01*
X61164789Y-86965643D01*
X60991150Y-86844060D01*
X60981749Y-86837477D01*
X60976767Y-86835154D01*
X60976762Y-86835151D01*
X60779225Y-86743039D01*
X60779224Y-86743039D01*
X60774243Y-86740716D01*
X60768935Y-86739294D01*
X60768933Y-86739293D01*
X60558402Y-86682881D01*
X60558400Y-86682881D01*
X60553087Y-86681457D01*
X60325000Y-86661502D01*
X60096913Y-86681457D01*
X60091600Y-86682881D01*
X60091598Y-86682881D01*
X59881067Y-86739293D01*
X59881065Y-86739294D01*
X59875757Y-86740716D01*
X59870776Y-86743039D01*
X59870775Y-86743039D01*
X59673238Y-86835151D01*
X59673233Y-86835154D01*
X59668251Y-86837477D01*
X59658850Y-86844060D01*
X59485211Y-86965643D01*
X59485208Y-86965645D01*
X59480700Y-86968802D01*
X59318802Y-87130700D01*
X59187477Y-87318251D01*
X59185154Y-87323233D01*
X59185151Y-87323238D01*
X59123695Y-87455033D01*
X59076778Y-87508318D01*
X59008501Y-87527779D01*
X58940541Y-87507237D01*
X58894475Y-87453215D01*
X58883500Y-87401783D01*
X58883500Y-85148217D01*
X58903502Y-85080096D01*
X58957158Y-85033603D01*
X59027432Y-85023499D01*
X59092012Y-85052993D01*
X59123695Y-85094967D01*
X59185151Y-85226762D01*
X59185154Y-85226767D01*
X59187477Y-85231749D01*
X59318802Y-85419300D01*
X59480700Y-85581198D01*
X59485208Y-85584355D01*
X59485211Y-85584357D01*
X59496495Y-85592258D01*
X59668251Y-85712523D01*
X59673233Y-85714846D01*
X59673238Y-85714849D01*
X59870775Y-85806961D01*
X59875757Y-85809284D01*
X59881065Y-85810706D01*
X59881067Y-85810707D01*
X60091598Y-85867119D01*
X60091600Y-85867119D01*
X60096913Y-85868543D01*
X60325000Y-85888498D01*
X60553087Y-85868543D01*
X60558400Y-85867119D01*
X60558402Y-85867119D01*
X60768933Y-85810707D01*
X60768935Y-85810706D01*
X60774243Y-85809284D01*
X60779225Y-85806961D01*
X60976762Y-85714849D01*
X60976767Y-85714846D01*
X60981749Y-85712523D01*
X61153505Y-85592258D01*
X61164789Y-85584357D01*
X61164792Y-85584355D01*
X61169300Y-85581198D01*
X61331198Y-85419300D01*
X61462523Y-85231749D01*
X61464846Y-85226767D01*
X61464849Y-85226762D01*
X61556961Y-85029225D01*
X61556961Y-85029224D01*
X61559284Y-85024243D01*
X61568926Y-84988261D01*
X61617119Y-84808402D01*
X61617119Y-84808400D01*
X61618543Y-84803087D01*
X61638498Y-84575000D01*
X66631502Y-84575000D01*
X66651457Y-84803087D01*
X66652881Y-84808400D01*
X66652881Y-84808402D01*
X66701075Y-84988261D01*
X66710716Y-85024243D01*
X66713039Y-85029224D01*
X66713039Y-85029225D01*
X66805151Y-85226762D01*
X66805154Y-85226767D01*
X66807477Y-85231749D01*
X66938802Y-85419300D01*
X67100700Y-85581198D01*
X67105208Y-85584355D01*
X67105211Y-85584357D01*
X67116495Y-85592258D01*
X67288251Y-85712523D01*
X67293233Y-85714846D01*
X67293238Y-85714849D01*
X67490775Y-85806961D01*
X67495757Y-85809284D01*
X67501065Y-85810706D01*
X67501067Y-85810707D01*
X67711598Y-85867119D01*
X67711600Y-85867119D01*
X67716913Y-85868543D01*
X67945000Y-85888498D01*
X68173087Y-85868543D01*
X68178400Y-85867119D01*
X68178402Y-85867119D01*
X68388933Y-85810707D01*
X68388935Y-85810706D01*
X68394243Y-85809284D01*
X68399225Y-85806961D01*
X68596762Y-85714849D01*
X68596767Y-85714846D01*
X68601749Y-85712523D01*
X68773505Y-85592258D01*
X68784789Y-85584357D01*
X68784792Y-85584355D01*
X68789300Y-85581198D01*
X68951198Y-85419300D01*
X69082523Y-85231749D01*
X69084846Y-85226767D01*
X69084849Y-85226762D01*
X69176961Y-85029225D01*
X69176961Y-85029224D01*
X69179284Y-85024243D01*
X69188926Y-84988261D01*
X69237119Y-84808402D01*
X69237119Y-84808400D01*
X69238543Y-84803087D01*
X69258498Y-84575000D01*
X69238543Y-84346913D01*
X69209984Y-84240329D01*
X69180707Y-84131067D01*
X69180706Y-84131065D01*
X69179284Y-84125757D01*
X69146305Y-84055033D01*
X69084849Y-83923238D01*
X69084846Y-83923233D01*
X69082523Y-83918251D01*
X68951198Y-83730700D01*
X68789300Y-83568802D01*
X68784792Y-83565645D01*
X68784789Y-83565643D01*
X68682468Y-83493997D01*
X68601749Y-83437477D01*
X68596767Y-83435154D01*
X68596762Y-83435151D01*
X68399225Y-83343039D01*
X68399224Y-83343039D01*
X68394243Y-83340716D01*
X68388935Y-83339294D01*
X68388933Y-83339293D01*
X68178402Y-83282881D01*
X68178400Y-83282881D01*
X68173087Y-83281457D01*
X67945000Y-83261502D01*
X67716913Y-83281457D01*
X67711600Y-83282881D01*
X67711598Y-83282881D01*
X67501067Y-83339293D01*
X67501065Y-83339294D01*
X67495757Y-83340716D01*
X67490776Y-83343039D01*
X67490775Y-83343039D01*
X67293238Y-83435151D01*
X67293233Y-83435154D01*
X67288251Y-83437477D01*
X67207532Y-83493997D01*
X67105211Y-83565643D01*
X67105208Y-83565645D01*
X67100700Y-83568802D01*
X66938802Y-83730700D01*
X66807477Y-83918251D01*
X66805154Y-83923233D01*
X66805151Y-83923238D01*
X66743695Y-84055033D01*
X66710716Y-84125757D01*
X66709294Y-84131065D01*
X66709293Y-84131067D01*
X66680016Y-84240329D01*
X66651457Y-84346913D01*
X66631502Y-84575000D01*
X61638498Y-84575000D01*
X61618543Y-84346913D01*
X61589984Y-84240329D01*
X61560707Y-84131067D01*
X61560706Y-84131065D01*
X61559284Y-84125757D01*
X61526305Y-84055033D01*
X61464849Y-83923238D01*
X61464846Y-83923233D01*
X61462523Y-83918251D01*
X61331198Y-83730700D01*
X61169300Y-83568802D01*
X61164792Y-83565645D01*
X61164789Y-83565643D01*
X61062468Y-83493997D01*
X60981749Y-83437477D01*
X60976767Y-83435154D01*
X60976762Y-83435151D01*
X60779225Y-83343039D01*
X60779224Y-83343039D01*
X60774243Y-83340716D01*
X60768935Y-83339294D01*
X60768933Y-83339293D01*
X60558402Y-83282881D01*
X60558400Y-83282881D01*
X60553087Y-83281457D01*
X60325000Y-83261502D01*
X60096913Y-83281457D01*
X60091600Y-83282881D01*
X60091598Y-83282881D01*
X59881067Y-83339293D01*
X59881065Y-83339294D01*
X59875757Y-83340716D01*
X59870776Y-83343039D01*
X59870775Y-83343039D01*
X59673238Y-83435151D01*
X59673233Y-83435154D01*
X59668251Y-83437477D01*
X59587532Y-83493997D01*
X59485211Y-83565643D01*
X59485208Y-83565645D01*
X59480700Y-83568802D01*
X59318802Y-83730700D01*
X59187477Y-83918251D01*
X59185154Y-83923233D01*
X59185151Y-83923238D01*
X59123695Y-84055033D01*
X59076778Y-84108318D01*
X59008501Y-84127779D01*
X58940541Y-84107237D01*
X58894475Y-84053215D01*
X58883500Y-84001783D01*
X58883500Y-80076000D01*
X58903502Y-80007879D01*
X58957158Y-79961386D01*
X59009500Y-79950000D01*
X78299000Y-79950000D01*
X78367121Y-79970002D01*
X78413614Y-80023658D01*
X78425000Y-80076000D01*
X78425000Y-86500000D01*
X85600000Y-86500000D01*
X85600000Y-80100668D01*
X85620002Y-80032547D01*
X85673658Y-79986054D01*
X85725666Y-79974668D01*
X90314930Y-79962549D01*
X113565167Y-79901149D01*
X113633341Y-79920972D01*
G37*
%TD.AperFunction*%
%TD*%
M02*
