%TF.GenerationSoftware,KiCad,Pcbnew,6.0.7-f9a2dced07~116~ubuntu20.04.1*%
%TF.CreationDate,2023-08-22T11:38:00+02:00*%
%TF.ProjectId,BlueBox,426c7565-426f-4782-9e6b-696361645f70,rev?*%
%TF.SameCoordinates,Original*%
%TF.FileFunction,Soldermask,Bot*%
%TF.FilePolarity,Negative*%
%FSLAX46Y46*%
G04 Gerber Fmt 4.6, Leading zero omitted, Abs format (unit mm)*
G04 Created by KiCad (PCBNEW 6.0.7-f9a2dced07~116~ubuntu20.04.1) date 2023-08-22 11:38:00*
%MOMM*%
%LPD*%
G01*
G04 APERTURE LIST*
%ADD10R,1.700000X1.700000*%
%ADD11O,1.700000X1.700000*%
%ADD12C,0.800000*%
%ADD13C,1.803150*%
%ADD14C,1.478000*%
%ADD15C,1.600000*%
%ADD16O,1.600000X1.600000*%
%ADD17C,2.600000*%
%ADD18R,1.800000X1.800000*%
%ADD19C,1.800000*%
%ADD20R,2.200000X2.200000*%
%ADD21O,2.200000X2.200000*%
%ADD22R,1.600000X1.600000*%
G04 APERTURE END LIST*
D10*
%TO.C,J8*%
X111125000Y-103400000D03*
D11*
X111125000Y-105940000D03*
%TD*%
D12*
%TO.C,11*%
X62430000Y-112000000D03*
X63430000Y-111350000D03*
X62430000Y-110700000D03*
X63430000Y-110050000D03*
X62430000Y-109400000D03*
D13*
X62320000Y-114275000D03*
X62320000Y-107125000D03*
%TD*%
D14*
%TO.C,U1*%
X101815500Y-109425000D03*
X104355500Y-109425000D03*
X106895500Y-109425000D03*
%TD*%
D15*
%TO.C,R3*%
X80965000Y-114675000D03*
D16*
X88585000Y-114675000D03*
%TD*%
D15*
%TO.C,R2*%
X60325000Y-84575000D03*
D16*
X67945000Y-84575000D03*
%TD*%
D15*
%TO.C,R1*%
X60325000Y-87975000D03*
D16*
X67945000Y-87975000D03*
%TD*%
D17*
%TO.C,L1*%
X104675000Y-89425000D03*
X99675000Y-89425000D03*
%TD*%
D11*
%TO.C,J7*%
X89095000Y-109250000D03*
X86555000Y-109250000D03*
X84015000Y-109250000D03*
D10*
X81475000Y-109250000D03*
%TD*%
%TO.C,J6*%
X77425000Y-114425000D03*
D11*
X77425000Y-111885000D03*
X77425000Y-109345000D03*
%TD*%
D10*
%TO.C,J5*%
X93475000Y-103500000D03*
D11*
X93475000Y-106040000D03*
%TD*%
D10*
%TO.C,J4*%
X63925000Y-103225000D03*
D11*
X61385000Y-103225000D03*
%TD*%
D10*
%TO.C,J3*%
X97350000Y-106000000D03*
D11*
X97350000Y-103460000D03*
%TD*%
D10*
%TO.C,J2*%
X111400000Y-82000000D03*
D11*
X111400000Y-84540000D03*
%TD*%
D10*
%TO.C,J1*%
X61050000Y-97450000D03*
D11*
X63590000Y-97450000D03*
%TD*%
D18*
%TO.C,D3*%
X91400000Y-83725000D03*
D19*
X93940000Y-83725000D03*
%TD*%
D18*
%TO.C,D2*%
X91425000Y-90500000D03*
D19*
X93965000Y-90500000D03*
%TD*%
D20*
%TO.C,D1*%
X99140000Y-81900000D03*
D21*
X106760000Y-81900000D03*
%TD*%
D22*
%TO.C,C9*%
X100805113Y-98350000D03*
D15*
X98805113Y-98350000D03*
%TD*%
D22*
%TO.C,C8*%
X94305113Y-98375000D03*
D15*
X92305113Y-98375000D03*
%TD*%
D22*
%TO.C,C7*%
X69913606Y-111250000D03*
D15*
X72413606Y-111250000D03*
%TD*%
%TO.C,C6*%
X101750000Y-113725000D03*
X106750000Y-113725000D03*
%TD*%
%TO.C,C5*%
X85350000Y-105625000D03*
X90350000Y-105625000D03*
%TD*%
%TO.C,C4*%
X101950000Y-103425000D03*
X106950000Y-103425000D03*
%TD*%
%TO.C,C3*%
X77425000Y-105625000D03*
X72425000Y-105625000D03*
%TD*%
%TO.C,C2*%
X60250000Y-91675000D03*
X65250000Y-91675000D03*
%TD*%
D22*
%TO.C,C1*%
X104794888Y-98275000D03*
D15*
X106794888Y-98275000D03*
%TD*%
M02*
