%TF.GenerationSoftware,KiCad,Pcbnew,6.0.7-f9a2dced07~116~ubuntu20.04.1*%
%TF.CreationDate,2023-08-22T11:37:59+02:00*%
%TF.ProjectId,BlueBox,426c7565-426f-4782-9e6b-696361645f70,rev?*%
%TF.SameCoordinates,Original*%
%TF.FileFunction,Paste,Top*%
%TF.FilePolarity,Positive*%
%FSLAX46Y46*%
G04 Gerber Fmt 4.6, Leading zero omitted, Abs format (unit mm)*
G04 Created by KiCad (PCBNEW 6.0.7-f9a2dced07~116~ubuntu20.04.1) date 2023-08-22 11:37:59*
%MOMM*%
%LPD*%
G01*
G04 APERTURE LIST*
%ADD10R,1.500000X0.600000*%
%ADD11R,0.600000X1.500000*%
%ADD12R,2.790000X0.760000*%
%ADD13R,1.780000X1.780000*%
G04 APERTURE END LIST*
D10*
%TO.C,U2*%
X72250000Y-81025000D03*
X72250000Y-82025000D03*
X72250000Y-83025000D03*
X72250000Y-84025000D03*
X72250000Y-85025000D03*
X72250000Y-86025000D03*
X72250000Y-87025000D03*
X72250000Y-88025000D03*
X72250000Y-89025000D03*
X72250000Y-90025000D03*
X72250000Y-91025000D03*
X72250000Y-92025000D03*
X72250000Y-93025000D03*
X72250000Y-94025000D03*
X72250000Y-95025000D03*
X72250000Y-96025000D03*
X72250000Y-97025000D03*
X72250000Y-98025000D03*
X72250000Y-99025000D03*
X72250000Y-100025000D03*
D11*
X75000000Y-101675000D03*
X76000000Y-101675000D03*
X77000000Y-101675000D03*
X78000000Y-101675000D03*
X79000000Y-101675000D03*
X80000000Y-101675000D03*
X81000000Y-101675000D03*
X82000000Y-101675000D03*
X83000000Y-101675000D03*
X84000000Y-101675000D03*
D10*
X86750000Y-100025000D03*
X86750000Y-99025000D03*
X86750000Y-98025000D03*
X86750000Y-97025000D03*
X86750000Y-96025000D03*
X86750000Y-95025000D03*
X86750000Y-94025000D03*
X86750000Y-93025000D03*
X86750000Y-92025000D03*
X86750000Y-91025000D03*
X86750000Y-90025000D03*
X86750000Y-89025000D03*
X86750000Y-88025000D03*
X86750000Y-87025000D03*
X86750000Y-86025000D03*
X86750000Y-85025000D03*
X86750000Y-84025000D03*
X86750000Y-83025000D03*
X86750000Y-82025000D03*
X86750000Y-81025000D03*
D12*
X76210000Y-81345000D03*
D13*
X84270000Y-91455000D03*
%TD*%
M02*
